<svg xmlns="http://www.w3.org/2000/svg" viewBox="0 0 800 800"><path d="M506.31 542.98l153.65-142.57c-51.62-47.86-102.4-94.96-153.63-142.46-11.63 10.82-22.44 20.87-33.91 31.55 31.27 29.06 62.01 57.63 92.74 86.2-.37.86-.75 1.72-1.12 2.58H128.79v44.69h438.78c-33.1 30.76-63.9 59.39-95.13 88.42 11.68 10.89 22.23 20.73 33.87 31.59z" fill="#fff"/><path d="M506.31 542.98c-11.64-10.86-22.19-20.7-33.88-31.59 31.23-29.02 62.03-57.66 95.13-88.42H128.78v-44.69h435.25c.37-.86.75-1.72 1.12-2.58-30.74-28.57-61.47-57.13-92.74-86.2 11.47-10.67 22.29-20.73 33.91-31.55 51.23 47.5 102.01 94.6 153.63 142.46-51.31 47.62-102.07 94.72-153.64 142.57z"/></svg>