<?xml version="1.0" encoding="utf-8"?>
<!-- Generator: Adobe Illustrator 25.4.1, SVG Export Plug-In . SVG Version: 6.00 Build 0)  -->
<svg version="1.1" id="Слой_1" xmlns="http://www.w3.org/2000/svg" xmlns:xlink="http://www.w3.org/1999/xlink" x="0px" y="0px"
	 viewBox="0 0 800 800" style="enable-background:new 0 0 800 800;" xml:space="preserve">
<g>
	<path d="M319.48,352.08c10.85,14.94,20.88,30.09,32.25,44.15c26.41,32.66,57.53,60.12,93.61,81.84c3.35,2.02,5.05,1.43,7.5-1.1
		c8.11-8.39,16.41-16.59,24.69-24.81c18.53-18.42,43.74-18.51,62.25-0.13c15.97,15.85,31.89,31.76,47.73,47.74
		c18.11,18.28,17.62,43.21,0.03,62.03c-20.02,21.43-43.94,34.78-73.04,38.66c-24.83,3.3-49.21,0.57-73.21-6
		c-44.13-12.08-82.9-34.31-117.92-63.3c-42.14-34.87-76.29-76.22-99.95-125.79c-14.87-31.15-24.36-63.75-24.51-98.56
		c-0.17-38.44,13.41-70.82,42.81-96.24c16.91-14.62,41.13-14.8,57.19,0.72c17.5,16.91,34.71,34.13,51.64,51.61
		c16.15,16.68,15.66,41.95-0.81,59.01C340.26,331.73,330.41,341.21,319.48,352.08z M492.82,571.81
		c29.04,0.35,53.86-9.04,73.39-31.17c6.29-7.12,6.52-13.25-0.28-20.08c-15.63-15.71-31.31-31.39-47.01-47.03
		c-7.01-6.98-13.35-6.96-20.37,0.03c-11.58,11.52-23.08,23.12-34.66,34.63c-6.55,6.52-12.62,7.38-20.76,2.88
		c-65.66-36.32-116.67-87.35-153.18-152.89c-5.05-9.06-4.19-14.66,3.08-21.95c11.65-11.69,23.38-23.29,34.96-35.04
		c5.63-5.71,5.85-12.62,0.35-18.2c-16.39-16.61-32.89-33.1-49.49-49.5c-5.35-5.28-11.8-5.07-17.46-0.24
		c-21.61,18.45-31.96,42.11-32.48,70.26c-0.52,28,6.03,54.62,17.51,79.86c34.36,75.53,89.41,131.23,163.76,167.7
		C436.13,563.82,463.68,571.32,492.82,571.81z"/>
	<path d="M587.93,400.78c0,1.5,0,3,0,4.5c-0.01,9.26-6.23,16.09-14.76,16.21c-8.38,0.12-15.08-6.67-15.18-15.89
		c-0.16-15.77-2.5-31.17-6.98-46.29c-18.65-62.96-76.05-109.63-141.36-114.85c-4.32-0.34-8.64-0.62-12.97-0.75
		c-9.74-0.3-16.37-6.43-16.27-15.18c0.1-8.77,6.95-14.99,16.6-14.82c48.6,0.9,91.18,17.38,127.38,49.84
		C563.54,298.65,587.21,350.14,587.93,400.78z"/>
	<path d="M402.05,277.27c67.94,3.82,121.49,59.25,122.59,127.03c0.19,11.98-9.29,19.82-19.77,16.33
		c-6.27-2.09-9.97-7.43-10.18-15.02c-0.62-22.69-7.44-43.22-21.76-60.92c-18.21-22.49-41.81-35.03-70.78-37.2
		c-2.82-0.21-5.66-0.24-8.47-0.58c-7.83-0.95-13.37-7.26-13.26-14.97c0.11-7.7,5.78-13.88,13.65-14.63
		C396.7,277.06,399.39,277.27,402.05,277.27z"/>
</g>
</svg>
