<svg xmlns="http://www.w3.org/2000/svg" viewBox="0 0 800 800"><path d="M319.48 352.08c10.85 14.94 20.88 30.09 32.25 44.15 26.41 32.66 57.53 60.12 93.61 81.84 3.35 2.02 5.05 1.43 7.5-1.1 8.11-8.39 16.41-16.59 24.69-24.81 18.53-18.42 43.74-18.51 62.25-.13 15.97 15.85 31.89 31.76 47.73 47.74 18.11 18.28 17.62 43.21.03 62.03-20.02 21.43-43.94 34.78-73.04 38.66-24.83 3.3-49.21.57-73.21-6-44.13-12.08-82.9-34.31-117.92-63.3-42.14-34.87-76.29-76.22-99.95-125.79-14.87-31.15-24.36-63.75-24.51-98.56-.17-38.44 13.41-70.82 42.81-96.24 16.91-14.62 41.13-14.8 57.19.72a2204.29 2204.29 0 0151.64 51.61c16.15 16.68 15.66 41.95-.81 59.01-9.48 9.82-19.33 19.3-30.26 30.17zm173.34 219.73c29.04.35 53.86-9.04 73.39-31.17 6.29-7.12 6.52-13.25-.28-20.08-15.63-15.71-31.31-31.39-47.01-47.03-7.01-6.98-13.35-6.96-20.37.03-11.58 11.52-23.08 23.12-34.66 34.63-6.55 6.52-12.62 7.38-20.76 2.88-65.66-36.32-116.67-87.35-153.18-152.89-5.05-9.06-4.19-14.66 3.08-21.95 11.65-11.69 23.38-23.29 34.96-35.04 5.63-5.71 5.85-12.62.35-18.2-16.39-16.61-32.89-33.1-49.49-49.5-5.35-5.28-11.8-5.07-17.46-.24-21.61 18.45-31.96 42.11-32.48 70.26-.52 28 6.03 54.62 17.51 79.86 34.36 75.53 89.41 131.23 163.76 167.7 25.95 12.75 53.5 20.25 82.64 20.74zm95.11-171.03v4.5c-.01 9.26-6.23 16.09-14.76 16.21-8.38.12-15.08-6.67-15.18-15.89-.16-15.77-2.5-31.17-6.98-46.29-18.65-62.96-76.05-109.63-141.36-114.85-4.32-.34-8.64-.62-12.97-.75-9.74-.3-16.37-6.43-16.27-15.18.1-8.77 6.95-14.99 16.6-14.82 48.6.9 91.18 17.38 127.38 49.84 39.15 35.1 62.82 86.59 63.54 137.23z"/><path d="M402.05 277.27c67.94 3.82 121.49 59.25 122.59 127.03.19 11.98-9.29 19.82-19.77 16.33-6.27-2.09-9.97-7.43-10.18-15.02-.62-22.69-7.44-43.22-21.76-60.92-18.21-22.49-41.81-35.03-70.78-37.2-2.82-.21-5.66-.24-8.47-.58-7.83-.95-13.37-7.26-13.26-14.97.11-7.7 5.78-13.88 13.65-14.63 2.63-.25 5.32-.04 7.98-.04z"/></svg>