<?xml version="1.0" encoding="utf-8"?>
<!-- Generator: Adobe Illustrator 25.4.1, SVG Export Plug-In . SVG Version: 6.00 Build 0)  -->
<svg version="1.1" id="Слой_1" xmlns="http://www.w3.org/2000/svg" xmlns:xlink="http://www.w3.org/1999/xlink" x="0px" y="0px"
	 viewBox="0 0 800 800" style="enable-background:new 0 0 800 800;" xml:space="preserve">
<g id="EuCHNA.tif">
	<g>
		<path d="M584.22,14c4.88,1.65,10.04,2.76,14.6,5.04c20.83,10.44,31.84,27.65,32.01,50.84c0.38,49.16,0.14,98.32,0.1,147.48
			c-0.01,7.94-4.69,13.03-11.53,12.91c-6.76-0.12-10.96-4.94-10.97-12.87c-0.03-48.72,0.01-97.43-0.04-146.15
			c-0.01-15.57-7.73-27.74-21.31-32.69c-4.47-1.63-9.52-2.31-14.31-2.31c-125.71-0.12-251.42-0.1-377.14-0.09
			c-1.33,0-2.67,0.12-4,0.04c-4.15-0.26-5.61,1.46-5.59,5.76c0.16,31.83,0.03,63.67,0.1,95.51c0.03,13.45-4.76,24.54-15.48,32.85
			c-7.57,5.87-16.33,8.02-25.78,8c-31.54-0.04-63.08-0.02-94.62-0.01c-5.82,0-5.87,0.06-6.09,5.91c-0.04,1.04-0.05,2.07-0.05,3.11
			c0,179.17,0.01,358.33-0.03,537.5c0,12.34,4.38,22.57,14.96,28.93c5.11,3.07,11.54,3.98,17.41,5.74c1.09,0.33,2.36,0.07,3.54,0.07
			c164.06,0,328.12-0.02,492.19,0.05c8.59,0,16.46-1.73,23.27-7.1c8.29-6.54,12.5-15.22,12.88-25.72
			c0.19-5.18-0.05-10.37,0.13-15.54c0.22-6.3,4.5-10.76,10.43-11.21c5.51-0.41,11.2,3.53,11.64,9.4
			c1.16,15.45,1.28,30.94-7.28,44.79c-11.21,18.15-27.34,27.53-49,27.51c-91.36-0.11-182.72-0.05-274.08-0.05
			c-74.33,0-148.66,0.04-222.99-0.03c-24.88-0.02-45.34-14.69-52.79-38.44c-2.08-6.63-2.65-13.97-2.65-20.98
			c-0.14-149.26-0.11-298.51-0.11-447.77c0-28.73,0.23-57.45-0.08-86.18c-0.19-17.64,6.02-32.17,18.46-44.53
			c35.08-34.86,70.11-69.77,104.86-104.96c11.32-11.47,23.08-21.69,39.5-24.78C317.66,14,450.94,14,584.22,14z M62.03,155.61
			c1.15,0.05,2.57,0.18,3.99,0.18c25.74,0.01,51.49,0.01,77.23,0.01c14.35-0.01,20.37-5.93,20.38-20.12
			c0.02-25.89,0.01-51.78,0-77.68c0-1.4-0.15-2.79-0.21-3.77C129.64,88.01,95.94,121.7,62.03,155.61z"/>
		<path d="M541.21,626.19c0-16.43-0.06-32.87,0.06-49.3c0.02-3.2-0.82-4.51-4.25-5.23c-18.74-3.91-33.18-20.62-34.47-40.3
			c-0.75-11.53-6.13-18.76-16.67-23.28c-26.8-11.51-36.14-40.9-21.03-65.79c5.67-9.34,5.73-18.12,0.06-27.48
			c-15.15-24.97-5.94-54.15,20.89-65.82c10.47-4.55,15.96-11.69,16.75-23.25c1.96-28.65,29.64-47.2,55.41-40.33
			c11.65,3.11,20.26-0.46,27.9-9.33c14.49-16.83,38.48-20.47,57.15-8.85c4.08,2.54,7.84,5.9,10.98,9.54
			c7.18,8.32,15.45,11.41,26.45,8.85c25.67-5.97,48.65,7.87,55.11,32.72c0.81,3.13,1.04,6.42,1.36,9.65
			c0.98,9.96,6.16,16.55,15.4,20.39c20.1,8.37,30.93,25.28,28.81,46.55c-0.66,6.67-3.36,13.55-6.7,19.45
			c-5.46,9.65-5.78,18.42,0,27.95c15.22,25.1,5.34,55.09-21.82,66.25c-9.66,3.97-15.23,10.73-15.66,21.07
			c-0.87,20.78-16.12,38.59-36.04,42.31c-3.21,0.6-2.83,2.9-2.83,5.09c-0.01,14.95-0.01,29.91-0.01,44.86
			c0,17.32,0.09,34.64-0.04,51.96c-0.1,13.57-8.34,23.12-21.21,24.85c-5.99,0.8-11.4-0.96-16.46-4.09
			c-12.21-7.55-24.47-15-36.61-22.66c-2.83-1.79-4.94-2.05-7.96-0.12c-11.97,7.65-24.2,14.88-36.24,22.42
			c-8.46,5.29-17.17,6.51-26.03,1.54c-8.84-4.96-12.41-12.98-12.32-22.99C541.32,657.29,541.21,641.74,541.21,626.19z
			 M759.16,392.57c-0.58-11.79-4.92-19.13-13.87-22.69c-19.36-7.71-29.45-21.7-31.14-42.39c-1.22-14.89-13.84-23.6-28.34-20.05
			c-19.46,4.78-35.55-0.46-48.53-15.74c-9.94-11.7-25.45-11.71-35.45,0.06c-13,15.31-29.1,20.42-48.54,15.66
			c-14.48-3.55-27.51,5.86-28.47,20.59c-1.31,20.05-11.22,33.74-29.77,41.34c-14.19,5.81-19.1,20.56-11.03,33.67
			c10.51,17.08,10.48,33.94-0.02,51.01c-8.06,13.08-3.16,27.84,11.09,33.67c18.58,7.6,28.49,21.29,29.74,41.34
			c0.47,7.56,3.93,13.54,10.28,17.76c6.41,4.26,13.22,4.11,20.46,2.44c17.92-4.13,33.06,0.98,45.13,14.78
			c11.77,13.45,25.94,13.43,37.86-0.08c12.12-13.74,27.19-18.67,45.19-14.81c3.7,0.79,7.69,1.5,11.37,0.98
			c11.15-1.57,18.18-9.4,19.14-21.14c1.65-20.11,11.52-33.9,30.35-41.49c13.66-5.5,18.58-20.55,10.79-33.14
			c-10.65-17.21-10.81-34.13-0.22-51.41C757.41,399.28,758.33,394.82,759.16,392.57z M563.71,676.76c2.51-1.18,3.98-1.71,5.28-2.51
			c12.12-7.39,24.3-14.71,36.29-22.3c9.51-6.02,18.82-6.14,28.34-0.23c12.07,7.49,24.16,14.93,36.3,22.3
			c1.39,0.84,3.14,1.09,4.72,1.61c0.3-1.54,0.85-3.09,0.85-4.63c0.05-31.82,0.04-63.65,0.04-95.47c0-5.19-0.7-5.81-6.01-4.96
			c-6.65,1.07-11.48,4.97-15.73,10c-7.79,9.24-17.77,14.57-29.87,15.59c-15.72,1.33-28.76-4.08-38.97-16.08
			c-4.28-5.03-9.24-8.65-15.93-9.62c-3.79-0.55-5.47,0.25-5.44,4.77c0.21,31.97,0.11,63.94,0.11,95.91
			C563.7,672.59,563.71,674.03,563.71,676.76z"/>
		<path d="M395.02,91.33c37.6,0,75.2-0.01,112.8,0c17.45,0.01,27.5,10.06,27.55,27.56c0.03,11.1,0.08,22.21-0.02,33.31
			c-0.14,15.22-10.78,26.01-26.08,26.04c-52.11,0.1-104.22,0.05-156.33,0.02c-6.81,0-11.39-3.36-12.68-8.94
			c-1.1-4.73,1.27-10.23,5.96-12.19c2.61-1.09,5.74-1.29,8.64-1.29c50.18-0.07,100.37-0.05,150.55-0.05c7.41,0,7.48-0.06,7.48-7.4
			c0-8.88,0-17.76,0-26.65c0-7.89,0-7.9-7.69-7.9c-73.72,0-147.44,0-221.17,0c-1.18,0-2.37,0.05-3.55,0.01
			c-2.82-0.09-4.01,1.33-4,4.06c0.02,11.1,0.03,22.21-0.01,33.31c-0.01,3.18,1.47,4.59,4.6,4.57c5.48-0.04,10.96-0.07,16.43,0.02
			c7.37,0.12,12.33,4.62,12.37,11.09c0.04,6.45-4.96,11.29-12.25,11.31c-7.83,0.02-15.76,0.31-23.46-0.78
			c-11.02-1.57-19.39-10.78-19.86-21.93c-0.58-13.74-0.67-27.54-0.02-41.28c0.64-13.6,11.57-22.87,25.72-22.88
			C318.34,91.31,356.68,91.33,395.02,91.33z"/>
		<path d="M262.17,444.21c46.18,0,92.36,0,138.55,0c1.92,0,3.86-0.05,5.77,0.11c5.88,0.5,10.2,5.03,10.38,10.76
			c0.18,5.75-3.81,10.58-9.62,11.49c-1.45,0.23-2.95,0.17-4.43,0.17c-94.14,0.01-188.28,0.04-282.42-0.12
			c-3.45-0.01-7.38-1.2-10.22-3.12c-3.63-2.46-4.62-6.71-3.27-11.15c1.39-4.56,4.54-7.21,9.18-7.94c2.03-0.32,4.13-0.2,6.2-0.2
			C168.92,444.21,215.54,444.21,262.17,444.21z"/>
		<path d="M261.6,523.35c46.62,0,93.24-0.01,139.86,0.01c2.07,0,4.16,0,6.19,0.31c5.3,0.81,8.97,5.05,9.19,10.38
			c0.22,5.38-2.99,9.92-8.19,11.2c-1.98,0.49-4.1,0.62-6.15,0.62c-93.83,0.03-187.67,0.02-281.5,0.02c-0.3,0-0.59,0-0.89,0
			c-8.34-0.1-13.69-4.48-13.75-11.25c-0.06-6.81,5.23-11.27,13.6-11.28C167.17,523.34,214.39,523.35,261.6,523.35z"/>
		<path d="M261.61,286.08c46.62,0,93.24,0,139.86,0.01c2.07,0,4.16-0.02,6.19,0.3c5.35,0.85,8.98,5.06,9.19,10.38
			c0.22,5.57-3.19,10.18-8.62,11.3c-2.15,0.44-4.41,0.53-6.61,0.53c-93.24,0.03-186.48,0.03-279.72,0c-2.21,0-4.46-0.08-6.62-0.51
			c-5.34-1.07-9.11-5.93-8.9-11.18c0.2-5.16,3.99-9.61,9.19-10.49c2.02-0.34,4.12-0.33,6.19-0.33
			C168.37,286.08,214.99,286.08,261.61,286.08z"/>
		<path d="M261.19,387.54c-46.62,0-93.25,0.01-139.87-0.03c-2.63,0-5.41-0.05-7.87-0.85c-4.59-1.49-7.51-6.56-7.05-11.21
			c0.53-5.33,4.59-9.51,10.11-10.25c1.6-0.21,3.25-0.15,4.88-0.15c93.54-0.01,187.09-0.01,280.63,0.02c2.34,0,4.79,0.07,7.01,0.72
			c5.38,1.56,8.35,6.37,7.76,11.93c-0.57,5.35-4.78,9.32-10.39,9.72c-1.77,0.13-3.55,0.09-5.33,0.09
			C354.44,387.54,307.81,387.54,261.19,387.54z"/>
		<path d="M190.19,639.27c22.94,0,45.87-0.02,68.81,0.03c2.34,0.01,4.81,0.05,6.99,0.77c4.85,1.6,7.72,6.55,7.16,11.53
			c-0.56,5.03-4.27,9-9.36,9.93c-1.15,0.21-2.36,0.21-3.54,0.21c-46.91,0.01-93.82,0.01-140.73-0.02c-1.75,0-3.58-0.16-5.23-0.68
			c-5.29-1.65-8.58-6.82-7.83-11.95c0.79-5.44,4.93-9.32,10.48-9.73c1.77-0.13,3.55-0.1,5.32-0.1
			C144.91,639.26,167.55,639.27,190.19,639.27z"/>
		<path d="M619.32,522.73c-51.8-0.11-94.07-42.45-94.03-94.19c0.03-52.02,42.51-94.45,94.4-94.29
			c52.38,0.16,94.43,42.52,94.19,94.88C713.64,480.91,671.28,522.84,619.32,522.73z M619.78,500.19
			c39.73-0.14,71.67-32.21,71.56-71.85c-0.11-39.68-32.21-71.61-71.9-71.54c-39.54,0.08-71.86,32.51-71.63,71.88
			C548.04,468.36,580.22,500.33,619.78,500.19z"/>
	</g>
</g>
</svg>
