<?xml version="1.0" encoding="utf-8"?>
<!-- Generator: Adobe Illustrator 25.4.1, SVG Export Plug-In . SVG Version: 6.00 Build 0)  -->
<svg version="1.1" id="Слой_1" xmlns="http://www.w3.org/2000/svg" xmlns:xlink="http://www.w3.org/1999/xlink" x="0px" y="0px"
	 viewBox="0 0 800 800" style="enable-background:new 0 0 800 800;" xml:space="preserve">
<g id="weaAhm.tif">
	<g>
		<path d="M374.93,557c-3.67-0.46-7.35-0.91-11.02-1.39c-42.73-5.6-77.35-25.32-103.55-59.59c-13.08-17.11-21.96-36.28-26.8-57.25
			c-4.47-19.37-4.98-38.91-1.8-58.54c0.54-3.35,2.8-4.96,6.17-4.46c3.11,0.46,4.63,2.86,4.36,6.33c-0.69,8.68-1.95,17.39-1.76,26.06
			c0.71,32.36,11.59,61.12,32.05,86.18c17.43,21.36,39.37,36.27,65.58,44.79c16.76,5.44,33.97,7.69,51.6,6.63
			c32.09-1.92,60.3-13.48,84.63-34.36c18.81-16.14,32.37-36.02,40.67-59.4c7.78-21.92,10.18-44.47,6.79-67.48
			c-4.94-33.5-20.15-61.69-45.03-84.63c-3.51-3.23-7.33-6.13-11.08-9.08c-0.57-0.45-1.89-0.8-2.31-0.48
			c-4.69,3.58-9.27,7.3-14.1,11.16c0.64,0.5,1.18,0.98,1.77,1.39c25.56,17.8,43.04,41.59,50.07,71.92
			c10.68,46.06-1.08,86.22-35.01,119.39c-16.28,15.91-36.05,25.73-58.21,30.7c-12.53,2.81-25.23,3.39-38.02,2.31
			c-2.23-0.19-4.41-0.5-5.61-2.8c-1.01-1.94-0.84-3.83,0.24-5.64c1.14-1.92,2.97-2.38,5.09-2.31c5.61,0.2,11.24,0.76,16.82,0.4
			c42.17-2.75,73.91-22.49,94.58-59.36c11.11-19.82,14.73-41.42,12.7-63.97c-0.39-4.34-1.27-8.63-1.99-13.35
			c-8.81,5-17.13,9.66-23.36,17.17c-3.71,4.47-5.29,9.77-4.98,15.46c0.34,6.12,0.81,12.28,1.87,18.31
			c1.5,8.51-0.53,16.13-4.81,23.29c-6.56,10.97-15.36,19.55-27.56,24.06c-10.22,3.78-19.34,0.44-23.52-8.53
			c-1.2-2.58-2.19-5.41-2.53-8.21c-0.77-6.46-1.3-12.97-1.54-19.48c-0.42-11.37-0.45-22.75-0.85-34.11
			c-0.09-2.6-0.91-5.21-1.62-7.75c-0.58-2.07-1.98-2.95-4.33-2.61c-8.48,1.21-16.96,2.46-25.49,3.28
			c-7.1,0.69-14.13-0.04-20.57-3.51c-8.03-4.32-12.31-11.53-14.61-19.99c-3.84-14.12,0.92-25.95,10.28-36.36
			c2.36-2.62,5.06-4.94,7.96-7.75c-2.51-0.37-4.71-0.63-6.88-1.03c-12.86-2.35-24.67-7.32-35.53-14.54
			c-1.47-0.98-2.35-0.91-3.69,0.22c-13.34,11.22-23.63,24.73-30.92,40.56c-0.76,1.64-0.5,2.72,0.44,4.28
			c4.15,6.87,8.04,13.91,12.02,20.88c0.04,0.07,0.07,0.13,0.1,0.2c2.54,5.93,6.88,9.56,13.3,10.81c2.2,0.43,4.34,1.36,6.41,2.28
			c9.78,4.36,13.11,11.57,9.45,21.64c-2.38,6.53-5.58,12.76-8.3,19.18c-1.8,4.25-3.57,8.52-4.96,12.91
			c-0.43,1.36,0.01,3.37,0.77,4.67c7.03,12.05,10.17,24.91,8.41,38.83c-0.2,1.55,0.3,2.44,1.58,3.13
			c6.79,3.68,13.55,7.4,20.36,11.04c1.7,0.91,3.45,1.68,3.88,3.82c0.44,2.17-0.1,4.08-1.75,5.59c-1.64,1.51-3.53,1.57-5.51,0.76
			c-11.24-4.59-21.62-10.66-31-18.37c-21.14-17.36-35.81-39.15-41.83-65.82c-10.79-47.8,2.06-88.72,38-122.23
			c0.71-0.66,1.44-1.29,2.8-2.51c-0.85-0.46-1.52-0.7-2.03-1.14c-19.41-16.52-34.07-36.73-45.91-59.13
			c-3.81-7.2-3.67-7.81,2.67-13.12c18.15-15.22,37.95-27.73,60.31-35.84c16.76-6.07,33.97-9.06,51.83-6.51
			c15.6,2.22,29.4,8.75,42.06,17.89c2.76,2,5.44,4.13,8.05,6.32c2.57,2.15,2.84,4.98,0.9,7.43c-2.02,2.54-4.93,2.93-7.6,0.74
			c-7.72-6.32-15.85-11.97-25.02-16.01c-8.55-3.77-17.45-6.08-26.8-6.54c-0.68-0.03-1.36-0.01-2.04,0.02
			c-0.12,0-0.23,0.16-0.59,0.42c0.45,0.64,0.88,1.3,1.35,1.94c14.26,19.46,28.54,38.9,42.77,58.38c1,1.37,2.08,2.16,3.8,2.49
			c14.82,2.82,29.62,5.75,44.43,8.63c0.35,0.07,0.73,0.01,1.37,0.01c-0.31-0.7-0.46-1.26-0.77-1.72
			c-5.75-8.46-11.51-16.92-17.28-25.37c-0.38-0.56-0.85-1.07-1.24-1.63c-1.75-2.57-1.34-5.39,1.05-7.26
			c2.35-1.83,5.35-1.63,7.28,0.78c3.12,3.91,6.32,7.8,9.03,11.99c4.98,7.7,9.59,15.63,14.45,23.41c0.89,1.43,2.05,2.84,3.4,3.8
			c8.76,6.21,16.84,13.18,24.15,21.05c0.43,0.46,0.93,0.87,1.78,1.65c-0.57-3.97-1.1-7.38-1.53-10.8
			c-3.54-27.8,6.71-49.54,29.13-65.84c13.97-10.16,29.53-16.94,46.17-21.35c3.24-0.86,5.26-0.05,6.89,2.84
			c7.23,12.83,12.61,26.39,15.61,40.83c0.86,4.14,1.39,8.35,2.08,12.53c0,4.7,0,9.41,0,14.11c-0.29,1.78-0.59,3.57-0.88,5.35
			c-2.42,15.03-9.99,27.17-21.09,37.27c-12.44,11.32-27.12,18.74-42.82,24.33c-2.19,0.78-4.4,1.5-6.72,2.29
			c0.3,0.91,0.46,1.56,0.72,2.17c4.12,9.74,7.11,19.81,9.07,30.21c4.72,25.03,3.16,49.7-4.43,73.96
			c-8.89,28.4-24.86,52.15-47.76,71.15c-22.74,18.87-48.77,30.32-78.14,34.06c-3.82,0.49-7.64,0.98-11.46,1.47
			C384.64,557,379.78,557,374.93,557z M416.23,431.76c-0.09,0-0.18,0.01-0.26,0.01c0,4.86-0.27,9.73,0.07,14.56
			c0.4,5.57,0.96,11.19,2.15,16.64c1.27,5.8,5.06,7.62,10.67,5.61c10.86-3.88,18.3-11.59,23.52-21.63c2.29-4.4,3.29-8.99,2.38-14.06
			c-0.95-5.29-1.42-10.67-1.92-16.03c-1.35-14.3,3.96-25.75,15.46-34.14c5.99-4.36,12.44-8.09,18.71-12.05
			c1.04-0.66,1.76-1.03,1.21-2.6c-8.92-25.07-24.65-44.67-47.06-58.97c-1.35-0.86-2.34-0.8-3.71-0.01
			c-5.97,3.44-11.93,6.93-18.07,10.07c-10.91,5.58-22.33,9.94-34.44,12.02c-6.17,1.06-11.84,2.72-16.6,6.92
			c-0.39,0.35-0.93,0.54-1.32,0.88c-4,3.47-8.37,6.61-11.88,10.52c-6.81,7.59-9.95,16.38-6.64,26.66
			c2.91,9.04,8.65,13.77,18.12,14.23c4.07,0.2,8.19-0.11,12.25-0.57c6.63-0.75,13.21-1.93,19.83-2.71c5.75-0.68,9.98,1.85,12.8,6.83
			c2.29,4.04,3.33,8.49,3.61,13.05C415.63,415.24,415.88,423.5,416.23,431.76z M343.74,320.36c2.99,0.63,5.45,1.26,7.95,1.65
			c14.54,2.26,28.71,0.35,42.6-4.12c20.44-6.59,38.6-17.39,55.57-30.36c0.26-0.2,0.41-0.53,0.83-1.09c-3.39-0.67-6.49-1.29-9.59-1.9
			c-12.12-2.37-24.23-4.78-36.37-7.04c-1.17-0.22-2.77,0.12-3.73,0.81c-18.45,13.42-36.84,26.92-55.23,40.41
			C345.23,319.12,344.73,319.56,343.74,320.36z M306.42,488.05c0.1-1.07,0.16-1.37,0.15-1.66c-0.01-0.61-0.05-1.21-0.09-1.82
			c-0.55-8.4-2.84-16.28-7.34-23.4c-2.91-4.61-3.44-9.49-1.62-14.38c2.42-6.52,5.41-12.82,8.12-19.23c1.8-4.25,3.69-8.47,5.25-12.82
			c1.5-4.18,0.63-5.95-3.44-7.73c-2.21-0.97-4.5-1.88-6.84-2.42c-8.1-1.87-13.76-6.59-17.46-13.97c-2.55-5.08-5.41-10-8.14-14.98
			c-0.3-0.55-0.7-1.04-1.16-1.72c-5.71,17.14-6.88,44.64,2.79,70.13C283.01,460.88,292.65,475.48,306.42,488.05z M302.95,295.91
			c8.12,7.54,16.6,13.82,26.12,18.69c1.87,0.96,3.13,0.94,4.87-0.34c17.44-12.88,34.95-25.67,52.43-38.49
			c0.46-0.34,0.86-0.76,1.44-1.28c-0.65-0.28-1.03-0.53-1.45-0.61c-13.53-2.64-27.07-5.3-40.62-7.83c-1.01-0.19-2.39,0.31-3.26,0.94
			c-9.16,6.61-18.25,13.31-27.36,19.99C311.14,289.88,307.18,292.79,302.95,295.91z M316.29,212.62c0.66,1,1.07,1.69,1.54,2.34
			c9.36,12.78,18.76,25.52,28.05,38.35c1.18,1.63,2.54,2.39,4.42,2.74c8.86,1.67,17.69,3.43,26.54,5.14
			c3.84,0.74,7.69,1.45,12.1,2.27c-0.64-1.04-0.93-1.61-1.31-2.13c-13.48-18.4-26.98-36.78-40.42-55.21
			c-1.04-1.42-2.15-1.71-3.68-1.34c-5.37,1.28-10.79,2.4-16.11,3.88C323.74,209.68,320.2,211.21,316.29,212.62z M582.22,277.06
			c-0.29-0.14-0.57-0.29-0.86-0.43c-0.35,0.11-0.7,0.2-1.04,0.33c-12.39,5.12-24.78,10.2-37.13,15.43c-1.17,0.49-2.4,1.65-2.9,2.81
			c-4.84,11.27-9.54,22.61-14.26,33.93c-0.24,0.58-0.37,1.2-0.6,2c0.61-0.06,0.92-0.03,1.18-0.13c10.91-4.07,21.31-9.14,30.68-16.11
			c8.95-6.65,16.6-14.48,20.91-24.97C579.9,285.78,580.9,281.35,582.22,277.06z M514.68,327.96c0.61-1.07,0.95-1.55,1.17-2.07
			c4.59-10.97,9.21-21.93,13.7-32.94c0.43-1.04,0.45-2.55,0.03-3.59c-3.83-9.56-7.8-19.07-11.73-28.59c-1.49-3.62-3-7.23-4.52-10.88
			c-0.42,0.21-0.68,0.26-0.8,0.42c-0.42,0.53-0.81,1.1-1.19,1.66c-5.16,7.79-7.64,16.45-8.13,25.7c-0.7,12.93,2.05,25.32,6.36,37.41
			C511.07,319.25,512.84,323.32,514.68,327.96z M268.56,250.91c0.25,0.76,0.29,1.07,0.44,1.32c7.23,12.41,15.52,24.05,25.12,34.74
			c1.04,1.16,1.75,0.94,2.83,0.14c10.43-7.68,20.89-15.32,31.35-22.97c0.36-0.26,0.8-0.42,1.2-0.62c-0.1-0.26-0.21-0.52-0.31-0.79
			C309.1,258.82,289.03,254.9,268.56,250.91z M535.85,276.41c0.23,0,0.45,0,0.68,0c8.07-19.29,16.13-38.58,24.2-57.87
			c-0.15-0.16-0.3-0.33-0.45-0.49c-1.52,0.56-3.05,1.09-4.56,1.69c-11.98,4.75-23.21,10.79-33.02,19.29
			c-1.31,1.14-1.51,2.05-0.82,3.66c3.05,7.1,5.94,14.27,8.89,21.41C532.47,268.2,534.16,272.31,535.85,276.41z M270.57,239.63
			c0.07,0.29,0.13,0.57,0.2,0.86c20.2,3.93,40.39,7.86,61.07,11.89c-0.41-0.73-0.53-0.99-0.69-1.22
			c-7.97-10.88-15.95-21.75-23.89-32.65c-0.81-1.11-1.52-1.15-2.65-0.49c-6.46,3.8-13.06,7.37-19.4,11.35
			C280.17,232.54,275.44,236.2,270.57,239.63z M547.05,278.9c0.91-0.23,1.35-0.28,1.73-0.44c10.43-4.3,20.84-8.67,31.31-12.87
			c1.98-0.79,2.32-1.81,2.15-3.75c-0.97-10.81-3.72-21.17-7.65-31.25c-1.06-2.72-2.24-5.4-3.37-8.1c-0.2,0.01-0.39,0.02-0.59,0.03
			C562.83,241.18,555.02,259.84,547.05,278.9z"/>
	</g>
</g>
</svg>
