<svg xmlns="http://www.w3.org/2000/svg" viewBox="0 0 800 800"><path d="M227.15 524.99c.6-2.25 1.12-4.53 1.82-6.75 3.53-11.24 10.52-19.66 20.81-25.36.49-.27.99-.54 1.47-.83.13-.08.21-.23.5-.56-5.93-10.7-7.1-22-2.83-33.66 2.92-7.98 8.03-14.34 15.14-18.98 14.56-9.52 33.1-8.48 46.5 2.42 11.53 9.38 20.33 29.15 9.13 50.11 4.39 3.22 8.76 6.43 13.32 9.77 6.18-16.19 17.33-27.87 33.76-34.73-9.47-14.65-12.04-30.24-6.8-46.8 3.69-11.64 10.84-20.84 20.94-27.67 19.53-13.21 45.86-11.56 63.78 3.43 17.56 14.7 27.08 44.58 9.59 71.04 16.22 6.8 27.46 18.49 33.64 34.72 4.52-3.31 8.84-6.48 13.41-9.84-5.99-10.83-7.04-22.43-2.39-34.34 3.02-7.75 8.16-13.9 15.18-18.35 14.85-9.42 33.33-8.12 46.64 3.11 11.74 9.9 19.44 29.68 8.46 49.9.49.34.97.73 1.51 1.02 12.2 6.7 19.82 16.78 22.36 30.53.51 2.75.79 5.58.83 8.37.12 6.86-.05 13.73.07 20.59.06 3.62-1.35 6.18-4.49 7.89-.34.18-.58.54-.86.82H440.36c-.39-.36-.75-.79-1.19-1.08-2.99-1.95-4.31-4.99-3.49-8.08.85-3.19 3.63-5.32 7.24-5.33 10.5-.04 20.99-.06 31.49.02 1.87.01 2.53-.46 2.5-2.43-.11-7.67.02-15.34-.06-23.01-.22-20.09-12.83-37.01-31.54-42.25-1.14-.32-2.82-.17-3.76.47-19.62 13.41-42.68 13.43-62.12.01-.86-.59-2.3-.88-3.31-.64-16.25 3.98-30.02 19.41-31.5 36.09-.8 9.06-.45 18.22-.57 27.34-.06 4.38-.01 4.38 4.31 4.38 9.93 0 19.86-.03 29.79.03 3.48.02 6.13 2.1 7.04 5.25.88 3.06-.46 6.26-3.38 8.1-.53.34-1.02.75-1.53 1.13H232l-4.85-5.33v-30.52zm222.06-89c-.06-21.38-17.26-38.6-38.64-38.68-21.42-.07-38.85 17.28-38.88 38.71-.02 21.44 17.34 38.81 38.78 38.79 21.47-.02 38.8-17.38 38.74-38.82zm-207.8 110.14h88.26c0-5.84.19-11.48-.04-17.11-.47-11.55-7.89-21.41-18.83-25.13-1.02-.35-2.58-.17-3.51.4-14.52 8.78-28.96 8.74-43.45-.08-.87-.53-2.34-.7-3.31-.36-8.07 2.8-13.74 8.23-17.01 16.13-3.5 8.48-1.45 17.34-2.11 26.15zm338.05.2c0-5.63.06-10.93-.01-16.23-.16-11.89-7.62-22.21-18.78-26.25-1.42-.51-2.49-.43-3.81.38-14.35 8.83-28.76 8.81-43.11 0-1.32-.81-2.38-.9-3.81-.38-11.03 4.02-18.38 14.04-18.69 25.79-.12 4.6.09 9.2-.1 13.79-.09 2.33.62 2.96 2.95 2.95 27.51-.08 55.03-.05 82.54-.05h2.82zm-293.83-99.64c-13.7-.01-24.83 11.05-24.89 24.74-.06 13.81 11.06 24.98 24.88 24.99 13.72.01 24.79-11 24.89-24.73.09-13.8-11.05-24.99-24.88-25zm249.77 0c-13.86-.01-24.99 11.08-24.97 24.89.02 13.73 11.07 24.8 24.78 24.84a24.824 24.824 0 0024.96-24.89c0-13.71-11.09-24.83-24.77-24.84zM227.15 211.03c.22-.51.5-1.01.67-1.54 2.99-9.77 10.5-15.39 20.68-15.4 107.98-.01 215.96.05 323.94-.09 10.95-.01 21.59 8.75 21.55 21.64-.08 30.36-.08 60.72 0 91.09.03 11.87-9.28 21.78-21.35 21.57-3.96-.07-7.92.12-11.87-.06-2.38-.11-3.23.53-3.2 3.06.09 8.56-.14 17.12-.13 25.68 0 3.33-.85 6.11-4.02 7.64-3.13 1.51-5.87.55-8.55-1.42-15.21-11.2-30.46-22.37-45.76-33.46-1.14-.83-2.78-1.38-4.18-1.39-17.61-.09-35.21-.04-52.82-.09-1.73-.01-2.78.56-3.76 2-6.93 10.22-13.95 20.39-20.96 30.56-4.29 6.23-9.57 6.22-13.87-.03-6.96-10.11-13.93-20.21-20.81-30.37-1.09-1.61-2.26-2.17-4.17-2.16-17.36.07-34.73 0-52.09.11-1.63.01-3.52.63-4.84 1.58-15.31 11.07-30.54 22.25-45.8 33.4-3.48 2.54-7.05 2.65-9.77.35-1.86-1.58-2.54-3.62-2.55-6.02-.03-8.88-.18-17.77-.15-26.65.01-2.09-.56-2.87-2.73-2.78-3.87.16-7.75.06-11.63.04-10.76-.04-17.93-5.34-21.23-15.66-.15-.45-.4-.87-.61-1.31.01-33.43.01-66.86.01-100.29zm316.06 133.14c0-1.53-.01-2.32 0-3.1.06-6.22.11-12.43.19-18.65.08-5.81 2.69-8.43 8.47-8.45 6.7-.03 13.4.01 20.11-.02 5.2-.03 7.49-2.36 7.49-7.6.01-30.11.01-60.23 0-90.34 0-5.36-2.29-7.61-7.72-7.61H249.32c-5.61 0-7.83 2.19-7.83 7.73-.01 30.03-.01 60.07 0 90.1 0 5.43 2.23 7.7 7.6 7.72 6.7.03 13.4-.02 20.11.02 5.63.03 8.29 2.71 8.36 8.34.08 6.22.1 12.43.16 18.65.01.85.08 1.71.15 3.08 1.04-.72 1.67-1.14 2.29-1.59 11.92-8.72 23.86-17.43 35.75-26.2 2.11-1.56 4.33-2.31 6.95-2.31 20.11.04 40.21.07 60.32-.02 3.84-.02 6.57 1.35 8.72 4.56 5.56 8.32 11.3 16.53 16.97 24.77.47.68 1 1.33 1.64 2.18.75-1.04 1.27-1.75 1.77-2.47 5.62-8.18 11.31-16.32 16.83-24.58 2.04-3.05 4.62-4.47 8.27-4.46 20.35.06 40.7-.03 61.04.12 2.1.02 4.51.84 6.24 2.05 8.33 5.83 16.48 11.93 24.69 17.93 4.4 3.24 8.81 6.46 13.86 10.15z"/><path d="M408.39 560.84c-.63-.48-1.24-.98-1.88-1.43-2.59-1.81-3.76-4.95-2.9-7.85.9-3.06 3.69-5.19 6.82-5.2 3.14-.01 5.92 2.05 6.89 5.11.91 2.88-.21 6.03-2.78 7.89-.63.45-1.19.99-1.79 1.49-1.46-.01-2.91-.01-4.36-.01zm-43.45-272.52h-91.83c-4.4 0-6.95-1.51-8.14-4.75-1.52-4.13 1.03-8.64 5.37-9.38 1.18-.2 2.41-.19 3.62-.19 60.57-.01 121.15-.01 181.72 0 1.21 0 2.43-.01 3.62.17 3.34.5 5.77 3.29 5.92 6.68.15 3.39-2.03 6.39-5.33 7.14-1.24.28-2.56.32-3.84.32-30.38.02-60.75.01-91.11.01zm91.1-54.25c30.59 0 61.18.02 91.78-.03 3.42-.01 6.26.81 7.87 4.05 2.17 4.38-.62 9.44-5.56 10.18-.71.11-1.45.09-2.17.09-61.27 0-122.53.01-183.8 0-4.69 0-7.55-2.02-8.3-5.79-.83-4.15 2.03-8.04 6.23-8.43 1.04-.1 2.1-.08 3.15-.08 30.26.01 60.53.01 90.8.01zm66.47 54.25c-8.55 0-17.1.04-25.64-.02-5.3-.03-8.62-3.72-7.78-8.46.53-2.96 2.82-5.25 5.82-5.69 1.03-.15 2.09-.16 3.13-.17 16.45-.01 32.9-.01 49.35 0 5.67 0 9.04 2.67 9.06 7.14.01 4.45-3.41 7.19-9.02 7.19-8.3.02-16.61.01-24.92.01zm-224.26-54.24c8.87 0 17.75-.01 26.62.01 3.05.01 5.29 1.48 6.5 4.22 1.12 2.54 1.05 5.31-.99 7.21-1.47 1.37-3.7 2.69-5.61 2.71-17.66.2-35.33.16-53 .09-4.19-.02-7.31-3.28-7.28-7.19.03-3.97 3.08-7 7.38-7.03 8.79-.07 17.59-.02 26.38-.02z"/></svg>