<?xml version="1.0" encoding="utf-8"?>
<!-- Generator: Adobe Illustrator 25.4.1, SVG Export Plug-In . SVG Version: 6.00 Build 0)  -->
<svg version="1.1" id="Слой_1" xmlns="http://www.w3.org/2000/svg" xmlns:xlink="http://www.w3.org/1999/xlink" x="0px" y="0px"
	 viewBox="0 0 800 800" style="enable-background:new 0 0 800 800;" xml:space="preserve">
<g id="qnniCx.tif">
	<g>
		<path d="M156.32,272.6c129.76,0,259.52,0,389.29,0c0.39,0.34,0.71,0.83,1.17,1.01c9.25,3.81,12.26,8.21,12.27,18.11
			c0.01,9.21,0.13,18.43-0.07,27.63c-0.07,3.04,0.96,3.71,3.81,3.7c22.9-0.1,45.79-0.06,68.69-0.04c1.47,0,2.96,0.11,4.42,0.35
			c3.4,0.56,5.48,2.67,6.24,5.96c0.75,3.24-0.42,5.95-3.09,7.75c-1.68,1.14-1.79,2.11-1.18,3.93c5.82,17.23,11.51,34.51,17.29,51.77
			c1.56,4.67,2.81,9.36,6.88,12.93c5.72,5.02,11.26,10.37,13.25,18.2c0.06,0.23,0.48,0.38,0.74,0.56c0,25.63,0,51.26,0,76.89
			c-0.36,0.37-0.9,0.67-1.06,1.11c-3.05,8.19-9.27,11.33-17.62,11.27c-8.8-0.06-17.59-0.01-26.39-0.01c-5.05,0-5.18-0.01-5.65,4.94
			c-1.76,18.77-17.66,34.52-36.66,36.28c-19.48,1.8-37.8-10.06-43.24-28.93c-0.9-3.12-2.25-4.03-5.46-4.03
			c-60.62,0.1-121.24,0.07-181.87,0.09c-2.63,0-5.76-0.63-7.75,0.55c-1.61,0.96-1.84,4.21-2.71,6.43
			c-11.56,29.22-49.62,35.35-69.98,11.28c-0.51-0.6-1.15-1.1-1.86-1.75c-0.9,1.03-1.59,1.81-2.28,2.6
			c-12.06,13.84-31.82,18.03-48.35,10.11c-11.21-5.37-18.7-14-21.99-26.05c-0.68-2.48-1.85-3.37-4.45-3.25
			c-4.65,0.22-9.33,0.18-13.99,0.02c-10.09-0.35-16.56-6.99-16.73-17.01c-0.05-3.18-0.01-6.35-0.01-9.53c0-6.76,0-6.76-6.61-6.79
			c-0.64,0-1.27-0.01-1.91-0.02c-10.81-0.17-16.59-9.25-16.57-17.19c0.19-60.45,0.1-120.9,0.11-181.36
			c0-8.13,3.93-13.57,11.56-16.32C155.2,273.56,155.73,273,156.32,272.6z M342.42,488.68c2.25,4.96,4.75,9.3,6.17,13.96
			c0.95,3.14,2.26,3.85,5.26,3.84c62.01-0.08,124.01-0.08,186.02,0.02c3.24,0.01,4.96-0.77,5.33-4.1c0.14-1.22,0.74-2.43,1.3-3.56
			c1.61-3.26,3.3-6.48,5.19-10.16c-1.43,0-2.46,0-3.49,0c-6.78,0-13.57,0.05-20.35-0.01c-5.83-0.06-9.31-3-9.34-7.74
			c-0.03-4.75,3.43-7.72,9.21-7.81c3.81-0.06,7.63-0.01,11.45-0.01c4.29,0,4.3-0.01,4.3-4.4c0-58.45,0-116.9,0-175.35
			c0-4.76,0-4.76-4.65-4.76c-125.18,0-250.36,0-375.55,0c-4.69,0-4.69,0-4.69,4.66c0,58.45,0,116.9,0,175.35
			c0,0.64,0.04,1.27-0.01,1.91c-0.16,1.94,0.78,2.7,2.64,2.6c0.95-0.05,1.91,0,2.86,0c108.43,0,216.87,0,325.3,0.01
			c1.48,0,2.97,0.02,4.44,0.22c3.86,0.52,6.51,3.49,6.65,7.31c0.13,3.6-2.27,6.76-5.96,7.56c-1.64,0.35-3.36,0.46-5.04,0.46
			c-47.7,0.02-95.4,0.02-143.1,0.02C345.12,488.68,343.87,488.68,342.42,488.68z M626.42,356.17c-1.59-4.79-3.27-9-4.35-13.36
			c-0.86-3.48-2.63-4.3-6.03-4.26c-16.11,0.18-32.22,0.08-48.34,0.08c-8.65,0-8.65,0-8.65,8.64c0,40.66,0.03,81.33-0.06,121.99
			c-0.01,3.06,0.83,4.02,3.92,3.92c6.78-0.22,13.57-0.11,20.35-0.06c17.09,0.13,29.78,7.6,38.06,22.62
			c0.61,1.11,2.34,2.26,3.57,2.28c10.81,0.18,21.62,0.07,32.44,0.12c1.96,0.01,2.89-0.56,2.88-2.71c-0.07-9.74-0.07-19.48,0-29.23
			c0.01-2-0.81-2.57-2.65-2.52c-2.22,0.06-4.47,0.11-6.66-0.17c-4.46-0.58-7.37-3.81-7.3-7.78c0.07-4.01,3.07-7.08,7.55-7.51
			c2.21-0.21,4.47,0.06,6.66-0.21c0.85-0.11,2.24-1.11,2.25-1.73c0.13-5.92,0.28-11.87-0.1-17.78c-0.3-4.63-2.88-6.52-7.56-6.52
			c-19.08,0-38.16,0.02-57.24-0.01c-11.93-0.01-18.32-6.35-18.34-18.18c-0.02-12.39-0.01-24.78,0-37.17
			c0.01-7.55,2.74-10.24,10.42-10.25c11.66-0.02,23.32,0,34.98-0.01C623.41,356.36,624.63,356.25,626.42,356.17z M267.97,514.54
			c0.28-13.96-10.91-25.45-25.1-25.8c-13.82-0.33-25.6,11.07-25.91,25.09c-0.3,13.77,11.1,25.47,25.2,25.86
			C255.98,540.06,267.7,528.65,267.97,514.54z M559.09,514.22c0.01,14.01,11.52,25.51,25.5,25.47c13.91-0.04,25.53-11.68,25.5-25.55
			c-0.03-13.95-11.6-25.45-25.57-25.41C570.43,488.78,559.08,500.15,559.09,514.22z M334.7,514.18c0-14.07-11.38-25.46-25.44-25.45
			c-14,0.01-25.53,11.49-25.55,25.45c-0.02,13.85,11.66,25.51,25.55,25.51C323.25,539.69,334.69,528.22,334.7,514.18z
			 M642.77,406.23c-0.13-1-0.11-1.44-0.24-1.82c-3.37-10.13-6.8-20.24-10.1-30.39c-0.66-2.04-2.02-2.09-3.69-2.08
			c-11.02,0.02-22.03,0.1-33.05-0.05c-2.79-0.04-3.34,1.05-3.31,3.54c0.11,9.1,0.17,18.2-0.02,27.3c-0.06,3.01,0.96,3.76,3.82,3.73
			c14.4-0.12,28.81-0.05,43.21-0.06C640.42,406.39,641.44,406.29,642.77,406.23z M209.08,488.74c-7.91,0-16.02-0.03-24.13,0.09
			c-0.46,0.01-1.27,1.32-1.29,2.05c-0.12,4.34-0.03,8.68-0.08,13.02c-0.02,1.71,0.6,2.55,2.4,2.54c4.77-0.04,9.54,0.05,14.31-0.08
			c0.72-0.02,1.77-0.75,2.06-1.42C204.6,499.75,206.71,494.48,209.08,488.74z"/>
		<path d="M350.86,455.35c-54.36,0-108.73,0-163.09-0.02c-1.79,0-3.61-0.1-5.36-0.45c-3.6-0.73-6.11-4.02-6-7.55
			c0.11-3.58,2.72-6.61,6.37-7.26c1.35-0.24,2.74-0.32,4.1-0.32c109.36-0.01,218.73-0.01,328.09-0.01c6.22,0,9.13,1.71,10.25,5.95
			c1.05,3.97-1.28,8.15-5.29,9.1c-1.83,0.44-3.77,0.54-5.67,0.54C459.8,455.36,405.33,455.35,350.86,455.35z"/>
		<path d="M242.52,506.53c4.27-0.03,7.71,3.35,7.75,7.58c0.04,4.24-3.37,7.72-7.61,7.77c-4.09,0.05-7.82-3.59-7.84-7.64
			C234.8,510.05,238.29,506.55,242.52,506.53z"/>
		<path d="M576.89,514.3c-0.06-4.21,3.37-7.71,7.6-7.76c4.24-0.05,7.8,3.34,7.89,7.52c0.09,4.09-3.49,7.76-7.63,7.83
			C580.59,521.96,576.95,518.45,576.89,514.3z"/>
		<path d="M309.25,506.53c4.3-0.03,7.68,3.28,7.72,7.58c0.04,4.28-3.3,7.72-7.57,7.77c-4.13,0.05-7.79-3.52-7.81-7.63
			C301.56,510.02,305,506.56,309.25,506.53z"/>
	</g>
</g>
</svg>
