<svg xmlns="http://www.w3.org/2000/svg" viewBox="0 0 800 800"><path d="M374.93 557c-3.67-.46-7.35-.91-11.02-1.39-42.73-5.6-77.35-25.32-103.55-59.59-13.08-17.11-21.96-36.28-26.8-57.25-4.47-19.37-4.98-38.91-1.8-58.54.54-3.35 2.8-4.96 6.17-4.46 3.11.46 4.63 2.86 4.36 6.33-.69 8.68-1.95 17.39-1.76 26.06.71 32.36 11.59 61.12 32.05 86.18 17.43 21.36 39.37 36.27 65.58 44.79 16.76 5.44 33.97 7.69 51.6 6.63 32.09-1.92 60.3-13.48 84.63-34.36 18.81-16.14 32.37-36.02 40.67-59.4 7.78-21.92 10.18-44.47 6.79-67.48-4.94-33.5-20.15-61.69-45.03-84.63-3.51-3.23-7.33-6.13-11.08-9.08-.57-.45-1.89-.8-2.31-.48-4.69 3.58-9.27 7.3-14.1 11.16.64.5 1.18.98 1.77 1.39 25.56 17.8 43.04 41.59 50.07 71.92 10.68 46.06-1.08 86.22-35.01 119.39-16.28 15.91-36.05 25.73-58.21 30.7-12.53 2.81-25.23 3.39-38.02 2.31-2.23-.19-4.41-.5-5.61-2.8-1.01-1.94-.84-3.83.24-5.64 1.14-1.92 2.97-2.38 5.09-2.31 5.61.2 11.24.76 16.82.4 42.17-2.75 73.91-22.49 94.58-59.36 11.11-19.82 14.73-41.42 12.7-63.97-.39-4.34-1.27-8.63-1.99-13.35-8.81 5-17.13 9.66-23.36 17.17-3.71 4.47-5.29 9.77-4.98 15.46.34 6.12.81 12.28 1.87 18.31 1.5 8.51-.53 16.13-4.81 23.29-6.56 10.97-15.36 19.55-27.56 24.06-10.22 3.78-19.34.44-23.52-8.53-1.2-2.58-2.19-5.41-2.53-8.21-.77-6.46-1.3-12.97-1.54-19.48-.42-11.37-.45-22.75-.85-34.11-.09-2.6-.91-5.21-1.62-7.75-.58-2.07-1.98-2.95-4.33-2.61-8.48 1.21-16.96 2.46-25.49 3.28-7.1.69-14.13-.04-20.57-3.51-8.03-4.32-12.31-11.53-14.61-19.99-3.84-14.12.92-25.95 10.28-36.36 2.36-2.62 5.06-4.94 7.96-7.75-2.51-.37-4.71-.63-6.88-1.03-12.86-2.35-24.67-7.32-35.53-14.54-1.47-.98-2.35-.91-3.69.22-13.34 11.22-23.63 24.73-30.92 40.56-.76 1.64-.5 2.72.44 4.28 4.15 6.87 8.04 13.91 12.02 20.88.04.07.07.13.1.2 2.54 5.93 6.88 9.56 13.3 10.81 2.2.43 4.34 1.36 6.41 2.28 9.78 4.36 13.11 11.57 9.45 21.64-2.38 6.53-5.58 12.76-8.3 19.18-1.8 4.25-3.57 8.52-4.96 12.91-.43 1.36.01 3.37.77 4.67 7.03 12.05 10.17 24.91 8.41 38.83-.2 1.55.3 2.44 1.58 3.13 6.79 3.68 13.55 7.4 20.36 11.04 1.7.91 3.45 1.68 3.88 3.82.44 2.17-.1 4.08-1.75 5.59-1.64 1.51-3.53 1.57-5.51.76-11.24-4.59-21.62-10.66-31-18.37-21.14-17.36-35.81-39.15-41.83-65.82-10.79-47.8 2.06-88.72 38-122.23.71-.66 1.44-1.29 2.8-2.51-.85-.46-1.52-.7-2.03-1.14-19.41-16.52-34.07-36.73-45.91-59.13-3.81-7.2-3.67-7.81 2.67-13.12 18.15-15.22 37.95-27.73 60.31-35.84 16.76-6.07 33.97-9.06 51.83-6.51 15.6 2.22 29.4 8.75 42.06 17.89 2.76 2 5.44 4.13 8.05 6.32 2.57 2.15 2.84 4.98.9 7.43-2.02 2.54-4.93 2.93-7.6.74-7.72-6.32-15.85-11.97-25.02-16.01-8.55-3.77-17.45-6.08-26.8-6.54-.68-.03-1.36-.01-2.04.02-.12 0-.23.16-.59.42.45.64.88 1.3 1.35 1.94 14.26 19.46 28.54 38.9 42.77 58.38 1 1.37 2.08 2.16 3.8 2.49 14.82 2.82 29.62 5.75 44.43 8.63.35.07.73.01 1.37.01-.31-.7-.46-1.26-.77-1.72-5.75-8.46-11.51-16.92-17.28-25.37-.38-.56-.85-1.07-1.24-1.63-1.75-2.57-1.34-5.39 1.05-7.26 2.35-1.83 5.35-1.63 7.28.78 3.12 3.91 6.32 7.8 9.03 11.99 4.98 7.7 9.59 15.63 14.45 23.41.89 1.43 2.05 2.84 3.4 3.8 8.76 6.21 16.84 13.18 24.15 21.05.43.46.93.87 1.78 1.65-.57-3.97-1.1-7.38-1.53-10.8-3.54-27.8 6.71-49.54 29.13-65.84 13.97-10.16 29.53-16.94 46.17-21.35 3.24-.86 5.26-.05 6.89 2.84 7.23 12.83 12.61 26.39 15.61 40.83.86 4.14 1.39 8.35 2.08 12.53v14.11c-.29 1.78-.59 3.57-.88 5.35-2.42 15.03-9.99 27.17-21.09 37.27-12.44 11.32-27.12 18.74-42.82 24.33-2.19.78-4.4 1.5-6.72 2.29.3.91.46 1.56.72 2.17 4.12 9.74 7.11 19.81 9.07 30.21 4.72 25.03 3.16 49.7-4.43 73.96-8.89 28.4-24.86 52.15-47.76 71.15-22.74 18.87-48.77 30.32-78.14 34.06L389.49 557h-14.56zm41.3-125.24c-.09 0-.18.01-.26.01 0 4.86-.27 9.73.07 14.56.4 5.57.96 11.19 2.15 16.64 1.27 5.8 5.06 7.62 10.67 5.61 10.86-3.88 18.3-11.59 23.52-21.63 2.29-4.4 3.29-8.99 2.38-14.06-.95-5.29-1.42-10.67-1.92-16.03-1.35-14.3 3.96-25.75 15.46-34.14 5.99-4.36 12.44-8.09 18.71-12.05 1.04-.66 1.76-1.03 1.21-2.6-8.92-25.07-24.65-44.67-47.06-58.97-1.35-.86-2.34-.8-3.71-.01-5.97 3.44-11.93 6.93-18.07 10.07-10.91 5.58-22.33 9.94-34.44 12.02-6.17 1.06-11.84 2.72-16.6 6.92-.39.35-.93.54-1.32.88-4 3.47-8.37 6.61-11.88 10.52-6.81 7.59-9.95 16.38-6.64 26.66 2.91 9.04 8.65 13.77 18.12 14.23 4.07.2 8.19-.11 12.25-.57 6.63-.75 13.21-1.93 19.83-2.71 5.75-.68 9.98 1.85 12.8 6.83 2.29 4.04 3.33 8.49 3.61 13.05.52 8.25.77 16.51 1.12 24.77zm-72.49-111.4c2.99.63 5.45 1.26 7.95 1.65 14.54 2.26 28.71.35 42.6-4.12 20.44-6.59 38.6-17.39 55.57-30.36.26-.2.41-.53.83-1.09-3.39-.67-6.49-1.29-9.59-1.9-12.12-2.37-24.23-4.78-36.37-7.04-1.17-.22-2.77.12-3.73.81-18.45 13.42-36.84 26.92-55.23 40.41-.54.4-1.04.84-2.03 1.64zm-37.32 167.69c.1-1.07.16-1.37.15-1.66-.01-.61-.05-1.21-.09-1.82-.55-8.4-2.84-16.28-7.34-23.4-2.91-4.61-3.44-9.49-1.62-14.38 2.42-6.52 5.41-12.82 8.12-19.23 1.8-4.25 3.69-8.47 5.25-12.82 1.5-4.18.63-5.95-3.44-7.73-2.21-.97-4.5-1.88-6.84-2.42-8.1-1.87-13.76-6.59-17.46-13.97-2.55-5.08-5.41-10-8.14-14.98-.3-.55-.7-1.04-1.16-1.72-5.71 17.14-6.88 44.64 2.79 70.13 6.37 16.83 16.01 31.43 29.78 44zm-3.47-192.14c8.12 7.54 16.6 13.82 26.12 18.69 1.87.96 3.13.94 4.87-.34 17.44-12.88 34.95-25.67 52.43-38.49.46-.34.86-.76 1.44-1.28-.65-.28-1.03-.53-1.45-.61-13.53-2.64-27.07-5.3-40.62-7.83-1.01-.19-2.39.31-3.26.94-9.16 6.61-18.25 13.31-27.36 19.99-3.98 2.9-7.94 5.81-12.17 8.93zm13.34-83.29c.66 1 1.07 1.69 1.54 2.34 9.36 12.78 18.76 25.52 28.05 38.35 1.18 1.63 2.54 2.39 4.42 2.74 8.86 1.67 17.69 3.43 26.54 5.14 3.84.74 7.69 1.45 12.1 2.27-.64-1.04-.93-1.61-1.31-2.13-13.48-18.4-26.98-36.78-40.42-55.21-1.04-1.42-2.15-1.71-3.68-1.34-5.37 1.28-10.79 2.4-16.11 3.88-3.68 1.02-7.22 2.55-11.13 3.96zm265.93 64.44c-.29-.14-.57-.29-.86-.43-.35.11-.7.2-1.04.33-12.39 5.12-24.78 10.2-37.13 15.43-1.17.49-2.4 1.65-2.9 2.81-4.84 11.27-9.54 22.61-14.26 33.93-.24.58-.37 1.2-.6 2 .61-.06.92-.03 1.18-.13 10.91-4.07 21.31-9.14 30.68-16.11 8.95-6.65 16.6-14.48 20.91-24.97 1.7-4.14 2.7-8.57 4.02-12.86zm-67.54 50.9c.61-1.07.95-1.55 1.17-2.07 4.59-10.97 9.21-21.93 13.7-32.94.43-1.04.45-2.55.03-3.59-3.83-9.56-7.8-19.07-11.73-28.59-1.49-3.62-3-7.23-4.52-10.88-.42.21-.68.26-.8.42-.42.53-.81 1.1-1.19 1.66-5.16 7.79-7.64 16.45-8.13 25.7-.7 12.93 2.05 25.32 6.36 37.41 1.5 4.17 3.27 8.24 5.11 12.88zm-246.12-77.05c.25.76.29 1.07.44 1.32 7.23 12.41 15.52 24.05 25.12 34.74 1.04 1.16 1.75.94 2.83.14 10.43-7.68 20.89-15.32 31.35-22.97.36-.26.8-.42 1.2-.62-.1-.26-.21-.52-.31-.79-20.09-3.91-40.16-7.83-60.63-11.82zm267.29 25.5h.68c8.07-19.29 16.13-38.58 24.2-57.87-.15-.16-.3-.33-.45-.49-1.52.56-3.05 1.09-4.56 1.69-11.98 4.75-23.21 10.79-33.02 19.29-1.31 1.14-1.51 2.05-.82 3.66 3.05 7.1 5.94 14.27 8.89 21.41 1.7 4.1 3.39 8.21 5.08 12.31zm-265.28-36.78c.07.29.13.57.2.86 20.2 3.93 40.39 7.86 61.07 11.89-.41-.73-.53-.99-.69-1.22-7.97-10.88-15.95-21.75-23.89-32.65-.81-1.11-1.52-1.15-2.65-.49-6.46 3.8-13.06 7.37-19.4 11.35-5.04 3.17-9.77 6.83-14.64 10.26zm276.48 39.27c.91-.23 1.35-.28 1.73-.44 10.43-4.3 20.84-8.67 31.31-12.87 1.98-.79 2.32-1.81 2.15-3.75-.97-10.81-3.72-21.17-7.65-31.25-1.06-2.72-2.24-5.4-3.37-8.1l-.59.03c-7.8 18.66-15.61 37.32-23.58 56.38z"/></svg>