<svg xmlns="http://www.w3.org/2000/svg" viewBox="0 0 800 800"><path d="M9.4 449.52c.95-8.23 1.87-16.46 2.88-24.68.54-4.44 1.2-8.87 1.85-13.3 1.07-7.29 5.9-10.93 13.13-9.91 6.62.94 10.3 5.99 9.56 13.09-1.24 11.76-3.02 23.49-3.57 35.27-3.11 66.32 13.95 127.18 50.77 182.37 36.06 54.03 84.59 92.8 145.34 115.71 46.06 17.37 93.81 23.65 142.78 17.27 94.68-12.34 168.57-58.72 220.68-138.47 35.88-54.92 51.23-115.99 47.12-181.5-5.36-85.35-41.58-155.72-105.23-212.32-5.72-5.09-11.88-9.71-18.08-14.22-1.22-.89-4.13-1.08-5.25-.24-9.6 7.17-18.97 14.64-28.4 22.04-.35.28-.54.76-1.1 1.6 1.51 1.13 2.97 2.27 4.49 3.34 56.81 39.99 94.75 93.47 108.56 161.55 19.91 98.12-6.97 182.92-80.01 251.89-35.55 33.56-78.28 54.11-126.2 63.94-24.47 5.02-49.11 6.14-73.95 4.48-2.23-.15-4.47-.29-6.68-.64-7.17-1.13-11.03-5.86-10.32-12.52.73-6.89 5.64-10.76 13.12-10.12 23.21 1.98 46.36 1.75 69.26-2.81 71.04-14.12 126.14-51.68 163.96-113.55 27.77-45.42 37.85-95.19 33.15-148.02-.83-9.3-2.73-18.5-4.28-28.63-19.13 10.91-37.28 20.96-50.64 37.51-7.57 9.38-10.88 20.39-10.23 32.19.73 13.38 1.77 26.83 4.04 40.01 3.19 18.45-1.36 34.94-10.7 50.38-14.02 23.16-32.7 41.33-58.49 50.98-25.58 9.57-46.61-.89-54.39-26.9a94.641 94.641 0 01-3.6-18.79c-.99-11.29-1.47-22.64-1.79-33.97-.67-23.8-.93-47.61-1.76-71.4-.19-5.34-1.67-10.73-3.23-15.89-1.82-6.02-3.74-6.96-9.97-6.17-18.22 2.32-36.39 5.2-54.67 6.91-15.27 1.43-30.39-.2-44.22-7.75-17-9.28-26.08-24.61-31.02-42.56-8.38-30.42 1.86-55.93 22.03-78.39 5.07-5.65 10.89-10.63 17.02-16.54-5.98-.98-11.39-1.77-16.76-2.77-26.92-5.04-51.54-15.73-74.29-30.79-3.05-2.02-4.89-2.07-7.77.34-28.75 24.14-50.93 53.22-66.61 87.33-1.58 3.44-1.15 5.69.86 9.01 8.92 14.75 17.27 29.84 25.82 44.82.08.14.15.28.22.43 5.51 13.04 15.12 20.64 29.1 23.63 6.6 1.41 13.05 4.39 19.04 7.61 14.96 8.05 21.56 22.53 15.97 38.49-5.88 16.82-13.79 32.93-20.62 49.43-3.41 8.24-6.75 16.55-9.31 25.07-.83 2.76.08 6.79 1.61 9.41 15.27 26.09 22.12 53.93 18.16 84.1-.41 3.12.78 4.81 3.25 6.15 14.86 8.05 29.64 16.26 44.59 24.13 6.85 3.6 9.41 7.98 7.44 14.55-2.06 6.9-8.56 9.81-15.73 6.86-33.26-13.64-62.58-33.21-87.79-58.84-35.74-36.34-60.36-79.23-70.14-129.21-19.62-100.23 8.37-185.66 83.4-255.34 1.29-1.2 2.63-2.33 3.93-3.52.22-.2.32-.54.69-1.21-.72-.8-1.44-1.8-2.36-2.58-42.75-36.42-74.89-81.03-100.74-130.49-1.04-1.98-2.25-3.9-3.04-5.97-2.01-5.25-.3-10.15 4.96-14.8 22.96-20.28 47.9-37.79 74.37-53.18 29.72-17.28 61-30.77 94.59-38.51 53.32-12.29 103.89-5.89 150.72 23.31 11.89 7.42 23 16.14 34.15 24.67 6.49 4.97 6.43 12.51.6 17.73-4.49 4.02-9.35 4.02-14.8.01-9.53-6.99-18.74-14.47-28.65-20.87-24.99-16.15-52.24-25.97-82.17-27.6-1.59-.09-3.19-.04-4.79-.01-.27.01-.54.28-1.4.75.95 1.41 1.82 2.82 2.79 4.14 30.62 41.76 61.28 83.5 91.81 125.32 2.31 3.17 4.82 4.98 8.75 5.73 31.85 6.07 63.66 12.35 95.49 18.55.6.12 1.24.01 2.81.01-1.01-1.94-1.62-3.45-2.52-4.76-12.61-18.46-25.18-36.94-37.95-55.29-4.64-6.67-4.66-12.51.63-16.99 5.48-4.65 12.29-3.91 17.04 2.47 9.55 12.81 19.23 25.55 28.01 38.88 7.9 11.98 14.62 24.74 22.01 37.08 1.35 2.26 3.05 4.59 5.17 6.06 19.74 13.78 37.87 29.38 54.2 47.07.7.76 1.59 1.34 3.43 2.87-.5-2.88-.76-4.52-1.07-6.15-5.08-26.87-5.94-53.68 1.62-80.27 8.11-28.54 25.28-51.03 47.65-69.81 28.59-24 61.69-39.54 97.02-50.76 4.26-1.35 8.57-2.54 12.9-3.66 7.16-1.86 11.46-.11 15.2 6.44 10.97 19.21 19.69 39.45 26.33 60.52 6.93 22.02 11.68 44.52 11.89 67.72.39 42.48-15.12 78.14-46.43 106.93-25.84 23.76-56.21 39.72-88.84 51.81-6.1 2.26-12.29 4.28-18.98 6.6 1.83 4.67 3.51 8.9 5.15 13.16 21.45 55.94 27.94 113.69 16.71 172.45C635.56 640 565.63 723.29 451.77 769.63c-29.04 11.82-59.61 17.83-90.89 20.13-2.68.2-5.34.81-8 1.22h-30.69c-3.78-.5-7.54-1.18-11.34-1.49-31.07-2.51-61.24-9.19-90.33-20.28-53.65-20.44-98.93-52.78-135.42-97.16-43.53-52.96-68.4-113.6-74.2-181.99-.31-3.62-.94-7.22-1.42-10.83-.08-9.88-.08-19.8-.08-29.71zm401.22 71.93l-.68.03c0 4.96-.25 9.93.05 14.86.95 15.77 1.45 31.6 3.36 47.26 2.17 17.82 12.4 23.21 28.86 15.97 20.9-9.19 35.82-24.74 46.12-44.88 4.91-9.6 7.11-19.52 5.09-30.55-2.1-11.45-3.09-23.12-4.14-34.73-2.71-30.06 8.37-54.32 32.43-72.12 13.06-9.66 27.2-17.86 41.01-26.47 2.84-1.77 3.55-3.02 2.36-6.36-19.08-53.42-52.72-95.13-100.35-125.76-3.35-2.16-5.73-1.95-9.07.01-11.7 6.88-23.43 13.73-35.49 19.94-29.75 15.34-61.07 26-94.36 30.51-1.64.22-3.33 1.06-4.73 2.01-5.27 3.6-10.67 7.07-15.59 11.12-8.86 7.29-18.24 14.19-25.89 22.63-14.77 16.3-21.69 35.24-14.57 57.43 6.39 19.92 18.84 29.95 39.69 30.82 8.57.36 17.26-.32 25.81-1.31 13.96-1.61 27.83-4.02 41.78-5.78 12.68-1.6 22.03 3.74 28.23 14.73 4.97 8.81 7.15 18.51 7.75 28.44 1.08 17.39 1.59 34.8 2.33 52.2zm73.97-311.28c-1.64-.56-2.75-1.09-3.93-1.32-31.97-6.25-63.94-12.53-95.96-18.55-2.13-.4-5.06.59-6.9 1.93-39.52 28.8-78.93 57.73-118.36 86.65-1.23.9-2.4 1.9-4.72 3.74 6.86 1.39 12.38 2.76 17.98 3.61 30.99 4.71 61.18.59 90.75-8.95 43.86-14.14 82.84-37.31 119.26-65.11.59-.43 1.02-1.07 1.88-2zM174.3 642.72c.45-1.7.66-2.15.66-2.6 0-1.28-.05-2.56-.13-3.83-1.14-18.35-6.04-35.59-15.88-51.17-6.23-9.85-7.34-20.31-3.47-30.76 5.2-14.03 11.65-27.61 17.48-41.41 3.91-9.26 8.02-18.45 11.41-27.9 3.04-8.46 1.11-12.39-7.1-16.04-4.65-2.07-9.45-4.06-14.4-5.18-17.74-4-30.32-14.13-38.36-30.4-4.53-9.16-9.68-18-14.59-26.97-1.57-2.86-3.26-5.66-4.89-8.49-13.58 45.69-12.95 91.03.75 136.09 12.81 42.12 35.36 78.24 68.52 108.66zm-6.82-412.96c11.19 12.79 43.87 35.99 59.04 41.77 1.58.6 4.33-.24 5.86-1.36 38.37-27.93 76.66-55.99 114.94-84.05.69-.51 1.17-1.31 2.04-2.3-1.42-.54-2.39-1.08-3.42-1.28-28.69-5.61-57.36-11.27-86.1-16.62-2.42-.45-5.74.52-7.8 2.01-21.9 15.8-43.64 31.83-65.42 47.8-6.29 4.61-12.57 9.22-19.14 14.03zm184.57-69.42c-1.43-2.33-2-3.43-2.72-4.42-28.99-39.56-58.04-79.09-86.92-118.73-2.32-3.18-4.81-3.82-8.16-2.96-14.82 3.82-29.68 7.52-44.43 11.58-4.64 1.28-9 3.53-13.92 5.51 1.35 1.98 2.2 3.31 3.13 4.57 20.22 27.57 40.51 55.09 60.57 82.78 2.52 3.47 5.47 4.95 9.39 5.69 16.16 3.05 32.29 6.25 48.44 9.37 11.07 2.15 22.16 4.24 34.62 6.61zm293.21 144.61c.86.37 1.17.63 1.42.59.77-.14 1.54-.34 2.27-.61 22.74-8.39 44.3-19.07 63.89-33.44 21.23-15.58 38.92-34.2 48.01-59.53 2.65-7.38 4.17-15.17 6.43-23.61-2.25.5-3.04.57-3.74.85-27.15 11.19-54.33 22.34-81.39 33.74-2.04.86-3.96 3.23-4.87 5.36-8.73 20.4-17.23 40.9-25.78 61.38-2.12 5.08-4.17 10.18-6.24 15.27zm-23.05-6c1.31-2.11 1.81-2.74 2.11-3.45 10.21-24.43 20.45-48.85 30.5-73.35.67-1.62.33-4.06-.37-5.78-8.39-20.7-16.92-41.33-25.44-61.98-3.19-7.74-6.43-15.46-9.7-23.33-.95.54-1.46.68-1.73 1.01-.89 1.13-1.72 2.3-2.51 3.5-12.16 18.42-17.33 38.92-17.7 60.75-.43 25.72 5.18 50.39 13.71 74.46 3.23 9.11 7.09 17.98 11.13 28.17zM93.29 133.32c.53 1.68.61 2.34.91 2.86 15.49 26.58 33.24 51.51 53.79 74.44 2.28 2.55 3.83 2.31 6.35.45 22.24-16.41 44.55-32.7 66.86-49.02.87-.64 1.84-1.13 2.77-1.69-.19-.55-.38-1.1-.57-1.66-43.08-8.39-86.16-16.8-130.11-25.38zm574.43 54.79c.47.04.94.07 1.42.11 17.36-41.5 34.72-83.01 52.52-125.56-2.46.6-3.68.75-4.78 1.19-6.23 2.47-12.51 4.84-18.63 7.57-21.27 9.46-41.22 21.07-58.86 36.45-2.76 2.41-3.2 4.4-1.69 7.75 3.67 8.15 6.87 16.51 10.28 24.77 6.57 15.91 13.16 31.82 19.74 47.72zM229.1 136.45c-.96-1.77-1.25-2.49-1.7-3.1-16.99-23.21-34.03-46.38-50.96-69.63-1.92-2.64-3.5-2.22-5.99-.96-25.18 12.74-48.69 28.07-71 45.29-.67.52-1.11 1.32-2.26 2.72 44.08 8.58 87.39 17.01 131.91 25.68zm462.65 57.11c2.21-.65 3.24-.86 4.2-1.26 22.42-9.24 44.8-18.6 67.3-27.66 3.73-1.5 4.54-3.42 4.21-7.19-2.41-28-10.37-54.48-21.56-80.1-.73-1.67-1.6-3.28-2.99-6.12-17.26 41.28-34 81.31-51.16 122.33z"/></svg>