<?xml version="1.0" encoding="utf-8"?>
<!-- Generator: Adobe Illustrator 25.4.1, SVG Export Plug-In . SVG Version: 6.00 Build 0)  -->
<svg version="1.1" id="Слой_1" xmlns="http://www.w3.org/2000/svg" xmlns:xlink="http://www.w3.org/1999/xlink" x="0px" y="0px"
	 viewBox="0 0 800 800" style="enable-background:new 0 0 800 800;" xml:space="preserve">
<g id="FeiuiN.tif">
	<g>
		<path d="M9.4,449.52c0.95-8.23,1.87-16.46,2.88-24.68c0.54-4.44,1.2-8.87,1.85-13.3c1.07-7.29,5.9-10.93,13.13-9.91
			c6.62,0.94,10.3,5.99,9.56,13.09c-1.24,11.76-3.02,23.49-3.57,35.27c-3.11,66.32,13.95,127.18,50.77,182.37
			c36.06,54.03,84.59,92.8,145.34,115.71c46.06,17.37,93.81,23.65,142.78,17.27c94.68-12.34,168.57-58.72,220.68-138.47
			c35.88-54.92,51.23-115.99,47.12-181.5c-5.36-85.35-41.58-155.72-105.23-212.32c-5.72-5.09-11.88-9.71-18.08-14.22
			c-1.22-0.89-4.13-1.08-5.25-0.24c-9.6,7.17-18.97,14.64-28.4,22.04c-0.35,0.28-0.54,0.76-1.1,1.6c1.51,1.13,2.97,2.27,4.49,3.34
			c56.81,39.99,94.75,93.47,108.56,161.55c19.91,98.12-6.97,182.92-80.01,251.89c-35.55,33.56-78.28,54.11-126.2,63.94
			c-24.47,5.02-49.11,6.14-73.95,4.48c-2.23-0.15-4.47-0.29-6.68-0.64c-7.17-1.13-11.03-5.86-10.32-12.52
			c0.73-6.89,5.64-10.76,13.12-10.12c23.21,1.98,46.36,1.75,69.26-2.81c71.04-14.12,126.14-51.68,163.96-113.55
			c27.77-45.42,37.85-95.19,33.15-148.02c-0.83-9.3-2.73-18.5-4.28-28.63c-19.13,10.91-37.28,20.96-50.64,37.51
			c-7.57,9.38-10.88,20.39-10.23,32.19c0.73,13.38,1.77,26.83,4.04,40.01c3.19,18.45-1.36,34.94-10.7,50.38
			c-14.02,23.16-32.7,41.33-58.49,50.98c-25.58,9.57-46.61-0.89-54.39-26.9c-1.82-6.09-3.05-12.46-3.6-18.79
			c-0.99-11.29-1.47-22.64-1.79-33.97c-0.67-23.8-0.93-47.61-1.76-71.4c-0.19-5.34-1.67-10.73-3.23-15.89
			c-1.82-6.02-3.74-6.96-9.97-6.17c-18.22,2.32-36.39,5.2-54.67,6.91c-15.27,1.43-30.39-0.2-44.22-7.75
			c-17-9.28-26.08-24.61-31.02-42.56c-8.38-30.42,1.86-55.93,22.03-78.39c5.07-5.65,10.89-10.63,17.02-16.54
			c-5.98-0.98-11.39-1.77-16.76-2.77c-26.92-5.04-51.54-15.73-74.29-30.79c-3.05-2.02-4.89-2.07-7.77,0.34
			c-28.75,24.14-50.93,53.22-66.61,87.33c-1.58,3.44-1.15,5.69,0.86,9.01c8.92,14.75,17.27,29.84,25.82,44.82
			c0.08,0.14,0.15,0.28,0.22,0.43c5.51,13.04,15.12,20.64,29.1,23.63c6.6,1.41,13.05,4.39,19.04,7.61
			c14.96,8.05,21.56,22.53,15.97,38.49c-5.88,16.82-13.79,32.93-20.62,49.43c-3.41,8.24-6.75,16.55-9.31,25.07
			c-0.83,2.76,0.08,6.79,1.61,9.41c15.27,26.09,22.12,53.93,18.16,84.1c-0.41,3.12,0.78,4.81,3.25,6.15
			c14.86,8.05,29.64,16.26,44.59,24.13c6.85,3.6,9.41,7.98,7.44,14.55c-2.06,6.9-8.56,9.81-15.73,6.86
			c-33.26-13.64-62.58-33.21-87.79-58.84c-35.74-36.34-60.36-79.23-70.14-129.21c-19.62-100.23,8.37-185.66,83.4-255.34
			c1.29-1.2,2.63-2.33,3.93-3.52c0.22-0.2,0.32-0.54,0.69-1.21c-0.72-0.8-1.44-1.8-2.36-2.58
			c-42.75-36.42-74.89-81.03-100.74-130.49c-1.04-1.98-2.25-3.9-3.04-5.97c-2.01-5.25-0.3-10.15,4.96-14.8
			c22.96-20.28,47.9-37.79,74.37-53.18c29.72-17.28,61-30.77,94.59-38.51c53.32-12.29,103.89-5.89,150.72,23.31
			c11.89,7.42,23,16.14,34.15,24.67c6.49,4.97,6.43,12.51,0.6,17.73c-4.49,4.02-9.35,4.02-14.8,0.01
			c-9.53-6.99-18.74-14.47-28.65-20.87c-24.99-16.15-52.24-25.97-82.17-27.6c-1.59-0.09-3.19-0.04-4.79-0.01
			c-0.27,0.01-0.54,0.28-1.4,0.75c0.95,1.41,1.82,2.82,2.79,4.14c30.62,41.76,61.28,83.5,91.81,125.32
			c2.31,3.17,4.82,4.98,8.75,5.73c31.85,6.07,63.66,12.35,95.49,18.55c0.6,0.12,1.24,0.01,2.81,0.01c-1.01-1.94-1.62-3.45-2.52-4.76
			c-12.61-18.46-25.18-36.94-37.95-55.29c-4.64-6.67-4.66-12.51,0.63-16.99c5.48-4.65,12.29-3.91,17.04,2.47
			c9.55,12.81,19.23,25.55,28.01,38.88c7.9,11.98,14.62,24.74,22.01,37.08c1.35,2.26,3.05,4.59,5.17,6.06
			c19.74,13.78,37.87,29.38,54.2,47.07c0.7,0.76,1.59,1.34,3.43,2.87c-0.5-2.88-0.76-4.52-1.07-6.15
			c-5.08-26.87-5.94-53.68,1.62-80.27c8.11-28.54,25.28-51.03,47.65-69.81c28.59-24,61.69-39.54,97.02-50.76
			c4.26-1.35,8.57-2.54,12.9-3.66c7.16-1.86,11.46-0.11,15.2,6.44c10.97,19.21,19.69,39.45,26.33,60.52
			c6.93,22.02,11.68,44.52,11.89,67.72c0.39,42.48-15.12,78.14-46.43,106.93c-25.84,23.76-56.21,39.72-88.84,51.81
			c-6.1,2.26-12.29,4.28-18.98,6.6c1.83,4.67,3.51,8.9,5.15,13.16c21.45,55.94,27.94,113.69,16.71,172.45
			c-23.12,120.98-93.05,204.27-206.91,250.61c-29.04,11.82-59.61,17.83-90.89,20.13c-2.68,0.2-5.34,0.81-8,1.22
			c-10.23,0-20.46,0-30.69,0c-3.78-0.5-7.54-1.18-11.34-1.49c-31.07-2.51-61.24-9.19-90.33-20.28
			c-53.65-20.44-98.93-52.78-135.42-97.16c-43.53-52.96-68.4-113.6-74.2-181.99c-0.31-3.62-0.94-7.22-1.42-10.83
			C9.4,469.35,9.4,459.43,9.4,449.52z M410.62,521.45c-0.23,0.01-0.45,0.02-0.68,0.03c0,4.96-0.25,9.93,0.05,14.86
			c0.95,15.77,1.45,31.6,3.36,47.26c2.17,17.82,12.4,23.21,28.86,15.97c20.9-9.19,35.82-24.74,46.12-44.88
			c4.91-9.6,7.11-19.52,5.09-30.55c-2.1-11.45-3.09-23.12-4.14-34.73c-2.71-30.06,8.37-54.32,32.43-72.12
			c13.06-9.66,27.2-17.86,41.01-26.47c2.84-1.77,3.55-3.02,2.36-6.36C546,331.04,512.36,289.33,464.73,258.7
			c-3.35-2.16-5.73-1.95-9.07,0.01c-11.7,6.88-23.43,13.73-35.49,19.94c-29.75,15.34-61.07,26-94.36,30.51
			c-1.64,0.22-3.33,1.06-4.73,2.01c-5.27,3.6-10.67,7.07-15.59,11.12c-8.86,7.29-18.24,14.19-25.89,22.63
			c-14.77,16.3-21.69,35.24-14.57,57.43c6.39,19.92,18.84,29.95,39.69,30.82c8.57,0.36,17.26-0.32,25.81-1.31
			c13.96-1.61,27.83-4.02,41.78-5.78c12.68-1.6,22.03,3.74,28.23,14.73c4.97,8.81,7.15,18.51,7.75,28.44
			C409.37,486.64,409.88,504.05,410.62,521.45z M484.59,210.17c-1.64-0.56-2.75-1.09-3.93-1.32c-31.97-6.25-63.94-12.53-95.96-18.55
			c-2.13-0.4-5.06,0.59-6.9,1.93c-39.52,28.8-78.93,57.73-118.36,86.65c-1.23,0.9-2.4,1.9-4.72,3.74
			c6.86,1.39,12.38,2.76,17.98,3.61c30.99,4.71,61.18,0.59,90.75-8.95c43.86-14.14,82.84-37.31,119.26-65.11
			C483.3,211.74,483.73,211.1,484.59,210.17z M174.3,642.72c0.45-1.7,0.66-2.15,0.66-2.6c0-1.28-0.05-2.56-0.13-3.83
			c-1.14-18.35-6.04-35.59-15.88-51.17c-6.23-9.85-7.34-20.31-3.47-30.76c5.2-14.03,11.65-27.61,17.48-41.41
			c3.91-9.26,8.02-18.45,11.41-27.9c3.04-8.46,1.11-12.39-7.1-16.04c-4.65-2.07-9.45-4.06-14.4-5.18
			c-17.74-4-30.32-14.13-38.36-30.4c-4.53-9.16-9.68-18-14.59-26.97c-1.57-2.86-3.26-5.66-4.89-8.49
			c-13.58,45.69-12.95,91.03,0.75,136.09C118.59,576.18,141.14,612.3,174.3,642.72z M167.48,229.76
			c11.19,12.79,43.87,35.99,59.04,41.77c1.58,0.6,4.33-0.24,5.86-1.36c38.37-27.93,76.66-55.99,114.94-84.05
			c0.69-0.51,1.17-1.31,2.04-2.3c-1.42-0.54-2.39-1.08-3.42-1.28c-28.69-5.61-57.36-11.27-86.1-16.62c-2.42-0.45-5.74,0.52-7.8,2.01
			c-21.9,15.8-43.64,31.83-65.42,47.8C180.33,220.34,174.05,224.95,167.48,229.76z M352.05,160.34c-1.43-2.33-2-3.43-2.72-4.42
			c-28.99-39.56-58.04-79.09-86.92-118.73c-2.32-3.18-4.81-3.82-8.16-2.96c-14.82,3.82-29.68,7.52-44.43,11.58
			c-4.64,1.28-9,3.53-13.92,5.51c1.35,1.98,2.2,3.31,3.13,4.57c20.22,27.57,40.51,55.09,60.57,82.78c2.52,3.47,5.47,4.95,9.39,5.69
			c16.16,3.05,32.29,6.25,48.44,9.37C328.5,155.88,339.59,157.97,352.05,160.34z M645.26,304.95c0.86,0.37,1.17,0.63,1.42,0.59
			c0.77-0.14,1.54-0.34,2.27-0.61c22.74-8.39,44.3-19.07,63.89-33.44c21.23-15.58,38.92-34.2,48.01-59.53
			c2.65-7.38,4.17-15.17,6.43-23.61c-2.25,0.5-3.04,0.57-3.74,0.85c-27.15,11.19-54.33,22.34-81.39,33.74
			c-2.04,0.86-3.96,3.23-4.87,5.36c-8.73,20.4-17.23,40.9-25.78,61.38C649.38,294.76,647.33,299.86,645.26,304.95z M622.21,298.95
			c1.31-2.11,1.81-2.74,2.11-3.45c10.21-24.43,20.45-48.85,30.5-73.35c0.67-1.62,0.33-4.06-0.37-5.78
			c-8.39-20.7-16.92-41.33-25.44-61.98c-3.19-7.74-6.43-15.46-9.7-23.33c-0.95,0.54-1.46,0.68-1.73,1.01
			c-0.89,1.13-1.72,2.3-2.51,3.5c-12.16,18.42-17.33,38.92-17.7,60.75c-0.43,25.72,5.18,50.39,13.71,74.46
			C614.31,279.89,618.17,288.76,622.21,298.95z M93.29,133.32c0.53,1.68,0.61,2.34,0.91,2.86c15.49,26.58,33.24,51.51,53.79,74.44
			c2.28,2.55,3.83,2.31,6.35,0.45c22.24-16.41,44.55-32.7,66.86-49.02c0.87-0.64,1.84-1.13,2.77-1.69c-0.19-0.55-0.38-1.1-0.57-1.66
			C180.32,150.31,137.24,141.9,93.29,133.32z M667.72,188.11c0.47,0.04,0.94,0.07,1.42,0.11c17.36-41.5,34.72-83.01,52.52-125.56
			c-2.46,0.6-3.68,0.75-4.78,1.19c-6.23,2.47-12.51,4.84-18.63,7.57c-21.27,9.46-41.22,21.07-58.86,36.45
			c-2.76,2.41-3.2,4.4-1.69,7.75c3.67,8.15,6.87,16.51,10.28,24.77C654.55,156.3,661.14,172.21,667.72,188.11z M229.1,136.45
			c-0.96-1.77-1.25-2.49-1.7-3.1c-16.99-23.21-34.03-46.38-50.96-69.63c-1.92-2.64-3.5-2.22-5.99-0.96
			c-25.18,12.74-48.69,28.07-71,45.29c-0.67,0.52-1.11,1.32-2.26,2.72C141.27,119.35,184.58,127.78,229.1,136.45z M691.75,193.56
			c2.21-0.65,3.24-0.86,4.2-1.26c22.42-9.24,44.8-18.6,67.3-27.66c3.73-1.5,4.54-3.42,4.21-7.19c-2.41-28-10.37-54.48-21.56-80.1
			c-0.73-1.67-1.6-3.28-2.99-6.12C725.65,112.51,708.91,152.54,691.75,193.56z"/>
	</g>
</g>
</svg>
