<svg display="none" xmlns="http://www.w3.org/2000/svg">

    <symbol id="phone" viewBox="0 0 800 800">
        <g>
            <path d="M319.48,352.08c10.85,14.94,20.88,30.09,32.25,44.15c26.41,32.66,57.53,60.12,93.61,81.84c3.35,2.02,5.05,1.43,7.5-1.1
		c8.11-8.39,16.41-16.59,24.69-24.81c18.53-18.42,43.74-18.51,62.25-0.13c15.97,15.85,31.89,31.76,47.73,47.74
		c18.11,18.28,17.62,43.21,0.03,62.03c-20.02,21.43-43.94,34.78-73.04,38.66c-24.83,3.3-49.21,0.57-73.21-6
		c-44.13-12.08-82.9-34.31-117.92-63.3c-42.14-34.87-76.29-76.22-99.95-125.79c-14.87-31.15-24.36-63.75-24.51-98.56
		c-0.17-38.44,13.41-70.82,42.81-96.24c16.91-14.62,41.13-14.8,57.19,0.72c17.5,16.91,34.71,34.13,51.64,51.61
		c16.15,16.68,15.66,41.95-0.81,59.01C340.26,331.73,330.41,341.21,319.48,352.08z M492.82,571.81
		c29.04,0.35,53.86-9.04,73.39-31.17c6.29-7.12,6.52-13.25-0.28-20.08c-15.63-15.71-31.31-31.39-47.01-47.03
		c-7.01-6.98-13.35-6.96-20.37,0.03c-11.58,11.52-23.08,23.12-34.66,34.63c-6.55,6.52-12.62,7.38-20.76,2.88
		c-65.66-36.32-116.67-87.35-153.18-152.89c-5.05-9.06-4.19-14.66,3.08-21.95c11.65-11.69,23.38-23.29,34.96-35.04
		c5.63-5.71,5.85-12.62,0.35-18.2c-16.39-16.61-32.89-33.1-49.49-49.5c-5.35-5.28-11.8-5.07-17.46-0.24
		c-21.61,18.45-31.96,42.11-32.48,70.26c-0.52,28,6.03,54.62,17.51,79.86c34.36,75.53,89.41,131.23,163.76,167.7
		C436.13,563.82,463.68,571.32,492.82,571.81z"/>
            <path d="M587.93,400.78c0,1.5,0,3,0,4.5c-0.01,9.26-6.23,16.09-14.76,16.21c-8.38,0.12-15.08-6.67-15.18-15.89
		c-0.16-15.77-2.5-31.17-6.98-46.29c-18.65-62.96-76.05-109.63-141.36-114.85c-4.32-0.34-8.64-0.62-12.97-0.75
		c-9.74-0.3-16.37-6.43-16.27-15.18c0.1-8.77,6.95-14.99,16.6-14.82c48.6,0.9,91.18,17.38,127.38,49.84
		C563.54,298.65,587.21,350.14,587.93,400.78z"/>
            <path d="M402.05,277.27c67.94,3.82,121.49,59.25,122.59,127.03c0.19,11.98-9.29,19.82-19.77,16.33
		c-6.27-2.09-9.97-7.43-10.18-15.02c-0.62-22.69-7.44-43.22-21.76-60.92c-18.21-22.49-41.81-35.03-70.78-37.2
		c-2.82-0.21-5.66-0.24-8.47-0.58c-7.83-0.95-13.37-7.26-13.26-14.97c0.11-7.7,5.78-13.88,13.65-14.63
		C396.7,277.06,399.39,277.27,402.05,277.27z"/>
        </g>
    </symbol>

    <symbol id="exit" viewBox="0 0 800 800">
        <path d="M658.84,620.03c-2.25,2.9-4.26,6.04-6.79,8.66c-7.36,7.62-14.92,15.04-22.41,22.53c-9.66,9.67-14.49,9.71-24.02,0.18
	c-66.94-66.94-133.88-133.88-200.8-200.84c-1.3-1.3-2.28-2.9-3.42-4.37c-0.74-0.29-1.47-0.57-2.21-0.86
	c-1.02,1.75-1.71,3.82-3.1,5.21c-67.01,67.11-134.07,134.17-201.13,201.22c-8.93,8.93-14.11,8.96-22.94,0.14
	c-7.97-7.96-15.94-15.92-23.9-23.9c-8.18-8.2-8.2-13.7-0.03-21.86c67.18-67.18,134.36-134.35,201.57-201.51
	c1.41-1.41,3.05-2.6,4.85-4.12c-1.93-2.04-3.25-3.5-4.64-4.89c-66.82-66.82-133.65-133.64-200.48-200.45
	c-1.19-1.19-2.43-2.33-3.54-3.59c-5.03-5.73-5.29-11.63-0.01-17.13c9.43-9.83,19.15-19.37,28.87-28.91c1.62-1.6,3.82-2.61,5.75-3.89
	c2.02,0,4.04,0,6.06,0c3.35,2.73,6.96,5.2,10,8.23c66.52,66.42,132.98,132.89,199.41,199.4c1.4,1.4,2.34,3.27,3.49,4.92
	c0.72,0.03,1.43,0.05,2.15,0.08c1.13-1.66,2.04-3.56,3.43-4.96c66.79-66.86,133.61-133.69,200.48-200.47
	c2.69-2.69,5.96-4.81,8.96-7.2c2.02,0,4.04,0,6.06,0c2.41,1.76,5.06,3.26,7.18,5.31c7.2,6.96,14.32,14.02,21.25,21.24
	c3.55,3.7,6.63,7.85,9.92,11.79c0,2.02,0,4.04,0,6.06c-2.39,3-4.52,6.28-7.21,8.98c-66.77,66.86-133.59,133.67-200.44,200.45
	c-1.4,1.4-3.28,2.32-4.94,3.46c0,0.72,0,1.43,0,2.15c1.66,1.14,3.54,2.06,4.94,3.46C518.04,471.32,584.86,538.13,651.62,605
	c2.7,2.7,4.82,5.97,7.21,8.98C658.84,615.99,658.84,618.01,658.84,620.03z"/>
    </symbol>

    <symbol id="arrow-r" viewBox="0 0 800 800">
        <g>
            <path class="st0" d="M506.31,542.98c51.57-47.85,102.33-94.95,153.65-142.57c-51.62-47.86-102.4-94.96-153.63-142.46
			c-11.63,10.82-22.44,20.87-33.91,31.55c31.27,29.06,62.01,57.63,92.74,86.2c-0.37,0.86-0.75,1.72-1.12,2.58
			c-145.09,0-290.17,0-435.25,0c0,15.37,0,29.31,0,44.69c145.72,0,290.79,0,438.78,0c-33.1,30.76-63.9,59.39-95.13,88.42
			C484.12,522.28,494.67,532.12,506.31,542.98z"/>
            <path d="M506.31,542.98c-11.64-10.86-22.19-20.7-33.88-31.59c31.23-29.02,62.03-57.66,95.13-88.42c-147.99,0-293.06,0-438.78,0
			c0-15.39,0-29.33,0-44.69c145.07,0,290.16,0,435.25,0c0.37-0.86,0.75-1.72,1.12-2.58c-30.74-28.57-61.47-57.13-92.74-86.2
			c11.47-10.67,22.29-20.73,33.91-31.55c51.23,47.5,102.01,94.6,153.63,142.46C608.64,448.03,557.88,495.13,506.31,542.98z"/>
        </g>
    </symbol>


</svg>


