<?xml version="1.0" encoding="utf-8"?>
<!-- Generator: Adobe Illustrator 25.4.1, SVG Export Plug-In . SVG Version: 6.00 Build 0)  -->
<svg version="1.1" id="Слой_1" xmlns="http://www.w3.org/2000/svg" xmlns:xlink="http://www.w3.org/1999/xlink" x="0px" y="0px"
	 viewBox="0 0 800 800" style="enable-background:new 0 0 800 800;" xml:space="preserve">
<g id="_x32_ALP16.tif">
	<g>
		<path d="M500.38,186c1.11,0.41,2.19,0.89,3.32,1.23c11.07,3.33,18.97,12.72,19.12,24.25c0.32,24,0.15,48,0.11,72
			c-0.01,3.53-2.38,5.77-5.54,5.67c-3.13-0.1-5.11-2.35-5.11-6.06c-0.02-22.51-0.01-45.02-0.02-67.54
			c0-12.61-6.02-18.67-18.52-18.67c-58.71,0-117.42,0-176.13,0c-7.51,0-5.95,0.04-5.99,6.12c-0.08,13.69-0.01,27.37-0.03,41.06
			c-0.02,12.84-7.53,20.38-20.31,20.4c-14.38,0.02-28.76,0-43.14,0c-1.17,0-2.33,0-3.73,0c-0.12,1.82-0.3,3.28-0.3,4.74
			c-0.01,84.79-0.02,169.58,0,254.38c0,10.62,6.47,17.1,17.03,17.1c77.95,0.01,155.9,0.01,233.84,0c10.74,0,17.22-6.5,17.27-17.21
			c0.01-1.98-0.07-3.97,0.05-5.95c0.16-2.81,2.22-4.89,4.87-5.12c2.6-0.22,5.25,1.58,5.59,4.32c2.04,16.86-4.87,30.77-22.09,34.3
			c-1.73,0.35-3.55,0.33-5.33,0.33c-78.15,0.01-156.29,0.02-234.44,0.01c-15.79,0-27.01-10.92-27.53-26.68
			c-0.04-1.19-0.02-2.38-0.02-3.57c0-83.11,0.07-166.21-0.1-249.32c-0.02-10.32,3.3-18.47,10.71-25.67
			c16.92-16.45,33.49-33.27,50.12-50.02c4.35-4.38,9.1-7.93,15.25-9.31c0.44-0.1,0.81-0.52,1.21-0.8
			C373.83,186,437.1,186,500.38,186z M300.71,205.91c-15.91,15.91-31.84,31.84-47.73,47.73c-0.19-0.15-0.05,0.06,0.1,0.06
			c13.48,0.02,26.96,0.11,40.44-0.04c3.89-0.04,7.04-2.7,7.1-6.35C300.85,233.38,300.71,219.45,300.71,205.91z"/>
		<path d="M480.3,477.42c0-7.63-0.04-15.27,0.03-22.9c0.02-1.82-0.33-2.72-2.39-3.24c-9.1-2.3-15.28-9.67-16.01-19.2
			c-0.41-5.37-2.92-8.73-7.81-10.83c-12.74-5.48-17.25-19.28-10.15-31.16c2.74-4.59,2.76-8.77,0.02-13.37
			c-7.12-11.94-2.67-25.58,10.1-31.16c4.85-2.12,7.39-5.45,7.84-10.83c1.14-13.57,12.93-22.29,26.23-19.33
			c5.62,1.25,9.7-0.24,13.44-4.49c8.78-9.97,23.46-9.86,32.16,0.19c3.65,4.22,7.75,5.52,13.22,4.31
			c13.24-2.95,24.84,5.53,26.15,19.01c0.54,5.52,3.04,9.06,8.19,11.26c12.38,5.29,16.91,19.23,10.02,30.76
			c-2.86,4.79-2.88,9.11-0.01,13.91c6.89,11.52,2.38,25.51-9.99,30.79c-5.3,2.26-7.78,5.9-8.25,11.53
			c-0.77,9.11-6.75,16.24-15.56,18.55c-2.27,0.6-2.73,1.58-2.72,3.65c0.06,14.87,0.07,29.75,0.02,44.62
			c-0.03,6.99-4.01,11.94-10.32,12.24c-2.5,0.12-5.33-0.73-7.56-1.96c-5.8-3.21-11.41-6.8-16.98-10.4
			c-1.77-1.14-3.04-1.08-4.79,0.04c-5.5,3.54-11.14,6.86-16.69,10.32c-4.02,2.52-8.17,3.07-12.37,0.69
			c-4.19-2.38-5.88-6.21-5.85-10.95C480.34,492.09,480.3,484.75,480.3,477.42z M517.65,452.46c3.5-0.05,6.25-1.55,8.49-4.21
			c5.93-7.02,13.37-9.49,22.36-7.47c7.91,1.77,13.33-2.07,14.1-10.09c0.89-9.28,5.53-15.64,14.16-19.2
			c6.75-2.78,9.09-9.74,5.3-15.93c-5.01-8.17-5.03-16.18-0.01-24.35c3.74-6.08,1.57-13.08-5.01-15.8
			c-8.98-3.72-13.67-10.27-14.52-19.92c-0.64-7.25-6.39-11.31-13.4-9.65c-9.31,2.21-16.95-0.24-23.19-7.52
			c-4.78-5.58-11.96-5.54-16.77,0.08c-6.25,7.3-13.93,9.64-23.22,7.41c-6.85-1.64-12.88,2.75-13.38,9.79
			c-0.66,9.46-5.29,15.91-13.99,19.6c-7.13,3.03-9.25,9.7-5.24,16.35c4.76,7.89,4.77,15.7,0.02,23.59
			c-4.09,6.81-1.88,13.38,5.43,16.5c8.46,3.6,13.07,9.94,13.73,19.15c0.52,7.28,6.32,11.77,13.38,10.12
			c9.43-2.21,17.21,0.17,23.41,7.65C511.46,451.16,514.27,452.43,517.65,452.46z M491.31,450.94c0,16.82,0,33.37,0,50.42
			c1.38-0.76,2.33-1.24,3.23-1.79c5.49-3.36,11-6.69,16.45-10.12c4.4-2.77,8.73-2.78,13.13-0.06c5.56,3.44,11.13,6.85,16.71,10.26
			c0.87,0.53,1.8,0.96,3.11,1.65c0-17.13,0-33.69,0-50.22c-4.06-0.45-6.38,0.78-9.6,3.9c-2.45,2.38-5.1,4.83-8.13,6.28
			c-8.55,4.1-18.39,1.74-24.81-5.56C498.73,452.66,495.8,450.41,491.31,450.94z"/>
		<path d="M410.68,223.14c17.75,0,35.49-0.01,53.24,0c9.11,0.01,13.65,4.59,13.67,13.76c0.01,4.96,0.05,9.91-0.01,14.87
			c-0.09,7.56-4.93,12.63-12.44,12.65c-24.69,0.08-49.37,0.03-74.06,0.04c-2.84,0-5.11-0.94-6.04-3.82
			c-0.75-2.32-0.13-4.55,1.94-5.73c1.44-0.82,3.36-1.1,5.07-1.1c23.4-0.07,46.8-0.05,70.19-0.05c4.65,0,4.65,0,4.65-4.78
			c0-4.06-0.08-8.13,0.03-12.19c0.06-2.14-0.61-2.99-2.87-2.99c-35.59,0.05-71.18,0.05-106.78,0.01c-2.04,0-2.83,0.7-2.79,2.77
			c0.1,4.76,0.1,9.52,0,14.28c-0.05,2.23,0.86,3.01,3,2.92c2.47-0.1,4.96-0.08,7.43,0.01c3.14,0.12,5.4,2.3,5.49,5.13
			c0.09,2.8-2.09,5.3-5.19,5.45c-3.56,0.17-7.16,0.27-10.69-0.09c-6.28-0.63-10.55-5.48-10.68-11.87
			c-0.11-5.55-0.08-11.1-0.02-16.66c0.08-7.76,4.92-12.59,12.7-12.61C374.59,223.12,392.63,223.14,410.68,223.14z"/>
		<path d="M347.45,363.93c-21.91,0-43.81,0-65.72,0c-0.99,0-1.99,0.04-2.97-0.05c-2.92-0.26-5.03-2.48-5.04-5.25
			c-0.01-2.64,1.93-4.88,4.7-5.3c0.97-0.15,1.98-0.1,2.97-0.1c44.11,0,88.22,0,132.33,0c1.09,0,2.2-0.04,3.26,0.17
			c2.74,0.55,4.45,2.88,4.26,5.61c-0.18,2.55-2.13,4.56-4.79,4.85c-0.98,0.1-1.98,0.06-2.97,0.06
			C391.46,363.93,369.46,363.93,347.45,363.93z"/>
		<path d="M347.75,390.82c21.91,0,43.81,0,65.72,0c1.09,0,2.2-0.05,3.26,0.11c2.71,0.42,4.59,2.75,4.51,5.43
			c-0.08,2.57-1.93,4.66-4.57,5.07c-0.78,0.12-1.58,0.08-2.37,0.08c-44.51,0-89.01,0-133.52,0c-0.89,0-1.8,0.04-2.67-0.12
			c-2.6-0.48-4.41-2.7-4.4-5.25c0.01-2.53,1.87-4.78,4.46-5.2c1.16-0.19,2.37-0.13,3.56-0.13
			C303.74,390.81,325.75,390.82,347.75,390.82z"/>
		<path d="M347.45,315.7c22,0,44.01,0,66.01,0c1.09,0,2.2-0.07,3.26,0.12c2.65,0.46,4.24,2.05,4.49,4.78
			c0.24,2.67-1.32,4.88-3.96,5.5c-1.14,0.27-2.36,0.29-3.54,0.29c-44.1,0.01-88.21,0.01-132.31,0.01c-0.3,0-0.59,0-0.89,0
			c-4.29-0.07-6.8-2.07-6.79-5.4c0.01-3.34,2.5-5.29,6.84-5.29C302.85,315.69,325.15,315.7,347.45,315.7z"/>
		<path d="M347.47,439.14c-22,0-44.01,0-66.01,0c-5.11,0-7.72-1.81-7.75-5.32c-0.03-3.55,2.55-5.38,7.66-5.38
			c44.11,0,88.21,0,132.32,0c1.09,0,2.2-0.03,3.26,0.18c2.67,0.53,4.17,2.23,4.27,4.95c0.1,2.73-1.3,4.55-3.9,5.26
			c-1.22,0.33-2.55,0.3-3.83,0.3C391.48,439.15,369.48,439.14,347.47,439.14z"/>
		<path d="M313.55,483.52c11.1,0,22.19-0.02,33.29,0.02c4.04,0.01,6.48,2.48,6.07,5.95c-0.33,2.84-2.52,4.68-5.88,4.71
			c-6.74,0.06-13.47,0.02-20.21,0.02c-15.46,0-30.91,0.07-46.37-0.09c-1.87-0.02-4.3-0.83-5.43-2.16c-1-1.18-1.3-4-0.55-5.35
			c0.82-1.48,3.16-2.87,4.89-2.95c7.02-0.33,14.06-0.14,21.1-0.15C304.83,483.52,309.19,483.52,313.55,483.52z"/>
		<path d="M517.47,338.58c24.62-0.09,44.79,19.88,44.9,44.44c0.11,24.85-19.77,45.01-44.5,45.14c-24.75,0.13-44.95-19.86-45.09-44.6
			C472.64,358.89,492.72,338.67,517.47,338.58z M551.66,383.49c0.05-18.85-14.99-34.03-33.88-34.2
			c-18.82-0.17-34.3,15.23-34.3,34.12c0,18.74,15.3,34.02,34.07,34.05C536.36,417.49,551.61,402.29,551.66,383.49z"/>
	</g>
</g>
</svg>
