<svg xmlns="http://www.w3.org/2000/svg" viewBox="0 0 800 800"><path d="M568.82 477.82c7.54-2.83 12.16-9.75 11.76-17.49-.37-7.18-6.13-13.91-13.87-15.91-2.26-.58-4.66-.81-7-.81-39.06-.05-78.11-.03-117.17-.04-.93 0-1.86.02-2.79-.06-3.03-.28-5.2-2.71-5.2-5.78 0-3.04 2.21-5.52 5.21-5.8.85-.08 1.72-.04 2.57-.04 38.98 0 77.97.06 116.95-.04 10.9-.03 19.98 3.58 26.95 12.08.13.16.33.26.5.38 5.74-5.25 6.6-13.34 1.93-19.56-4.69-6.23-11.35-8.61-18.85-9.15-.93-.07-1.86-.03-2.79-.03H401.33l2.51 1.96c18.94 14.74 31.47 33.69 37.33 57 .96 3.82-.64 6.81-4.07 7.75-3.29.9-6.29-1.04-7.28-4.84-7-26.64-22.48-46.77-47.02-59.26-51.5-26.2-113.86 1.41-128.87 57.94-.24.9-.44 1.81-.78 2.67-1.07 2.67-3.89 4.17-6.59 3.57-2.83-.63-4.95-3.01-4.6-5.86.34-2.74 1.11-5.45 1.94-8.09 6.91-21.78 19.69-39.32 38.16-52.74.44-.32.84-.67 1.62-1.3-.89-.05-1.35-.09-1.82-.1-19.52-.31-39.05-.62-58.57-.95-.93-.02-1.87-.04-2.77-.22-2.88-.57-4.8-2.92-4.78-5.76.02-2.9 2.12-5.31 5.07-5.76.7-.11 1.43-.08 2.14-.07 26.96.44 53.92.89 80.88 1.31 1.06.02 2.2.04 3.17-.3 8.74-3.11 17.75-4.93 26.98-5.68.56-.05 1.11-.15 1.75-.25v-25c-3.52-.23-6.93-.38-10.33-.68-19.98-1.74-39.02-6.56-56.07-17.59-20.19-13.07-32.77-31.73-39.34-54.61-4.02-14-5.61-28.29-4.44-42.85.3-3.73 2.32-5.75 5.98-5.98 22.75-1.37 44.39 2.63 64.68 13.25.31.16.64.29 1.2.54.32-2.57.55-5.02.93-7.44 3.19-20.43 12.32-38.08 25.57-53.68 4.1-4.83 8.76-9.22 13.35-13.61 2.75-2.63 6.01-2.57 8.84-.04 20.42 18.3 34.49 40.26 38.97 67.73.37 2.25.53 4.52.81 7.03.66-.3 1.22-.53 1.76-.8 20.29-10.44 41.88-14.39 64.54-12.95 3.07.2 5.38 2.27 5.56 5.24 1.79 29.89-4.51 57.46-24.06 80.94-13.22 15.88-30.57 25.27-50.33 30.52-10.82 2.88-21.85 4.35-33.03 4.77-.84.03-1.68.1-2.66.16v24.87c5.19.8 10.37 1.4 15.45 2.45 4.39.91 8.74 2.17 12.98 3.64 2.76.95 5.45 1.42 8.35 1.41 17.88-.06 35.77 0 53.65-.08 1.55-.01 3.26-.46 4.61-1.22 11.72-6.56 23.3-13.38 35.09-19.81 5.45-2.97 7.6-7.48 7.33-13.21-.44-9.22-4.59-16.59-12.39-21.64-4.92-3.18-9.86-3.52-15.27-.32-22.08 13.06-44.31 25.87-66.51 38.72-1.2.69-2.61 1.26-3.97 1.39-2.67.26-4.89-1.42-5.73-3.92-.8-2.38-.01-4.92 2.07-6.49.62-.47 1.32-.84 2-1.24 22.3-12.98 44.63-25.89 66.87-38.95 7.62-4.47 15.29-4.67 23.17-1.1 15.76 7.13 25.14 26.95 20.29 42.7-1.81 5.87-5.28 10.38-10.66 13.41-6.58 3.72-13.15 7.47-19.68 11.73h2.1c33.33 0 66.67.04 100-.02 10.13-.02 19.22 2.68 26.77 9.61 12.56 11.53 12.23 29.54-.71 40.65-1.21 1.04-1.62 1.91-1.42 3.57 1.65 13.8-6.04 26.25-19.25 31.22-1.54.58-2.24 1.26-2.44 2.93-.83 7.12-4.2 12.95-9.4 17.81-.52.49-1 1.67-.78 2.23 6.02 15.01-2.05 30.49-16.3 36.79-4.5 1.99-9.18 2.98-14.14 2.98-102.5-.03-205.01-.02-307.51-.02-4.04 0-6.52-2.21-6.48-5.74.03-3.44 2.69-5.81 6.58-5.81 50.64-.01 101.29 0 151.93 0 51.14 0 102.29-.02 153.43.03 5.91.01 11.35-1.22 16.05-4.94 8.87-7.01 8.85-19-.03-25.98-3.76-2.96-8.07-4.58-12.85-4.78-3.07-.13-6.15-.07-9.23-.07-31.47 0-62.95 0-94.42-.01-1.06 0-2.16-.04-3.19-.28-2.66-.62-4.41-2.91-4.42-5.6-.01-2.69 1.73-5 4.37-5.65.89-.22 1.84-.28 2.76-.28 33.91-.01 67.81-.02 101.72-.01 8.65 0 16.48 2.45 23.21 8.03.27.22.56.4.82.58 6.07-4.13 8.25-13.11 4.74-20.01-3.28-6.45-8.83-9.72-15.88-10.59-1.27-.16-2.57-.12-3.86-.12-26.04-.01-52.07 0-78.11-.01-1 0-2.01-.01-2.98-.21-2.91-.61-4.71-2.93-4.65-5.84.06-2.75 1.95-5.02 4.75-5.56.9-.17 1.85-.17 2.77-.17 25.75-.01 51.5.09 77.25-.04 14.71-.09 25.67 5.73 32.31 19.25zM347.56 332.63c.23.15.45.31.68.46.14-.33.21-.72.43-.99 6.95-8.41 13.01-17.39 17.59-27.32 7.03-15.25 9.78-31.14 7-47.81-2.53-15.12-8.95-28.57-18.08-40.74-4.06-5.41-8.65-10.42-13.08-15.7-.89.79-1.39 1.18-1.84 1.63-8.12 8.15-15.07 17.19-20.51 27.36-9.98 18.67-13.44 38.29-8.3 59.06 4.14 16.73 12.84 31.04 23.84 44.08.06.07.26.01.57.01V253.8c0-.71-.02-1.43.02-2.14.18-2.62 2.02-4.7 4.6-5.22 3.98-.81 7.05 1.95 7.05 6.41.01 25.81.01 51.63.01 77.44.02.77.02 1.55.02 2.34zm.07 27.13c.94 0 1.57.03 2.19 0 11.17-.55 22.2-1.98 32.96-5.12 20.95-6.12 38.03-17.56 49.5-36.5 8.98-14.82 13.02-31.12 13.95-48.28.15-2.75.02-5.52.02-8.52-.99 0-1.84-.05-2.67.01-6.27.47-12.58.62-18.78 1.5-13.44 1.91-26.05 6.34-37.54 13.7-1.05.67-1.55 1.4-1.69 2.69-1.22 11.18-4.42 21.79-9.28 31.93-6.72 14-15.94 26.21-26.54 37.46-.57.6-1.32 1.31-1.41 2.04-.36 2.95-.49 5.93-.71 9.09zm-110.6-98.6v2.88c.04 9.69 1.18 19.25 3.62 28.63 6.79 26.11 21.61 45.7 46.54 57.01 12.91 5.85 26.58 8.61 40.64 9.69 2.6.2 5.2.3 7.71.45v-5.5c0-2.65-.62-4.93-2.78-6.82-2.03-1.78-3.72-3.96-5.47-6.03-15.17-17.86-26.43-37.61-29.27-61.34-.24-1.99-1.05-3.11-2.7-4.14-13.33-8.28-27.95-12.53-43.43-14.03-4.83-.48-9.68-.54-14.86-.8z"/><path d="M427.1 283.52c-.98 1.57-1.72 3.37-2.96 4.69-14.05 14.85-28.17 29.62-42.28 44.42-1.43 1.5-2.81 3.05-4.3 4.49-2.51 2.43-6.14 2.46-8.46.13-2.3-2.31-2.37-5.76.02-8.28 15.71-16.52 31.45-33.01 47.19-49.51 1.85-1.94 4.08-2.58 6.64-1.59 2.22.85 3.61 2.94 4.15 5.65zm-121.99 52.74c-1.37-.79-3.03-1.31-4.08-2.4-15.79-16.44-31.52-32.95-47.23-49.47-2.41-2.53-2.29-6.21.1-8.45 2.45-2.29 6.03-2.11 8.6.57 12.1 12.65 24.17 25.34 36.26 38.01 3.6 3.78 7.22 7.53 10.79 11.34 1.89 2.02 2.27 4.43 1.14 6.72-1.08 2.19-2.89 3.27-5.58 3.68z"/></svg>