<svg xmlns="http://www.w3.org/2000/svg" viewBox="0 0 800 800"><path d="M10.34 713.46c.7-1.71 1.69-3.36 2.06-5.14 5.94-28.64 21.9-49.75 47.51-63.69 1.04-.57 1.95-1.38 2.85-2.03-18.78-49.24-10.44-86.33 24.78-111.09 30.53-21.46 72.83-19.35 101.25 4.94 28.63 24.47 39.33 67.25 18.24 105.36 9.24 6.78 18.5 13.58 28.39 20.84 13.14-34.08 36.63-59.03 71.64-73.61-20.8-32.59-26.04-67.13-12.91-103.55 8.59-23.83 24.08-42.49 45.44-56.13 42.36-27.05 97.87-22.17 135.35 11.09 35.53 31.53 54.18 92.57 17.9 148.54 34.24 14.45 58.14 39.04 71.35 73.75 9.51-7 18.76-13.81 28.49-20.98-11.81-21.02-14.46-43.78-7.11-67.32 5.56-17.82 16.44-32 31.67-42.82 29.6-21.04 70.07-19.75 99.3 3.18 31.76 24.92 38.82 61.88 20.3 107.86 1.45.89 2.95 1.88 4.51 2.77 24.32 13.77 40.16 34.13 45.46 61.59 2.25 11.68 1.91 23.89 2.45 35.87.32 7.05-.48 14.17.18 21.18 1.02 10.81-1.47 19.64-11.29 25.43H464.04c-.45-.43-.84-.94-1.35-1.28-8.45-5.76-11.25-11.32-9.25-18.41 2.13-7.56 8.17-11.22 18.58-11.23 20.55-.01 41.1 0 61.65-.02 2.2 0 4.4-.2 6.42-.3 0-21.96 1.32-43.39-.29-64.6-2.8-36.89-30.1-68.55-65.83-78.52-2.69-.75-6.67-.07-8.98 1.51-40.24 27.59-90.11 27.58-130.3 0-2.3-1.58-6.35-2.31-8.97-1.49-33.78 10.6-55.79 33.08-64.03 67.51-5.85 24.45-2.2 49.6-2.52 74.45 0 .32.46.64 1.09 1.47h7.02c21.17 0 42.35-.07 63.52.05 7.77.04 13.53 4.43 15.45 11.19 1.84 6.46-.84 12.88-7.11 17.12-1.19.81-2.32 1.71-3.48 2.56H21.55l-11.22-11.22c.01-21.62.01-43.22.01-64.83zm471.75-188.83c0-45.65-36.93-82.51-82.48-82.29-45.46.21-81.93 36.79-81.96 82.18-.03 45.65 36.85 82.44 82.46 82.28 45.41-.17 81.97-36.81 81.98-82.17zM42.51 758.05h185.94c0-12.31.29-24.11-.06-35.9-.71-23.88-16.55-45.47-39.21-53.32-2.6-.9-6.57-.38-8.98 1.04-30.35 17.86-60.46 17.85-90.74-.17-2.26-1.35-6.04-1.89-8.43-.99-20.82 7.77-34.85 22.5-38.12 44.49-2.16 14.55-.4 29.67-.4 44.85zm715.89.2c0-12.2.24-23.99-.05-35.76-.6-24.05-16.71-46-39.54-53.75-2.47-.84-6.2-.42-8.45.93-30.51 18.17-60.79 18.11-91.27-.08-2.23-1.33-6.01-1.67-8.46-.79-17.38 6.3-29.41 18.33-35.83 35.66-6.48 17.48-2.59 35.6-3.7 53.79h187.3zM135.52 547.18c-29.25-.29-52.99 22.86-53.31 51.99-.32 29.55 23.01 53.32 52.46 53.48 29.2.15 52.79-23.12 53.03-52.32a52.548 52.548 0 00-52.18-53.15zm529.24 105.46c29.21 0 52.69-23.39 52.77-52.57.08-29.24-23.21-52.75-52.41-52.9-29.5-.15-53.14 23.38-53.11 52.85.04 29.14 23.58 52.62 52.75 52.62zM10.34 46.61c1.05-2.2 2.29-4.32 3.12-6.6 6.35-17.36 23.12-29.47 41.51-29.47 229.92-.04 459.84-.05 689.76.01 24.16.01 44.51 20.36 44.55 44.54.11 65.42.09 130.85.01 196.27-.03 23.93-18.46 43.15-42.52 44.32-9.53.46-19.11.36-28.65.07-4.68-.14-6.07 1.46-6.05 6.06.09 17.65-.3 35.31-.25 52.96.02 7.45-.93 14.26-8.33 18.05-7.36 3.77-13.43.77-19.49-3.7-31.59-23.29-63.25-46.5-95.08-69.46-3.09-2.23-7.51-3.63-11.32-3.66-36.35-.27-72.69-.05-109.04-.29-5.03-.03-7.85 1.71-10.57 5.74-14.27 21.18-28.8 42.19-43.29 63.22-9.28 13.47-20.39 13.47-29.66 0-14.48-21.04-28.99-42.06-43.27-63.24-2.71-4.01-5.55-5.76-10.58-5.73-36.35.23-72.69.02-109.04.29-3.81.03-8.22 1.48-11.31 3.7-32 23.08-63.84 46.39-95.61 69.79-5.94 4.37-11.93 6.89-18.99 3.29-6.86-3.49-8.31-9.69-8.3-16.8.02-18.07-.34-36.14-.25-54.21.02-4.62-1.44-6.2-6.08-6.03-8.3.31-16.61.14-24.92.07-21.88-.18-37.08-11.16-44.12-31.72-.52-1.52-1.47-2.9-2.22-4.35-.01-71.03-.01-142.07-.01-213.12zm669.72 281.81c.63-.24 1.26-.48 1.9-.72 0-14.7-.08-29.41.02-44.11.09-12.68 5.59-18.07 18.38-18.14 13.5-.07 27.01.01 40.51-.03 13.22-.04 17.59-4.39 17.59-17.52.01-62.94.01-125.89 0-188.83 0-13.56-4.21-17.68-18-17.68-45.91-.01-91.82 0-137.73 0H58.68c-12.7 0-17.36 4.39-17.37 16.42-.02 63.77-.02 127.55 0 191.32 0 11.48 4.71 16.19 16.32 16.27 14.13.09 28.25-.05 42.38.06 12.01.09 17.58 5.61 17.77 17.49.2 12.67.24 25.34.38 38.01.03 2.34.21 4.69.38 8.11 2.91-1.99 4.77-3.2 6.57-4.51 24.65-18.02 49.16-36.23 74.05-53.92 4.1-2.91 9.82-4.94 14.81-4.99 42.79-.39 85.58-.13 128.38-.3 8.09-.03 13.7 3.08 18.16 9.75 11.55 17.26 23.43 34.3 35.2 51.41 1.23 1.78 2.56 3.49 4.18 5.68 1.73-2.36 2.98-3.98 4.14-5.67 11.77-17.12 23.67-34.14 35.19-51.42 4.47-6.71 10.09-9.76 18.16-9.73 42.79.16 85.59-.09 128.38.3 5 .04 10.66 2.1 14.82 4.96 15.57 10.7 30.65 22.13 45.91 33.27 11.18 8.18 22.37 16.35 33.57 24.52z"/><path d="M395.49 789.5c-1.45-1.13-2.89-2.27-4.37-3.37-5.59-4.19-7.8-10.85-5.62-17.05 2.16-6.14 7.8-10.33 14.07-10.44 6.51-.12 12.47 4.14 14.67 10.48 2.17 6.24-.03 12.87-5.64 17.04-1.48 1.1-2.93 2.23-4.4 3.35-2.89-.01-5.8-.01-8.71-.01zM497.15 95.83c63.53 0 127.07 0 190.6.01 2.49 0 4.99-.05 7.47.14 8.15.65 14.08 6.67 14.37 14.46.28 7.68-5.35 14.34-13.31 15.54-2.24.34-4.56.24-6.84.24-128.52.01-257.04.02-385.56-.03-3.28 0-6.7-.13-9.83-1.02-6.75-1.92-10.89-8.33-10.39-15.21.52-7.16 5.81-12.95 12.94-13.85 2.87-.36 5.8-.27 8.71-.27 63.95-.01 127.89-.01 191.84-.01zM303.93 180.6c63.53 0 127.06 0 190.6.01 2.9 0 5.83-.02 8.7.36 7.2.97 12.37 6.7 12.83 13.9.45 7.15-4.05 13.58-11.08 15.32-2.58.64-5.34.76-8.01.76-129.14.03-258.28.04-387.42 0-2.88 0-5.86-.14-8.62-.86-6.69-1.75-11.09-8.12-10.78-14.96.32-7.12 5.53-13.09 12.63-14.1 3.06-.44 6.21-.41 9.32-.41 63.93-.03 127.88-.02 191.83-.02zm-142.7-84.74c18.69 0 37.39-.15 56.07.06 10.92.12 17.84 8.55 15.63 18.4-1.7 7.57-7.57 11.85-16.75 11.88-20.56.07-41.12.03-61.68.02-16.2 0-32.4.11-48.6-.07-7.6-.08-12.98-4.23-15.06-10.85-1.92-6.12.06-13.26 5.67-16.38 3.43-1.91 7.79-2.89 11.76-2.95 17.65-.31 35.3-.13 52.96-.13v.02zm476.71 115.13c-18.06 0-36.12-.02-54.19.01-6.17.01-11.51-1.63-14.98-7.14-5.82-9.23-.35-21.27 10.43-22.87 2.45-.36 4.97-.36 7.45-.37 34.26-.02 68.51-.03 102.77 0 2.69 0 5.43.03 8.07.48 6.74 1.16 11.73 7.06 12.09 13.95.34 6.53-3.83 12.97-10.11 14.86-2.73.82-5.72 1.02-8.59 1.03-17.64.09-35.29.05-52.94.05z"/></svg>