<svg xmlns="http://www.w3.org/2000/svg" viewBox="0 0 800 800"><path d="M500.38 186c1.11.41 2.19.89 3.32 1.23 11.07 3.33 18.97 12.72 19.12 24.25.32 24 .15 48 .11 72-.01 3.53-2.38 5.77-5.54 5.67-3.13-.1-5.11-2.35-5.11-6.06-.02-22.51-.01-45.02-.02-67.54 0-12.61-6.02-18.67-18.52-18.67H317.61c-7.51 0-5.95.04-5.99 6.12-.08 13.69-.01 27.37-.03 41.06-.02 12.84-7.53 20.38-20.31 20.4-14.38.02-28.76 0-43.14 0h-3.73c-.12 1.82-.3 3.28-.3 4.74-.01 84.79-.02 169.58 0 254.38 0 10.62 6.47 17.1 17.03 17.1 77.95.01 155.9.01 233.84 0 10.74 0 17.22-6.5 17.27-17.21.01-1.98-.07-3.97.05-5.95.16-2.81 2.22-4.89 4.87-5.12 2.6-.22 5.25 1.58 5.59 4.32 2.04 16.86-4.87 30.77-22.09 34.3-1.73.35-3.55.33-5.33.33-78.15.01-156.29.02-234.44.01-15.79 0-27.01-10.92-27.53-26.68-.04-1.19-.02-2.38-.02-3.57 0-83.11.07-166.21-.1-249.32-.02-10.32 3.3-18.47 10.71-25.67 16.92-16.45 33.49-33.27 50.12-50.02 4.35-4.38 9.1-7.93 15.25-9.31.44-.1.81-.52 1.21-.8 63.29.01 126.56.01 189.84.01zm-199.67 19.91l-47.73 47.73c-.19-.15-.05.06.1.06 13.48.02 26.96.11 40.44-.04 3.89-.04 7.04-2.7 7.1-6.35.23-13.93.09-27.86.09-41.4z"/><path d="M480.3 477.42c0-7.63-.04-15.27.03-22.9.02-1.82-.33-2.72-2.39-3.24-9.1-2.3-15.28-9.67-16.01-19.2-.41-5.37-2.92-8.73-7.81-10.83-12.74-5.48-17.25-19.28-10.15-31.16 2.74-4.59 2.76-8.77.02-13.37-7.12-11.94-2.67-25.58 10.1-31.16 4.85-2.12 7.39-5.45 7.84-10.83 1.14-13.57 12.93-22.29 26.23-19.33 5.62 1.25 9.7-.24 13.44-4.49 8.78-9.97 23.46-9.86 32.16.19 3.65 4.22 7.75 5.52 13.22 4.31 13.24-2.95 24.84 5.53 26.15 19.01.54 5.52 3.04 9.06 8.19 11.26 12.38 5.29 16.91 19.23 10.02 30.76-2.86 4.79-2.88 9.11-.01 13.91 6.89 11.52 2.38 25.51-9.99 30.79-5.3 2.26-7.78 5.9-8.25 11.53-.77 9.11-6.75 16.24-15.56 18.55-2.27.6-2.73 1.58-2.72 3.65.06 14.87.07 29.75.02 44.62-.03 6.99-4.01 11.94-10.32 12.24-2.5.12-5.33-.73-7.56-1.96-5.8-3.21-11.41-6.8-16.98-10.4-1.77-1.14-3.04-1.08-4.79.04-5.5 3.54-11.14 6.86-16.69 10.32-4.02 2.52-8.17 3.07-12.37.69-4.19-2.38-5.88-6.21-5.85-10.95.07-7.38.03-14.72.03-22.05zm37.35-24.96c3.5-.05 6.25-1.55 8.49-4.21 5.93-7.02 13.37-9.49 22.36-7.47 7.91 1.77 13.33-2.07 14.1-10.09.89-9.28 5.53-15.64 14.16-19.2 6.75-2.78 9.09-9.74 5.3-15.93-5.01-8.17-5.03-16.18-.01-24.35 3.74-6.08 1.57-13.08-5.01-15.8-8.98-3.72-13.67-10.27-14.52-19.92-.64-7.25-6.39-11.31-13.4-9.65-9.31 2.21-16.95-.24-23.19-7.52-4.78-5.58-11.96-5.54-16.77.08-6.25 7.3-13.93 9.64-23.22 7.41-6.85-1.64-12.88 2.75-13.38 9.79-.66 9.46-5.29 15.91-13.99 19.6-7.13 3.03-9.25 9.7-5.24 16.35 4.76 7.89 4.77 15.7.02 23.59-4.09 6.81-1.88 13.38 5.43 16.5 8.46 3.6 13.07 9.94 13.73 19.15.52 7.28 6.32 11.77 13.38 10.12 9.43-2.21 17.21.17 23.41 7.65 2.16 2.6 4.97 3.87 8.35 3.9zm-26.34-1.52v50.42c1.38-.76 2.33-1.24 3.23-1.79 5.49-3.36 11-6.69 16.45-10.12 4.4-2.77 8.73-2.78 13.13-.06 5.56 3.44 11.13 6.85 16.71 10.26.87.53 1.8.96 3.11 1.65v-50.22c-4.06-.45-6.38.78-9.6 3.9-2.45 2.38-5.1 4.83-8.13 6.28-8.55 4.1-18.39 1.74-24.81-5.56-2.67-3.04-5.6-5.29-10.09-4.76zm-80.63-227.8c17.75 0 35.49-.01 53.24 0 9.11.01 13.65 4.59 13.67 13.76.01 4.96.05 9.91-.01 14.87-.09 7.56-4.93 12.63-12.44 12.65-24.69.08-49.37.03-74.06.04-2.84 0-5.11-.94-6.04-3.82-.75-2.32-.13-4.55 1.94-5.73 1.44-.82 3.36-1.1 5.07-1.1 23.4-.07 46.8-.05 70.19-.05 4.65 0 4.65 0 4.65-4.78 0-4.06-.08-8.13.03-12.19.06-2.14-.61-2.99-2.87-2.99-35.59.05-71.18.05-106.78.01-2.04 0-2.83.7-2.79 2.77.1 4.76.1 9.52 0 14.28-.05 2.23.86 3.01 3 2.92 2.47-.1 4.96-.08 7.43.01 3.14.12 5.4 2.3 5.49 5.13.09 2.8-2.09 5.3-5.19 5.45-3.56.17-7.16.27-10.69-.09-6.28-.63-10.55-5.48-10.68-11.87-.11-5.55-.08-11.1-.02-16.66.08-7.76 4.92-12.59 12.7-12.61 18.07-.02 36.11 0 54.16 0zm-63.23 140.79h-65.72c-.99 0-1.99.04-2.97-.05-2.92-.26-5.03-2.48-5.04-5.25-.01-2.64 1.93-4.88 4.7-5.3.97-.15 1.98-.1 2.97-.1h132.33c1.09 0 2.2-.04 3.26.17 2.74.55 4.45 2.88 4.26 5.61-.18 2.55-2.13 4.56-4.79 4.85-.98.1-1.98.06-2.97.06-22.02.01-44.02.01-66.03.01zm.3 26.89h65.72c1.09 0 2.2-.05 3.26.11 2.71.42 4.59 2.75 4.51 5.43-.08 2.57-1.93 4.66-4.57 5.07-.78.12-1.58.08-2.37.08H280.78c-.89 0-1.8.04-2.67-.12-2.6-.48-4.41-2.7-4.4-5.25a5.32 5.32 0 014.46-5.2c1.16-.19 2.37-.13 3.56-.13 22.01 0 44.02.01 66.02.01zm-.3-75.12h66.01c1.09 0 2.2-.07 3.26.12 2.65.46 4.24 2.05 4.49 4.78.24 2.67-1.32 4.88-3.96 5.5-1.14.27-2.36.29-3.54.29-44.1.01-88.21.01-132.31.01h-.89c-4.29-.07-6.8-2.07-6.79-5.4.01-3.34 2.5-5.29 6.84-5.29 22.29-.02 44.59-.01 66.89-.01zm.02 123.44h-66.01c-5.11 0-7.72-1.81-7.75-5.32-.03-3.55 2.55-5.38 7.66-5.38h132.32c1.09 0 2.2-.03 3.26.18 2.67.53 4.17 2.23 4.27 4.95.1 2.73-1.3 4.55-3.9 5.26-1.22.33-2.55.3-3.83.3-22.01.02-44.01.01-66.02.01zm-33.92 44.38c11.1 0 22.19-.02 33.29.02 4.04.01 6.48 2.48 6.07 5.95-.33 2.84-2.52 4.68-5.88 4.71-6.74.06-13.47.02-20.21.02-15.46 0-30.91.07-46.37-.09-1.87-.02-4.3-.83-5.43-2.16-1-1.18-1.3-4-.55-5.35.82-1.48 3.16-2.87 4.89-2.95 7.02-.33 14.06-.14 21.1-.15h13.09z"/><path d="M517.47 338.58c24.62-.09 44.79 19.88 44.9 44.44.11 24.85-19.77 45.01-44.5 45.14-24.75.13-44.95-19.86-45.09-44.6-.14-24.67 19.94-44.89 44.69-44.98zm34.19 44.91c.05-18.85-14.99-34.03-33.88-34.2-18.82-.17-34.3 15.23-34.3 34.12 0 18.74 15.3 34.02 34.07 34.05 18.81.03 34.06-15.17 34.11-33.97z"/></svg>