<svg xmlns="http://www.w3.org/2000/svg" viewBox="0 0 800 800"><path d="M584.22 14c4.88 1.65 10.04 2.76 14.6 5.04 20.83 10.44 31.84 27.65 32.01 50.84.38 49.16.14 98.32.1 147.48-.01 7.94-4.69 13.03-11.53 12.91-6.76-.12-10.96-4.94-10.97-12.87-.03-48.72.01-97.43-.04-146.15-.01-15.57-7.73-27.74-21.31-32.69-4.47-1.63-9.52-2.31-14.31-2.31-125.71-.12-251.42-.1-377.14-.09-1.33 0-2.67.12-4 .04-4.15-.26-5.61 1.46-5.59 5.76.16 31.83.03 63.67.1 95.51.03 13.45-4.76 24.54-15.48 32.85-7.57 5.87-16.33 8.02-25.78 8-31.54-.04-63.08-.02-94.62-.01-5.82 0-5.87.06-6.09 5.91a80.64 80.64 0 00-.05 3.11c0 179.17.01 358.33-.03 537.5 0 12.34 4.38 22.57 14.96 28.93 5.11 3.07 11.54 3.98 17.41 5.74 1.09.33 2.36.07 3.54.07 164.06 0 328.12-.02 492.19.05 8.59 0 16.46-1.73 23.27-7.1 8.29-6.54 12.5-15.22 12.88-25.72.19-5.18-.05-10.37.13-15.54.22-6.3 4.5-10.76 10.43-11.21 5.51-.41 11.2 3.53 11.64 9.4 1.16 15.45 1.28 30.94-7.28 44.79-11.21 18.15-27.34 27.53-49 27.51-91.36-.11-182.72-.05-274.08-.05-74.33 0-148.66.04-222.99-.03-24.88-.02-45.34-14.69-52.79-38.44-2.08-6.63-2.65-13.97-2.65-20.98-.14-149.26-.11-298.51-.11-447.77 0-28.73.23-57.45-.08-86.18-.19-17.64 6.02-32.17 18.46-44.53C75.1 108.91 110.13 74 144.88 38.81c11.32-11.47 23.08-21.69 39.5-24.78C317.66 14 450.94 14 584.22 14zM62.03 155.61c1.15.05 2.57.18 3.99.18 25.74.01 51.49.01 77.23.01 14.35-.01 20.37-5.93 20.38-20.12.02-25.89.01-51.78 0-77.68 0-1.4-.15-2.79-.21-3.77-33.78 33.78-67.48 67.47-101.39 101.38z"/><path d="M541.21 626.19c0-16.43-.06-32.87.06-49.3.02-3.2-.82-4.51-4.25-5.23-18.74-3.91-33.18-20.62-34.47-40.3-.75-11.53-6.13-18.76-16.67-23.28-26.8-11.51-36.14-40.9-21.03-65.79 5.67-9.34 5.73-18.12.06-27.48-15.15-24.97-5.94-54.15 20.89-65.82 10.47-4.55 15.96-11.69 16.75-23.25 1.96-28.65 29.64-47.2 55.41-40.33 11.65 3.11 20.26-.46 27.9-9.33 14.49-16.83 38.48-20.47 57.15-8.85 4.08 2.54 7.84 5.9 10.98 9.54 7.18 8.32 15.45 11.41 26.45 8.85 25.67-5.97 48.65 7.87 55.11 32.72.81 3.13 1.04 6.42 1.36 9.65.98 9.96 6.16 16.55 15.4 20.39 20.1 8.37 30.93 25.28 28.81 46.55-.66 6.67-3.36 13.55-6.7 19.45-5.46 9.65-5.78 18.42 0 27.95 15.22 25.1 5.34 55.09-21.82 66.25-9.66 3.97-15.23 10.73-15.66 21.07-.87 20.78-16.12 38.59-36.04 42.31-3.21.6-2.83 2.9-2.83 5.09-.01 14.95-.01 29.91-.01 44.86 0 17.32.09 34.64-.04 51.96-.1 13.57-8.34 23.12-21.21 24.85-5.99.8-11.4-.96-16.46-4.09-12.21-7.55-24.47-15-36.61-22.66-2.83-1.79-4.94-2.05-7.96-.12-11.97 7.65-24.2 14.88-36.24 22.42-8.46 5.29-17.17 6.51-26.03 1.54-8.84-4.96-12.41-12.98-12.32-22.99.13-15.53.02-31.08.02-46.63zm217.95-233.62c-.58-11.79-4.92-19.13-13.87-22.69-19.36-7.71-29.45-21.7-31.14-42.39-1.22-14.89-13.84-23.6-28.34-20.05-19.46 4.78-35.55-.46-48.53-15.74-9.94-11.7-25.45-11.71-35.45.06-13 15.31-29.1 20.42-48.54 15.66-14.48-3.55-27.51 5.86-28.47 20.59-1.31 20.05-11.22 33.74-29.77 41.34-14.19 5.81-19.1 20.56-11.03 33.67 10.51 17.08 10.48 33.94-.02 51.01-8.06 13.08-3.16 27.84 11.09 33.67 18.58 7.6 28.49 21.29 29.74 41.34.47 7.56 3.93 13.54 10.28 17.76 6.41 4.26 13.22 4.11 20.46 2.44 17.92-4.13 33.06.98 45.13 14.78 11.77 13.45 25.94 13.43 37.86-.08 12.12-13.74 27.19-18.67 45.19-14.81 3.7.79 7.69 1.5 11.37.98 11.15-1.57 18.18-9.4 19.14-21.14 1.65-20.11 11.52-33.9 30.35-41.49 13.66-5.5 18.58-20.55 10.79-33.14-10.65-17.21-10.81-34.13-.22-51.41 2.23-3.65 3.15-8.11 3.98-10.36zM563.71 676.76c2.51-1.18 3.98-1.71 5.28-2.51 12.12-7.39 24.3-14.71 36.29-22.3 9.51-6.02 18.82-6.14 28.34-.23 12.07 7.49 24.16 14.93 36.3 22.3 1.39.84 3.14 1.09 4.72 1.61.3-1.54.85-3.09.85-4.63.05-31.82.04-63.65.04-95.47 0-5.19-.7-5.81-6.01-4.96-6.65 1.07-11.48 4.97-15.73 10-7.79 9.24-17.77 14.57-29.87 15.59-15.72 1.33-28.76-4.08-38.97-16.08-4.28-5.03-9.24-8.65-15.93-9.62-3.79-.55-5.47.25-5.44 4.77.21 31.97.11 63.94.11 95.91.01 1.45.02 2.89.02 5.62zM395.02 91.33c37.6 0 75.2-.01 112.8 0 17.45.01 27.5 10.06 27.55 27.56.03 11.1.08 22.21-.02 33.31-.14 15.22-10.78 26.01-26.08 26.04-52.11.1-104.22.05-156.33.02-6.81 0-11.39-3.36-12.68-8.94-1.1-4.73 1.27-10.23 5.96-12.19 2.61-1.09 5.74-1.29 8.64-1.29 50.18-.07 100.37-.05 150.55-.05 7.41 0 7.48-.06 7.48-7.4v-26.65c0-7.89 0-7.9-7.69-7.9H284.03c-1.18 0-2.37.05-3.55.01-2.82-.09-4.01 1.33-4 4.06.02 11.1.03 22.21-.01 33.31-.01 3.18 1.47 4.59 4.6 4.57 5.48-.04 10.96-.07 16.43.02 7.37.12 12.33 4.62 12.37 11.09.04 6.45-4.96 11.29-12.25 11.31-7.83.02-15.76.31-23.46-.78-11.02-1.57-19.39-10.78-19.86-21.93-.58-13.74-.67-27.54-.02-41.28.64-13.6 11.57-22.87 25.72-22.88 38.34-.03 76.68-.01 115.02-.01zM262.17 444.21h138.55c1.92 0 3.86-.05 5.77.11 5.88.5 10.2 5.03 10.38 10.76.18 5.75-3.81 10.58-9.62 11.49-1.45.23-2.95.17-4.43.17-94.14.01-188.28.04-282.42-.12-3.45-.01-7.38-1.2-10.22-3.12-3.63-2.46-4.62-6.71-3.27-11.15 1.39-4.56 4.54-7.21 9.18-7.94 2.03-.32 4.13-.2 6.2-.2h139.88zm-.57 79.14c46.62 0 93.24-.01 139.86.01 2.07 0 4.16 0 6.19.31 5.3.81 8.97 5.05 9.19 10.38.22 5.38-2.99 9.92-8.19 11.2-1.98.49-4.1.62-6.15.62-93.83.03-187.67.02-281.5.02h-.89c-8.34-.1-13.69-4.48-13.75-11.25-.06-6.81 5.23-11.27 13.6-11.28 47.21-.02 94.43-.01 141.64-.01zm.01-237.27c46.62 0 93.24 0 139.86.01 2.07 0 4.16-.02 6.19.3 5.35.85 8.98 5.06 9.19 10.38.22 5.57-3.19 10.18-8.62 11.3-2.15.44-4.41.53-6.61.53-93.24.03-186.48.03-279.72 0-2.21 0-4.46-.08-6.62-.51-5.34-1.07-9.11-5.93-8.9-11.18.2-5.16 3.99-9.61 9.19-10.49 2.02-.34 4.12-.33 6.19-.33 46.61-.01 93.23-.01 139.85-.01zm-.42 101.46c-46.62 0-93.25.01-139.87-.03-2.63 0-5.41-.05-7.87-.85-4.59-1.49-7.51-6.56-7.05-11.21.53-5.33 4.59-9.51 10.11-10.25 1.6-.21 3.25-.15 4.88-.15 93.54-.01 187.09-.01 280.63.02 2.34 0 4.79.07 7.01.72 5.38 1.56 8.35 6.37 7.76 11.93-.57 5.35-4.78 9.32-10.39 9.72-1.77.13-3.55.09-5.33.09-46.63.01-93.26.01-139.88.01zm-71 251.73c22.94 0 45.87-.02 68.81.03 2.34.01 4.81.05 6.99.77 4.85 1.6 7.72 6.55 7.16 11.53-.56 5.03-4.27 9-9.36 9.93-1.15.21-2.36.21-3.54.21-46.91.01-93.82.01-140.73-.02-1.75 0-3.58-.16-5.23-.68-5.29-1.65-8.58-6.82-7.83-11.95.79-5.44 4.93-9.32 10.48-9.73 1.77-.13 3.55-.1 5.32-.1 22.65 0 45.29.01 67.93.01z"/><path d="M619.32 522.73c-51.8-.11-94.07-42.45-94.03-94.19.03-52.02 42.51-94.45 94.4-94.29 52.38.16 94.43 42.52 94.19 94.88-.24 51.78-42.6 93.71-94.56 93.6zm.46-22.54c39.73-.14 71.67-32.21 71.56-71.85-.11-39.68-32.21-71.61-71.9-71.54-39.54.08-71.86 32.51-71.63 71.88.23 39.68 32.41 71.65 71.97 71.51z"/></svg>