<?xml version="1.0" encoding="utf-8"?>
<!-- Generator: Adobe Illustrator 25.4.1, SVG Export Plug-In . SVG Version: 6.00 Build 0)  -->
<svg version="1.1" id="Слой_1" xmlns="http://www.w3.org/2000/svg" xmlns:xlink="http://www.w3.org/1999/xlink" x="0px" y="0px"
	 viewBox="0 0 800 800" style="enable-background:new 0 0 800 800;" xml:space="preserve">
<g id="ygiFLh.tif">
	<g>
		<path d="M265.57,31c10.62,10.12,22.1,19.5,31.7,30.52c24.92,28.59,42.42,61.26,50.39,98.64c0.89,4.16,1.63,8.36,2.25,12.57
			c0.59,4.04,0.93,8.13,1.43,12.69c1.31-0.54,2.46-0.92,3.53-1.47c40.48-20.86,83.57-28.9,128.83-26.15
			c7.76,0.47,11.7,3.99,12.31,11.9c2.65,34.44-1.66,68.08-13.43,100.52c-24.04,66.3-71.78,106.2-139.35,123.55
			c-21.18,5.44-42.78,8.08-64.61,8.93c-1.28,0.05-2.55,0.18-4.08,0.29c0,16.92,0,33.55,0,49.92c11.76,1.96,23.4,3.59,34.89,5.94
			c7.35,1.5,14.43,4.27,21.73,6.06c5.48,1.34,11.11,2.82,16.68,2.86c36.39,0.25,72.78,0.18,109.17,0.03
			c2.92-0.01,6.16-0.88,8.71-2.32c22.99-12.89,45.6-26.51,68.88-38.85c13.64-7.23,17.87-18.12,16.06-32.11
			c-2.17-16.79-10.42-30.23-24.9-39.33c-9.92-6.23-19.76-6.73-30.44-0.42c-44.4,26.25-89.06,52.07-133.7,77.9
			c-2.84,1.64-6.39,2.85-9.61,2.86c-5.22,0.01-9.21-4-10.38-8.96c-1.19-5.06,1.1-10.08,6.35-13.16
			c16.38-9.62,32.81-19.15,49.23-28.71c29.29-17.06,58.67-33.97,87.84-51.22c13.87-8.2,28.04-9.14,42.88-3.54
			c32.78,12.37,53.86,53.14,44.61,86.23c-3.47,12.42-10.61,21.97-21.91,28.35c-11.69,6.6-23.34,13.28-35,19.94
			c-1.37,0.78-2.71,1.63-3.97,3.44c1.85,0,3.69,0,5.54,0c66.39,0,132.77,0.01,199.16,0c18.57,0,35.65,4.56,50.41,16.28
			c28.74,22.82,29.76,60.89,2.21,85.15c-2.34,2.06-3.2,3.84-2.86,7.03c3.04,28.42-12.03,52.95-38.74,63.07
			c-3.17,1.2-4.38,2.62-4.83,6.08c-2,15.29-9.5,27.68-21.23,37.59c1.31,4.65,3.01,9.1,3.78,13.71c4.67,27.86-11.55,54.02-39.77,64.7
			c-9.21,3.49-18.72,4.23-28.47,4.22c-141.62-0.08-283.25-0.05-424.87-0.05c-63.6,0-127.2-0.16-190.8,0.17
			c-8.65,0.04-15.34-8.95-10.97-16.41c1.69-2.88,5.32-4.99,8.52-6.5c2.18-1.03,5.15-0.49,7.77-0.49
			c203.42-0.01,406.85-0.03,610.27,0.02c10.22,0,19.86-1.74,28.59-7.32c22.63-14.45,22.61-43.08-0.05-57.51
			c-8.57-5.46-18.04-7.42-28.09-7.41c-67.21,0.03-134.41,0.02-201.62,0.02c-1.64,0-3.28,0.05-4.92-0.02
			c-6.57-0.29-11.52-5.29-11.57-11.63c-0.05-6.09,4.63-11.24,10.9-11.87c1.79-0.18,3.6-0.09,5.41-0.09
			c63.44,0,126.88,0.29,190.31-0.16c22.38-0.16,43.59,1.96,61.03,17.96c10.12-9.29,14.89-20.14,11.85-33.35
			c-3.48-15.08-13.86-23.73-28.32-27.63c-4.35-1.17-9.07-1.34-13.63-1.35c-52.78-0.09-105.56-0.05-158.35-0.06
			c-9.29,0-14.68-4.6-14.48-12.24c0.15-5.91,4.38-10.58,10.3-11.21c1.95-0.21,3.93-0.15,5.89-0.15
			c52.29-0.01,104.58,0.01,156.87-0.01c28.16-0.01,49.12,11.8,61.72,37.42c0.21,0.42,0.57,0.77,0.85,1.15
			c14.98-5.84,24.6-19.92,23.61-34.52c-1.09-16.08-12.93-29.58-29.51-33.16c-4.28-0.92-8.77-1.14-13.17-1.15
			c-79.01-0.07-158.02-0.04-237.03-0.05c-9.16,0-14.49-4.75-14.14-12.51c0.26-5.89,4.65-10.52,10.53-11
			c1.79-0.15,3.6-0.07,5.41-0.07c77.7,0,155.4,0,233.09,0c26.21,0,38.95,5.52,56.76,24.6c9.46-5.82,13.23-21.68,7.64-33.4
			c-6.13-12.85-17.23-19.39-30.53-22.48c-5.05-1.17-10.39-1.58-15.59-1.59c-109.33-0.09-218.67-0.07-328-0.06
			c-1.57,0-3.13,0.15-5.28,0.26c6.84,5.83,13.37,10.96,19.41,16.63c29.92,28.07,50.03,61.96,59.86,101.86
			c1.87,7.58-1.4,13.89-7.94,15.54c-7.07,1.79-12.83-1.95-14.94-9.76c-16.36-60.7-53.14-104-111.76-126.9
			c-101.94-39.82-213.67,18.23-242.3,124.89c-0.34,1.26-0.62,2.55-1.04,3.79c-2.11,6.3-7.97,9.55-14.35,7.99
			c-5.9-1.44-10.3-7.45-8.34-13.53c4.86-15.06,9.38-30.39,16.09-44.65c14.44-30.65,36.27-55.52,63.69-75.45
			c1.02-0.74,1.99-1.54,3.75-2.9c-2.4-0.17-3.93-0.35-5.46-0.38c-38.35-0.65-76.7-1.28-115.05-1.93c-2.12-0.04-4.29-0.03-6.35-0.45
			c-6.29-1.27-10.29-6.77-9.57-12.88c0.72-6.15,5.52-10.37,12.28-10.31c17.86,0.16,35.73,0.48,53.59,0.76
			c37.69,0.59,75.39,1.19,113.08,1.76c1.45,0.02,3.01-0.03,4.36-0.52c18.61-6.71,37.83-10.44,57.91-11.82c0-16.88,0-33.62,0-50.24
			c-12.77-1.23-25.35-2.01-37.8-3.72c-47.01-6.46-89.81-22.55-124.35-56.43C57.51,313.3,40.49,276.3,32.51,234.79
			c-4.04-21-5.58-42.19-4.03-63.58c0.66-9.07,4.29-12.95,13.46-13.47c44.93-2.58,87.69,5.48,127.87,26.17
			c0.98,0.5,2.01,0.91,3.21,1.45c1.36-8.49,2.28-16.78,4.04-24.88c11.1-50.88,38.52-91.87,76.98-126.09
			c1.43-1.27,3.09-2.27,4.65-3.4C260.98,31,263.27,31,265.57,31z M274.25,325.21c80.15-90.73,65.41-192.55-12.02-265.85
			c-34.16,31.62-67.25,84.77-65.45,142.03c1.5,47.9,22.9,87.31,52.51,123.09c0.44-0.1,0.87-0.2,1.31-0.3c0-1.73,0-3.45,0-5.18
			c0-50.78,0-101.56,0.01-152.34c0-1.96-0.05-3.94,0.16-5.89c0.55-5.16,4.23-9.04,9.33-10.02c8.21-1.57,14.15,4.15,14.15,13.75
			c0.02,51.27,0.01,102.54,0.01,153.82C274.25,320.27,274.25,322.22,274.25,325.21z M473.38,180.99c-2.39-0.13-4-0.37-5.58-0.28
			c-9.48,0.52-19,0.71-28.43,1.77c-29.97,3.35-58.22,11.98-83.99,28.09c-3.25,2.03-4.38,4.5-5.17,8.09
			c-3.27,14.81-5.82,29.93-10.79,44.18c-12.57,36.03-34.85,66.08-60.72,93.66c-1.21,1.28-2.93,2.7-3.12,4.21
			c-0.72,5.94-0.92,11.95-1.33,18.33c2.55,0,4.48,0.09,6.4-0.01c20.15-1.11,40.1-3.62,59.62-8.9
			c43.68-11.82,79.59-34.66,103.74-73.87c17.09-27.75,25.44-58.29,28.14-90.53C472.83,197.64,472.97,189.5,473.38,180.99z
			 M249.94,379.49c0-4.52-0.05-8.24,0.01-11.97c0.08-4.97-1.8-8.77-5.15-12.66c-10.89-12.65-21.9-25.3-31.57-38.87
			c-20.43-28.66-34.31-60.28-38.56-95.51c-0.68-5.65-2.97-8.57-7.51-11.29c-34.32-20.58-71.92-28.12-111.38-28.58
			c-3.84-0.04-4.17,1.79-4.15,4.82c0.13,19.9,2.36,39.55,7.39,58.81c12.61,48.26,38.97,86.1,83.79,109.79
			c24.8,13.11,51.49,19.92,79.19,23.08C231.23,378.18,240.5,378.71,249.94,379.49z"/>
		<path d="M326.4,338.32c-9.82-1.29-15.28-10.93-10.69-18.78c0.82-1.39,1.94-2.63,3.07-3.81c30.82-32.4,61.68-64.77,92.49-97.19
			c3.61-3.79,7.55-6.25,13.03-4.85c8.18,2.1,11.61,11.5,6.63,18.34c-0.96,1.32-2.13,2.49-3.25,3.67
			c-30.5,32.03-60.96,64.1-91.59,96.01C333.44,334.48,329.65,336.15,326.4,338.32z"/>
		<path d="M188.98,331.92c-2.86-1.65-6.31-2.74-8.5-5.02c-31.66-32.97-63.17-66.08-94.66-99.22c-5.37-5.65-5.26-12.66-0.09-17.45
			c5.06-4.68,12.08-4.23,17.45,1.4c23.31,24.41,46.55,48.88,69.82,73.33c8.13,8.54,16.29,17.07,24.42,25.61
			c3.77,3.96,4.77,8.57,2.59,13.57C198.06,328.58,194.41,330.82,188.98,331.92z"/>
	</g>
</g>
</svg>
