<?xml version="1.0" encoding="utf-8"?>
<!-- Generator: Adobe Illustrator 25.4.1, SVG Export Plug-In . SVG Version: 6.00 Build 0)  -->
<svg version="1.1" id="Слой_1" xmlns="http://www.w3.org/2000/svg" xmlns:xlink="http://www.w3.org/1999/xlink" x="0px" y="0px"
	 viewBox="0 0 800 800" style="enable-background:new 0 0 800 800;" xml:space="preserve">
<g id="_x31_FlQd5.tif">
	<g>
		<path d="M10.34,713.46c0.7-1.71,1.69-3.36,2.06-5.14c5.94-28.64,21.9-49.75,47.51-63.69c1.04-0.57,1.95-1.38,2.85-2.03
			c-18.78-49.24-10.44-86.33,24.78-111.09c30.53-21.46,72.83-19.35,101.25,4.94c28.63,24.47,39.33,67.25,18.24,105.36
			c9.24,6.78,18.5,13.58,28.39,20.84c13.14-34.08,36.63-59.03,71.64-73.61c-20.8-32.59-26.04-67.13-12.91-103.55
			c8.59-23.83,24.08-42.49,45.44-56.13c42.36-27.05,97.87-22.17,135.35,11.09c35.53,31.53,54.18,92.57,17.9,148.54
			c34.24,14.45,58.14,39.04,71.35,73.75c9.51-7,18.76-13.81,28.49-20.98c-11.81-21.02-14.46-43.78-7.11-67.32
			c5.56-17.82,16.44-32,31.67-42.82c29.6-21.04,70.07-19.75,99.3,3.18c31.76,24.92,38.82,61.88,20.3,107.86
			c1.45,0.89,2.95,1.88,4.51,2.77c24.32,13.77,40.16,34.13,45.46,61.59c2.25,11.68,1.91,23.89,2.45,35.87
			c0.32,7.05-0.48,14.17,0.18,21.18c1.02,10.81-1.47,19.64-11.29,25.43c-104.7,0-209.41,0-314.11,0c-0.45-0.43-0.84-0.94-1.35-1.28
			c-8.45-5.76-11.25-11.32-9.25-18.41c2.13-7.56,8.17-11.22,18.58-11.23c20.55-0.01,41.1,0,61.65-0.02c2.2,0,4.4-0.2,6.42-0.3
			c0-21.96,1.32-43.39-0.29-64.6c-2.8-36.89-30.1-68.55-65.83-78.52c-2.69-0.75-6.67-0.07-8.98,1.51
			c-40.24,27.59-90.11,27.58-130.3,0c-2.3-1.58-6.35-2.31-8.97-1.49c-33.78,10.6-55.79,33.08-64.03,67.51
			c-5.85,24.45-2.2,49.6-2.52,74.45c0,0.32,0.46,0.64,1.09,1.47c2.09,0,4.56,0,7.02,0c21.17,0,42.35-0.07,63.52,0.05
			c7.77,0.04,13.53,4.43,15.45,11.19c1.84,6.46-0.84,12.88-7.11,17.12c-1.19,0.81-2.32,1.71-3.48,2.56c-104.7,0-209.41,0-314.11,0
			c-3.74-3.74-7.48-7.48-11.22-11.22C10.34,756.67,10.34,735.07,10.34,713.46z M482.09,524.63c0-45.65-36.93-82.51-82.48-82.29
			c-45.46,0.21-81.93,36.79-81.96,82.18c-0.03,45.65,36.85,82.44,82.46,82.28C445.52,606.63,482.08,569.99,482.09,524.63z
			 M42.51,758.05c61.71,0,123.63,0,185.94,0c0-12.31,0.29-24.11-0.06-35.9c-0.71-23.88-16.55-45.47-39.21-53.32
			c-2.6-0.9-6.57-0.38-8.98,1.04c-30.35,17.86-60.46,17.85-90.74-0.17c-2.26-1.35-6.04-1.89-8.43-0.99
			c-20.82,7.77-34.85,22.5-38.12,44.49C40.75,727.75,42.51,742.87,42.51,758.05z M758.4,758.25c0-12.2,0.24-23.99-0.05-35.76
			c-0.6-24.05-16.71-46-39.54-53.75c-2.47-0.84-6.2-0.42-8.45,0.93c-30.51,18.17-60.79,18.11-91.27-0.08
			c-2.23-1.33-6.01-1.67-8.46-0.79c-17.38,6.3-29.41,18.33-35.83,35.66c-6.48,17.48-2.59,35.6-3.7,53.79
			C633.83,758.25,695.61,758.25,758.4,758.25z M135.52,547.18c-29.25-0.29-52.99,22.86-53.31,51.99
			c-0.32,29.55,23.01,53.32,52.46,53.48c29.2,0.15,52.79-23.12,53.03-52.32C187.94,571.12,164.72,547.47,135.52,547.18z
			 M664.76,652.64c29.21,0,52.69-23.39,52.77-52.57c0.08-29.24-23.21-52.75-52.41-52.9c-29.5-0.15-53.14,23.38-53.11,52.85
			C612.05,629.16,635.59,652.64,664.76,652.64z"/>
		<path d="M10.34,46.61c1.05-2.2,2.29-4.32,3.12-6.6c6.35-17.36,23.12-29.47,41.51-29.47c229.92-0.04,459.84-0.05,689.76,0.01
			c24.16,0.01,44.51,20.36,44.55,44.54c0.11,65.42,0.09,130.85,0.01,196.27c-0.03,23.93-18.46,43.15-42.52,44.32
			c-9.53,0.46-19.11,0.36-28.65,0.07c-4.68-0.14-6.07,1.46-6.05,6.06c0.09,17.65-0.3,35.31-0.25,52.96
			c0.02,7.45-0.93,14.26-8.33,18.05c-7.36,3.77-13.43,0.77-19.49-3.7c-31.59-23.29-63.25-46.5-95.08-69.46
			c-3.09-2.23-7.51-3.63-11.32-3.66c-36.35-0.27-72.69-0.05-109.04-0.29c-5.03-0.03-7.85,1.71-10.57,5.74
			c-14.27,21.18-28.8,42.19-43.29,63.22c-9.28,13.47-20.39,13.47-29.66,0c-14.48-21.04-28.99-42.06-43.27-63.24
			c-2.71-4.01-5.55-5.76-10.58-5.73c-36.35,0.23-72.69,0.02-109.04,0.29c-3.81,0.03-8.22,1.48-11.31,3.7
			c-32,23.08-63.84,46.39-95.61,69.79c-5.94,4.37-11.93,6.89-18.99,3.29c-6.86-3.49-8.31-9.69-8.3-16.8
			c0.02-18.07-0.34-36.14-0.25-54.21c0.02-4.62-1.44-6.2-6.08-6.03c-8.3,0.31-16.61,0.14-24.92,0.07
			c-21.88-0.18-37.08-11.16-44.12-31.72c-0.52-1.52-1.47-2.9-2.22-4.35C10.34,188.7,10.34,117.66,10.34,46.61z M680.06,328.42
			c0.63-0.24,1.26-0.48,1.9-0.72c0-14.7-0.08-29.41,0.02-44.11c0.09-12.68,5.59-18.07,18.38-18.14c13.5-0.07,27.01,0.01,40.51-0.03
			c13.22-0.04,17.59-4.39,17.59-17.52c0.01-62.94,0.01-125.89,0-188.83c0-13.56-4.21-17.68-18-17.68c-45.91-0.01-91.82,0-137.73,0
			c-181.35,0-362.7,0-544.05,0c-12.7,0-17.36,4.39-17.37,16.42c-0.02,63.77-0.02,127.55,0,191.32c0,11.48,4.71,16.19,16.32,16.27
			c14.13,0.09,28.25-0.05,42.38,0.06c12.01,0.09,17.58,5.61,17.77,17.49c0.2,12.67,0.24,25.34,0.38,38.01
			c0.03,2.34,0.21,4.69,0.38,8.11c2.91-1.99,4.77-3.2,6.57-4.51c24.65-18.02,49.16-36.23,74.05-53.92c4.1-2.91,9.82-4.94,14.81-4.99
			c42.79-0.39,85.58-0.13,128.38-0.3c8.09-0.03,13.7,3.08,18.16,9.75c11.55,17.26,23.43,34.3,35.2,51.41
			c1.23,1.78,2.56,3.49,4.18,5.68c1.73-2.36,2.98-3.98,4.14-5.67c11.77-17.12,23.67-34.14,35.19-51.42
			c4.47-6.71,10.09-9.76,18.16-9.73c42.79,0.16,85.59-0.09,128.38,0.3c5,0.04,10.66,2.1,14.82,4.96
			c15.57,10.7,30.65,22.13,45.91,33.27C657.67,312.08,668.86,320.25,680.06,328.42z"/>
		<path d="M395.49,789.5c-1.45-1.13-2.89-2.27-4.37-3.37c-5.59-4.19-7.8-10.85-5.62-17.05c2.16-6.14,7.8-10.33,14.07-10.44
			c6.51-0.12,12.47,4.14,14.67,10.48c2.17,6.24-0.03,12.87-5.64,17.04c-1.48,1.1-2.93,2.23-4.4,3.35
			C401.31,789.5,398.4,789.5,395.49,789.5z"/>
		<path d="M497.15,95.83c63.53,0,127.07,0,190.6,0.01c2.49,0,4.99-0.05,7.47,0.14c8.15,0.65,14.08,6.67,14.37,14.46
			c0.28,7.68-5.35,14.34-13.31,15.54c-2.24,0.34-4.56,0.24-6.84,0.24c-128.52,0.01-257.04,0.02-385.56-0.03
			c-3.28,0-6.7-0.13-9.83-1.02c-6.75-1.92-10.89-8.33-10.39-15.21c0.52-7.16,5.81-12.95,12.94-13.85c2.87-0.36,5.8-0.27,8.71-0.27
			C369.26,95.83,433.2,95.83,497.15,95.83z"/>
		<path d="M303.93,180.6c63.53,0,127.06,0,190.6,0.01c2.9,0,5.83-0.02,8.7,0.36c7.2,0.97,12.37,6.7,12.83,13.9
			c0.45,7.15-4.05,13.58-11.08,15.32c-2.58,0.64-5.34,0.76-8.01,0.76c-129.14,0.03-258.28,0.04-387.42,0
			c-2.88,0-5.86-0.14-8.62-0.86c-6.69-1.75-11.09-8.12-10.78-14.96c0.32-7.12,5.53-13.09,12.63-14.1c3.06-0.44,6.21-0.41,9.32-0.41
			C176.03,180.59,239.98,180.6,303.93,180.6z"/>
		<path d="M161.23,95.86c18.69,0,37.39-0.15,56.07,0.06c10.92,0.12,17.84,8.55,15.63,18.4c-1.7,7.57-7.57,11.85-16.75,11.88
			c-20.56,0.07-41.12,0.03-61.68,0.02c-16.2,0-32.4,0.11-48.6-0.07c-7.6-0.08-12.98-4.23-15.06-10.85
			c-1.92-6.12,0.06-13.26,5.67-16.38c3.43-1.91,7.79-2.89,11.76-2.95c17.65-0.31,35.3-0.13,52.96-0.13
			C161.23,95.84,161.23,95.85,161.23,95.86z"/>
		<path d="M637.94,210.99c-18.06,0-36.12-0.02-54.19,0.01c-6.17,0.01-11.51-1.63-14.98-7.14c-5.82-9.23-0.35-21.27,10.43-22.87
			c2.45-0.36,4.97-0.36,7.45-0.37c34.26-0.02,68.51-0.03,102.77,0c2.69,0,5.43,0.03,8.07,0.48c6.74,1.16,11.73,7.06,12.09,13.95
			c0.34,6.53-3.83,12.97-10.11,14.86c-2.73,0.82-5.72,1.02-8.59,1.03C673.24,211.03,655.59,210.99,637.94,210.99z"/>
	</g>
</g>
</svg>
