<svg xmlns="http://www.w3.org/2000/svg" viewBox="0 0 800 800"><path d="M156.32 272.6h389.29c.39.34.71.83 1.17 1.01 9.25 3.81 12.26 8.21 12.27 18.11.01 9.21.13 18.43-.07 27.63-.07 3.04.96 3.71 3.81 3.7 22.9-.1 45.79-.06 68.69-.04 1.47 0 2.96.11 4.42.35 3.4.56 5.48 2.67 6.24 5.96.75 3.24-.42 5.95-3.09 7.75-1.68 1.14-1.79 2.11-1.18 3.93 5.82 17.23 11.51 34.51 17.29 51.77 1.56 4.67 2.81 9.36 6.88 12.93 5.72 5.02 11.26 10.37 13.25 18.2.06.23.48.38.74.56v76.89c-.36.37-.9.67-1.06 1.11-3.05 8.19-9.27 11.33-17.62 11.27-8.8-.06-17.59-.01-26.39-.01-5.05 0-5.18-.01-5.65 4.94-1.76 18.77-17.66 34.52-36.66 36.28-19.48 1.8-37.8-10.06-43.24-28.93-.9-3.12-2.25-4.03-5.46-4.03-60.62.1-121.24.07-181.87.09-2.63 0-5.76-.63-7.75.55-1.61.96-1.84 4.21-2.71 6.43-11.56 29.22-49.62 35.35-69.98 11.28-.51-.6-1.15-1.1-1.86-1.75-.9 1.03-1.59 1.81-2.28 2.6-12.06 13.84-31.82 18.03-48.35 10.11-11.21-5.37-18.7-14-21.99-26.05-.68-2.48-1.85-3.37-4.45-3.25-4.65.22-9.33.18-13.99.02-10.09-.35-16.56-6.99-16.73-17.01-.05-3.18-.01-6.35-.01-9.53 0-6.76 0-6.76-6.61-6.79-.64 0-1.27-.01-1.91-.02-10.81-.17-16.59-9.25-16.57-17.19.19-60.45.1-120.9.11-181.36 0-8.13 3.93-13.57 11.56-16.32.64-.23 1.17-.79 1.76-1.19zm186.1 216.08c2.25 4.96 4.75 9.3 6.17 13.96.95 3.14 2.26 3.85 5.26 3.84 62.01-.08 124.01-.08 186.02.02 3.24.01 4.96-.77 5.33-4.1.14-1.22.74-2.43 1.3-3.56 1.61-3.26 3.3-6.48 5.19-10.16h-3.49c-6.78 0-13.57.05-20.35-.01-5.83-.06-9.31-3-9.34-7.74-.03-4.75 3.43-7.72 9.21-7.81 3.81-.06 7.63-.01 11.45-.01 4.29 0 4.3-.01 4.3-4.4V293.36c0-4.76 0-4.76-4.65-4.76H163.27c-4.69 0-4.69 0-4.69 4.66v175.35c0 .64.04 1.27-.01 1.91-.16 1.94.78 2.7 2.64 2.6.95-.05 1.91 0 2.86 0 108.43 0 216.87 0 325.3.01 1.48 0 2.97.02 4.44.22 3.86.52 6.51 3.49 6.65 7.31.13 3.6-2.27 6.76-5.96 7.56-1.64.35-3.36.46-5.04.46-47.7.02-95.4.02-143.1.02-1.24-.02-2.49-.02-3.94-.02zm284-132.51c-1.59-4.79-3.27-9-4.35-13.36-.86-3.48-2.63-4.3-6.03-4.26-16.11.18-32.22.08-48.34.08-8.65 0-8.65 0-8.65 8.64 0 40.66.03 81.33-.06 121.99-.01 3.06.83 4.02 3.92 3.92 6.78-.22 13.57-.11 20.35-.06 17.09.13 29.78 7.6 38.06 22.62.61 1.11 2.34 2.26 3.57 2.28 10.81.18 21.62.07 32.44.12 1.96.01 2.89-.56 2.88-2.71-.07-9.74-.07-19.48 0-29.23.01-2-.81-2.57-2.65-2.52-2.22.06-4.47.11-6.66-.17-4.46-.58-7.37-3.81-7.3-7.78.07-4.01 3.07-7.08 7.55-7.51 2.21-.21 4.47.06 6.66-.21.85-.11 2.24-1.11 2.25-1.73.13-5.92.28-11.87-.1-17.78-.3-4.63-2.88-6.52-7.56-6.52-19.08 0-38.16.02-57.24-.01-11.93-.01-18.32-6.35-18.34-18.18-.02-12.39-.01-24.78 0-37.17.01-7.55 2.74-10.24 10.42-10.25 11.66-.02 23.32 0 34.98-.01 1.19 0 2.41-.11 4.2-.19zM267.97 514.54c.28-13.96-10.91-25.45-25.1-25.8-13.82-.33-25.6 11.07-25.91 25.09-.3 13.77 11.1 25.47 25.2 25.86 13.82.37 25.54-11.04 25.81-25.15zm291.12-.32c.01 14.01 11.52 25.51 25.5 25.47 13.91-.04 25.53-11.68 25.5-25.55-.03-13.95-11.6-25.45-25.57-25.41-14.09.05-25.44 11.42-25.43 25.49zm-224.39-.04c0-14.07-11.38-25.46-25.44-25.45-14 .01-25.53 11.49-25.55 25.45-.02 13.85 11.66 25.51 25.55 25.51 13.99 0 25.43-11.47 25.44-25.51zm308.07-107.95c-.13-1-.11-1.44-.24-1.82-3.37-10.13-6.8-20.24-10.1-30.39-.66-2.04-2.02-2.09-3.69-2.08-11.02.02-22.03.1-33.05-.05-2.79-.04-3.34 1.05-3.31 3.54.11 9.1.17 18.2-.02 27.3-.06 3.01.96 3.76 3.82 3.73 14.4-.12 28.81-.05 43.21-.06 1.03-.01 2.05-.11 3.38-.17zm-433.69 82.51c-7.91 0-16.02-.03-24.13.09-.46.01-1.27 1.32-1.29 2.05-.12 4.34-.03 8.68-.08 13.02-.02 1.71.6 2.55 2.4 2.54 4.77-.04 9.54.05 14.31-.08.72-.02 1.77-.75 2.06-1.42 2.25-5.19 4.36-10.46 6.73-16.2z"/><path d="M350.86 455.35c-54.36 0-108.73 0-163.09-.02-1.79 0-3.61-.1-5.36-.45-3.6-.73-6.11-4.02-6-7.55.11-3.58 2.72-6.61 6.37-7.26 1.35-.24 2.74-.32 4.1-.32 109.36-.01 218.73-.01 328.09-.01 6.22 0 9.13 1.71 10.25 5.95 1.05 3.97-1.28 8.15-5.29 9.1-1.83.44-3.77.54-5.67.54-54.46.03-108.93.02-163.4.02zm-108.34 51.18c4.27-.03 7.71 3.35 7.75 7.58.04 4.24-3.37 7.72-7.61 7.77-4.09.05-7.82-3.59-7.84-7.64-.02-4.19 3.47-7.69 7.7-7.71zm334.37 7.77c-.06-4.21 3.37-7.71 7.6-7.76 4.24-.05 7.8 3.34 7.89 7.52.09 4.09-3.49 7.76-7.63 7.83-4.16.07-7.8-3.44-7.86-7.59zm-267.64-7.77c4.3-.03 7.68 3.28 7.72 7.58.04 4.28-3.3 7.72-7.57 7.77-4.13.05-7.79-3.52-7.81-7.63-.03-4.23 3.41-7.69 7.66-7.72z"/></svg>