<?xml version="1.0" encoding="utf-8"?>
<!-- Generator: Adobe Illustrator 25.4.1, SVG Export Plug-In . SVG Version: 6.00 Build 0)  -->
<svg version="1.1" id="Слой_1" xmlns="http://www.w3.org/2000/svg" xmlns:xlink="http://www.w3.org/1999/xlink" x="0px" y="0px"
	 viewBox="0 0 800 800" style="enable-background:new 0 0 800 800;" xml:space="preserve">
<style type="text/css">
	.st0{fill:#FFFFFF;}
</style>
<g id="braHru.tif">
	<g>
		<path class="st0" d="M506.31,542.98c51.57-47.85,102.33-94.95,153.65-142.57c-51.62-47.86-102.4-94.96-153.63-142.46
			c-11.63,10.82-22.44,20.87-33.91,31.55c31.27,29.06,62.01,57.63,92.74,86.2c-0.37,0.86-0.75,1.72-1.12,2.58
			c-145.09,0-290.17,0-435.25,0c0,15.37,0,29.31,0,44.69c145.72,0,290.79,0,438.78,0c-33.1,30.76-63.9,59.39-95.13,88.42
			C484.12,522.28,494.67,532.12,506.31,542.98z"/>
		<path d="M506.31,542.98c-11.64-10.86-22.19-20.7-33.88-31.59c31.23-29.02,62.03-57.66,95.13-88.42c-147.99,0-293.06,0-438.78,0
			c0-15.39,0-29.33,0-44.69c145.07,0,290.16,0,435.25,0c0.37-0.86,0.75-1.72,1.12-2.58c-30.74-28.57-61.47-57.13-92.74-86.2
			c11.47-10.67,22.29-20.73,33.91-31.55c51.23,47.5,102.01,94.6,153.63,142.46C608.64,448.03,557.88,495.13,506.31,542.98z"/>
	</g>
</g>
</svg>
