<?xml version="1.0" encoding="utf-8"?>
<!-- Generator: Adobe Illustrator 25.4.1, SVG Export Plug-In . SVG Version: 6.00 Build 0)  -->
<svg version="1.1" id="Слой_1" xmlns="http://www.w3.org/2000/svg" xmlns:xlink="http://www.w3.org/1999/xlink" x="0px" y="0px"
	 viewBox="0 0 901 484" style="enable-background:new 0 0 901 484;" xml:space="preserve">
<g id="vwgFh2.tif">
	<g>
		<path d="M32.98,10c214.14,0,428.29,0,642.43,0c17.26,5.51,23.23,17.82,22.34,35.16c-0.7,13.58,0.12,27.24-0.27,40.85
			c-0.16,5.49,1.62,6.83,6.92,6.8c37.45-0.21,74.9-0.13,112.35-0.08c2.83,0,5.7,0.21,8.47,0.74c5.11,0.99,8.11,4.39,9.44,9.29
			c1.38,5.09-0.2,9.66-4.3,12.43c-3.84,2.6-3.43,4.99-2.19,8.65c8.56,25.19,17.45,50.3,25.14,75.76
			c4.58,15.16,11.19,28.26,23.46,38.77c9.88,8.46,13.78,20,13.66,33.25c-0.32,35.17-0.6,70.35,0.11,105.5
			c0.33,16.08-10.88,30.87-30.48,30.31c-14.64-0.42-29.32,0.27-43.96-0.24c-6.41-0.23-8.8,1.43-9.32,8.07
			c-2.45,31.14-29.03,57.47-61.22,60.2c-31.23,2.66-61.84-17.28-70.42-47.58c-1.45-5.12-3.54-6.98-9.12-6.97
			c-102.17,0.19-204.35,0.19-306.52,0c-5.76-0.01-7.91,1.77-9.63,7.18c-8.03,25.16-25.44,41.05-51.13,46.26
			c-25.2,5.12-47.05-2.49-64.47-21.78c-1.19-1.32-2.39-2.63-3.93-4.32c-4.31,4.37-7.94,8.8-12.29,12.35
			c-37.49,30.64-94.26,12.89-107.66-33.67c-1.3-4.51-3.23-6.24-7.99-5.99c-7.51,0.4-15.06,0.29-22.59,0.04
			c-16.63-0.55-27.23-11.37-27.53-27.95c-0.11-6.5-0.38-13.03,0.08-19.51c0.4-5.69-1.18-8.14-7.3-7.55
			c-16.3,1.55-28.05-4.82-34.07-20.5c0-104.91,0-209.81,0-314.72C14.94,20.24,22.31,13.37,32.98,10z M684.3,366.39
			c-0.9-0.1-2.07-0.33-3.24-0.33c-12.21-0.04-24.43,0.21-36.63-0.16c-8.67-0.26-13.92-5.72-13.7-13.19
			c0.22-7.18,5.54-12.04,13.91-12.33c6.3-0.22,12.62-0.06,18.93-0.07c8.27-0.01,8.27-0.01,8.27-8.29c0-95.94,0-191.88,0-287.83
			c0-8.32,0-8.33-8.35-8.33c-206.16,0-412.33,0-618.49,0c-8.3,0-8.3,0.01-8.3,8.25c0,95.54-0.01,191.07,0.02,286.61
			c0,9.92-1.57,9.59,9.43,9.59c178.28,0,356.56,0,534.84,0.01c3.05,0,6.13-0.03,9.13,0.39c6.28,0.86,10.65,5.89,10.83,12.06
			c0.18,5.88-3.67,11.09-9.64,12.39c-3.14,0.69-6.45,0.83-9.68,0.83c-78.15,0.04-156.3,0.03-234.45,0.03c-2.3,0-4.6,0-7.05,0
			c3.7,8.1,7.79,14.99,9.95,22.44c1.68,5.81,4.31,6.95,9.79,6.94c101.76-0.15,203.52-0.11,305.28-0.11c1.63,0,3.35,0.31,4.85-0.13
			c1.35-0.4,3.07-1.37,3.58-2.54C677.23,384.14,680.61,375.53,684.3,366.39z M808.95,147.71c-3.28-9.78-5.96-18.43-9.22-26.86
			c-0.51-1.32-3.6-2.31-5.5-2.32c-30.31-0.14-60.62-0.05-90.94-0.17c-4.11-0.02-5.76,1.13-5.76,5.5c0.1,70.3,0.1,140.61,0,210.91
			c-0.01,4.21,1.27,5.72,5.58,5.63c10.78-0.25,21.56,0.01,32.34-0.1c29.05-0.28,50.85,11.79,64.98,37.44c1.01,1.84,3.94,3.68,6,3.71
			c17.69,0.29,35.4,0.11,53.09,0.21c3.61,0.02,5.09-1.19,5.06-4.94c-0.13-15.85-0.14-31.7,0-47.55c0.03-3.63-1.57-4.48-4.8-4.44
			c-4.05,0.04-8.17,0.06-12.14-0.61c-6.31-1.07-10.6-6.41-10.56-12.33c0.04-6.19,4.7-11.54,11.27-12.35
			c4.02-0.5,8.17,0.03,12.15-0.59c1.5-0.23,3.79-2.39,3.83-3.74c0.3-9.13,0.47-18.3-0.04-27.42c-0.46-8.27-4.72-11.72-12.93-11.72
			c-31.53-0.01-63.07,0.07-94.6-0.03c-19.33-0.07-29.82-10.61-29.88-29.81c-0.06-20.32-0.03-40.64-0.01-60.96
			c0.01-13.17,4.31-17.43,17.64-17.46c18.92-0.03,37.84-0.01,56.76-0.01C803.44,147.71,805.59,147.71,808.95,147.71z M176.06,366.14
			c-22.91-0.58-42.25,17.9-42.91,41.01c-0.66,23.01,18.2,42.52,41.63,43.04c22.51,0.5,41.82-18.05,42.5-40.84
			C217.98,386.04,199.57,366.74,176.06,366.14z M327.39,408.88c0.52-23.02-17.76-42.04-41.06-42.74
			c-23.12-0.69-42.58,18.06-43.08,41.49c-0.48,22.66,18.33,41.93,41.53,42.56C307.51,450.8,326.87,432.02,327.39,408.88z
			 M740.49,366.14c-23.04-0.53-42.18,17.84-42.78,41.04c-0.6,23.21,18.04,42.5,41.56,43.01c22.63,0.5,42.11-18.49,42.57-41.49
			C782.3,385.86,763.66,366.67,740.49,366.14z M835.57,230.25c-0.11-1.94,0.02-2.77-0.22-3.49c-5.5-16.55-10.89-33.13-16.77-49.54
			c-0.64-1.79-4.14-3.58-6.34-3.62c-17.87-0.29-35.76,0.02-53.63-0.28c-5.1-0.09-6.11,1.85-6.05,6.4
			c0.22,14.81,0.27,29.63-0.02,44.44c-0.1,4.93,1.62,6.23,6.32,6.18c20.72-0.2,41.44-0.09,62.17-0.09
			C825.66,230.25,830.3,230.25,835.57,230.25z M120.11,366.11c-13.03,0-26.14-0.09-39.24,0.19c-0.98,0.02-2.65,2.7-2.72,4.2
			c-0.3,6.67-0.03,13.36-0.17,20.05c-0.07,3.28,1.02,4.85,4.53,4.79c7.5-0.13,15.01,0.13,22.5-0.18c1.46-0.06,3.51-1.72,4.15-3.15
			C112.87,383.77,116.24,375.39,120.11,366.11z"/>
		<path d="M354.25,285.29c89.56,0,179.12,0,268.68,0.02c3.04,0,6.13,0.03,9.12,0.54c5.89,1,10.1,6.11,10.26,11.97
			c0.16,5.8-3.83,11.08-9.73,12.37c-2.75,0.6-5.64,0.79-8.47,0.79c-179.94,0.04-359.87,0.04-539.81-0.01
			c-3.03,0-6.14-0.22-9.06-0.93c-5.43-1.32-9.29-6.81-9.12-12.27c0.17-5.51,4.28-10.78,9.73-11.82c3.17-0.6,6.47-0.65,9.71-0.65
			C175.13,285.28,264.69,285.29,354.25,285.29z"/>
		<path d="M188.04,408.33c-0.1,7.01-6.1,12.74-13.05,12.47c-6.68-0.26-12.4-6.09-12.42-12.65c-0.01-6.99,5.8-12.72,12.88-12.67
			C182.53,395.53,188.14,401.26,188.04,408.33z"/>
		<path d="M285.48,395.49c7.14-0.01,12.69,5.59,12.65,12.73c-0.05,7.06-5.9,12.78-12.89,12.58c-6.68-0.18-12.41-5.94-12.5-12.55
			C272.65,401.24,278.39,395.49,285.48,395.49z"/>
		<path d="M740.11,395.49c7.03,0.14,12.7,6.09,12.45,13.05c-0.25,6.68-6.07,12.3-12.72,12.27c-6.95-0.03-12.86-5.99-12.76-12.86
			C727.17,400.96,733.04,395.35,740.11,395.49z"/>
	</g>
</g>
</svg>
