<?xml version="1.0" encoding="utf-8"?>
<!-- Generator: Adobe Illustrator 25.4.1, SVG Export Plug-In . SVG Version: 6.00 Build 0)  -->
<svg version="1.1" id="Слой_1" xmlns="http://www.w3.org/2000/svg" xmlns:xlink="http://www.w3.org/1999/xlink" x="0px" y="0px"
	 viewBox="0 0 800 800" style="enable-background:new 0 0 800 800;" xml:space="preserve">
<g id="PaURTQ.tif">
	<g>
		<path d="M227.15,524.99c0.6-2.25,1.12-4.53,1.82-6.75c3.53-11.24,10.52-19.66,20.81-25.36c0.49-0.27,0.99-0.54,1.47-0.83
			c0.13-0.08,0.21-0.23,0.5-0.56c-5.93-10.7-7.1-22-2.83-33.66c2.92-7.98,8.03-14.34,15.14-18.98c14.56-9.52,33.1-8.48,46.5,2.42
			c11.53,9.38,20.33,29.15,9.13,50.11c4.39,3.22,8.76,6.43,13.32,9.77c6.18-16.19,17.33-27.87,33.76-34.73
			c-9.47-14.65-12.04-30.24-6.8-46.8c3.69-11.64,10.84-20.84,20.94-27.67c19.53-13.21,45.86-11.56,63.78,3.43
			c17.56,14.7,27.08,44.58,9.59,71.04c16.22,6.8,27.46,18.49,33.64,34.72c4.52-3.31,8.84-6.48,13.41-9.84
			c-5.99-10.83-7.04-22.43-2.39-34.34c3.02-7.75,8.16-13.9,15.18-18.35c14.85-9.42,33.33-8.12,46.64,3.11
			c11.74,9.9,19.44,29.68,8.46,49.9c0.49,0.34,0.97,0.73,1.51,1.02c12.2,6.7,19.82,16.78,22.36,30.53c0.51,2.75,0.79,5.58,0.83,8.37
			c0.12,6.86-0.05,13.73,0.07,20.59c0.06,3.62-1.35,6.18-4.49,7.89c-0.34,0.18-0.58,0.54-0.86,0.82c-49.43,0-98.86,0-148.28,0
			c-0.39-0.36-0.75-0.79-1.19-1.08c-2.99-1.95-4.31-4.99-3.49-8.08c0.85-3.19,3.63-5.32,7.24-5.33c10.5-0.04,20.99-0.06,31.49,0.02
			c1.87,0.01,2.53-0.46,2.5-2.43c-0.11-7.67,0.02-15.34-0.06-23.01c-0.22-20.09-12.83-37.01-31.54-42.25
			c-1.14-0.32-2.82-0.17-3.76,0.47c-19.62,13.41-42.68,13.43-62.12,0.01c-0.86-0.59-2.3-0.88-3.31-0.64
			c-16.25,3.98-30.02,19.41-31.5,36.09c-0.8,9.06-0.45,18.22-0.57,27.34c-0.06,4.38-0.01,4.38,4.31,4.38
			c9.93,0,19.86-0.03,29.79,0.03c3.48,0.02,6.13,2.1,7.04,5.25c0.88,3.06-0.46,6.26-3.38,8.1c-0.53,0.34-1.02,0.75-1.53,1.13
			c-49.43,0-98.86,0-148.28,0c-1.62-1.78-3.23-3.55-4.85-5.33C227.15,545.34,227.15,535.16,227.15,524.99z M449.21,435.99
			c-0.06-21.38-17.26-38.6-38.64-38.68c-21.42-0.07-38.85,17.28-38.88,38.71c-0.02,21.44,17.34,38.81,38.78,38.79
			C431.94,474.79,449.27,457.43,449.21,435.99z M241.41,546.13c29.6,0,58.85,0,88.26,0c0-5.84,0.19-11.48-0.04-17.11
			c-0.47-11.55-7.89-21.41-18.83-25.13c-1.02-0.35-2.58-0.17-3.51,0.4c-14.52,8.78-28.96,8.74-43.45-0.08
			c-0.87-0.53-2.34-0.7-3.31-0.36c-8.07,2.8-13.74,8.23-17.01,16.13C240.02,528.46,242.07,537.32,241.41,546.13z M579.46,546.33
			c0-5.63,0.06-10.93-0.01-16.23c-0.16-11.89-7.62-22.21-18.78-26.25c-1.42-0.51-2.49-0.43-3.81,0.38
			c-14.35,8.83-28.76,8.81-43.11,0c-1.32-0.81-2.38-0.9-3.81-0.38c-11.03,4.02-18.38,14.04-18.69,25.79
			c-0.12,4.6,0.09,9.2-0.1,13.79c-0.09,2.33,0.62,2.96,2.95,2.95c27.51-0.08,55.03-0.05,82.54-0.05
			C577.43,546.33,578.23,546.33,579.46,546.33z M285.63,446.69c-13.7-0.01-24.83,11.05-24.89,24.74
			c-0.06,13.81,11.06,24.98,24.88,24.99c13.72,0.01,24.79-11,24.89-24.73C310.6,457.89,299.46,446.7,285.63,446.69z M535.4,446.69
			c-13.86-0.01-24.99,11.08-24.97,24.89c0.02,13.73,11.07,24.8,24.78,24.84c13.83,0.04,24.96-11.07,24.96-24.89
			C560.17,457.82,549.08,446.7,535.4,446.69z"/>
		<path d="M227.15,211.03c0.22-0.51,0.5-1.01,0.67-1.54c2.99-9.77,10.5-15.39,20.68-15.4c107.98-0.01,215.96,0.05,323.94-0.09
			c10.95-0.01,21.59,8.75,21.55,21.64c-0.08,30.36-0.08,60.72,0,91.09c0.03,11.87-9.28,21.78-21.35,21.57
			c-3.96-0.07-7.92,0.12-11.87-0.06c-2.38-0.11-3.23,0.53-3.2,3.06c0.09,8.56-0.14,17.12-0.13,25.68c0,3.33-0.85,6.11-4.02,7.64
			c-3.13,1.51-5.87,0.55-8.55-1.42c-15.21-11.2-30.46-22.37-45.76-33.46c-1.14-0.83-2.78-1.38-4.18-1.39
			c-17.61-0.09-35.21-0.04-52.82-0.09c-1.73-0.01-2.78,0.56-3.76,2c-6.93,10.22-13.95,20.39-20.96,30.56
			c-4.29,6.23-9.57,6.22-13.87-0.03c-6.96-10.11-13.93-20.21-20.81-30.37c-1.09-1.61-2.26-2.17-4.17-2.16
			c-17.36,0.07-34.73,0-52.09,0.11c-1.63,0.01-3.52,0.63-4.84,1.58c-15.31,11.07-30.54,22.25-45.8,33.4
			c-3.48,2.54-7.05,2.65-9.77,0.35c-1.86-1.58-2.54-3.62-2.55-6.02c-0.03-8.88-0.18-17.77-0.15-26.65c0.01-2.09-0.56-2.87-2.73-2.78
			c-3.87,0.16-7.75,0.06-11.63,0.04c-10.76-0.04-17.93-5.34-21.23-15.66c-0.15-0.45-0.4-0.87-0.61-1.31
			C227.15,277.89,227.15,244.46,227.15,211.03z M543.21,344.17c0-1.53-0.01-2.32,0-3.1c0.06-6.22,0.11-12.43,0.19-18.65
			c0.08-5.81,2.69-8.43,8.47-8.45c6.7-0.03,13.4,0.01,20.11-0.02c5.2-0.03,7.49-2.36,7.49-7.6c0.01-30.11,0.01-60.23,0-90.34
			c0-5.36-2.29-7.61-7.72-7.61c-107.48,0-214.95,0-322.43,0c-5.61,0-7.83,2.19-7.83,7.73c-0.01,30.03-0.01,60.07,0,90.1
			c0,5.43,2.23,7.7,7.6,7.72c6.7,0.03,13.4-0.02,20.11,0.02c5.63,0.03,8.29,2.71,8.36,8.34c0.08,6.22,0.1,12.43,0.16,18.65
			c0.01,0.85,0.08,1.71,0.15,3.08c1.04-0.72,1.67-1.14,2.29-1.59c11.92-8.72,23.86-17.43,35.75-26.2c2.11-1.56,4.33-2.31,6.95-2.31
			c20.11,0.04,40.21,0.07,60.32-0.02c3.84-0.02,6.57,1.35,8.72,4.56c5.56,8.32,11.3,16.53,16.97,24.77c0.47,0.68,1,1.33,1.64,2.18
			c0.75-1.04,1.27-1.75,1.77-2.47c5.62-8.18,11.31-16.32,16.83-24.58c2.04-3.05,4.62-4.47,8.27-4.46
			c20.35,0.06,40.7-0.03,61.04,0.12c2.1,0.02,4.51,0.84,6.24,2.05c8.33,5.83,16.48,11.93,24.69,17.93
			C533.75,337.26,538.16,340.48,543.21,344.17z"/>
		<path d="M408.39,560.84c-0.63-0.48-1.24-0.98-1.88-1.43c-2.59-1.81-3.76-4.95-2.9-7.85c0.9-3.06,3.69-5.19,6.82-5.2
			c3.14-0.01,5.92,2.05,6.89,5.11c0.91,2.88-0.21,6.03-2.78,7.89c-0.63,0.45-1.19,0.99-1.79,1.49
			C411.29,560.84,409.84,560.84,408.39,560.84z"/>
		<path d="M364.94,288.32c-30.61,0-61.22,0-91.83,0c-4.4,0-6.95-1.51-8.14-4.75c-1.52-4.13,1.03-8.64,5.37-9.38
			c1.18-0.2,2.41-0.19,3.62-0.19c60.57-0.01,121.15-0.01,181.72,0c1.21,0,2.43-0.01,3.62,0.17c3.34,0.5,5.77,3.29,5.92,6.68
			c0.15,3.39-2.03,6.39-5.33,7.14c-1.24,0.28-2.56,0.32-3.84,0.32C425.67,288.33,395.3,288.32,364.94,288.32z"/>
		<path d="M456.04,234.07c30.59,0,61.18,0.02,91.78-0.03c3.42-0.01,6.26,0.81,7.87,4.05c2.17,4.38-0.62,9.44-5.56,10.18
			c-0.71,0.11-1.45,0.09-2.17,0.09c-61.27,0-122.53,0.01-183.8,0c-4.69,0-7.55-2.02-8.3-5.79c-0.83-4.15,2.03-8.04,6.23-8.43
			c1.04-0.1,2.1-0.08,3.15-0.08C395.5,234.07,425.77,234.07,456.04,234.07z"/>
		<path d="M522.51,288.32c-8.55,0-17.1,0.04-25.64-0.02c-5.3-0.03-8.62-3.72-7.78-8.46c0.53-2.96,2.82-5.25,5.82-5.69
			c1.03-0.15,2.09-0.16,3.13-0.17c16.45-0.01,32.9-0.01,49.35,0c5.67,0,9.04,2.67,9.06,7.14c0.01,4.45-3.41,7.19-9.02,7.19
			C539.13,288.33,530.82,288.32,522.51,288.32z"/>
		<path d="M298.25,234.08c8.87,0,17.75-0.01,26.62,0.01c3.05,0.01,5.29,1.48,6.5,4.22c1.12,2.54,1.05,5.31-0.99,7.21
			c-1.47,1.37-3.7,2.69-5.61,2.71c-17.66,0.2-35.33,0.16-53,0.09c-4.19-0.02-7.31-3.28-7.28-7.19c0.03-3.97,3.08-7,7.38-7.03
			C280.66,234.03,289.46,234.08,298.25,234.08z"/>
	</g>
</g>
</svg>
