<?xml version="1.0" encoding="utf-8"?>
<!-- Generator: Adobe Illustrator 25.4.1, SVG Export Plug-In . SVG Version: 6.00 Build 0)  -->
<svg version="1.1" id="Слой_1" xmlns="http://www.w3.org/2000/svg" xmlns:xlink="http://www.w3.org/1999/xlink" x="0px" y="0px"
	 viewBox="0 0 800 800" style="enable-background:new 0 0 800 800;" xml:space="preserve">
<g id="e0HZBL.tif">
	<g>
		<path d="M568.82,477.82c7.54-2.83,12.16-9.75,11.76-17.49c-0.37-7.18-6.13-13.91-13.87-15.91c-2.26-0.58-4.66-0.81-7-0.81
			c-39.06-0.05-78.11-0.03-117.17-0.04c-0.93,0-1.86,0.02-2.79-0.06c-3.03-0.28-5.2-2.71-5.2-5.78c0-3.04,2.21-5.52,5.21-5.8
			c0.85-0.08,1.72-0.04,2.57-0.04c38.98,0,77.97,0.06,116.95-0.04c10.9-0.03,19.98,3.58,26.95,12.08c0.13,0.16,0.33,0.26,0.5,0.38
			c5.74-5.25,6.6-13.34,1.93-19.56c-4.69-6.23-11.35-8.61-18.85-9.15c-0.93-0.07-1.86-0.03-2.79-0.03c-54.29,0-108.58,0-162.88,0
			c-0.71,0-1.42,0-2.81,0c1.14,0.89,1.83,1.43,2.51,1.96c18.94,14.74,31.47,33.69,37.33,57c0.96,3.82-0.64,6.81-4.07,7.75
			c-3.29,0.9-6.29-1.04-7.28-4.84c-7-26.64-22.48-46.77-47.02-59.26c-51.5-26.2-113.86,1.41-128.87,57.94
			c-0.24,0.9-0.44,1.81-0.78,2.67c-1.07,2.67-3.89,4.17-6.59,3.57c-2.83-0.63-4.95-3.01-4.6-5.86c0.34-2.74,1.11-5.45,1.94-8.09
			c6.91-21.78,19.69-39.32,38.16-52.74c0.44-0.32,0.84-0.67,1.62-1.3c-0.89-0.05-1.35-0.09-1.82-0.1
			c-19.52-0.31-39.05-0.62-58.57-0.95c-0.93-0.02-1.87-0.04-2.77-0.22c-2.88-0.57-4.8-2.92-4.78-5.76c0.02-2.9,2.12-5.31,5.07-5.76
			c0.7-0.11,1.43-0.08,2.14-0.07c26.96,0.44,53.92,0.89,80.88,1.31c1.06,0.02,2.2,0.04,3.17-0.3c8.74-3.11,17.75-4.93,26.98-5.68
			c0.56-0.05,1.11-0.15,1.75-0.25c0-8.34,0-16.6,0-25c-3.52-0.23-6.93-0.38-10.33-0.68c-19.98-1.74-39.02-6.56-56.07-17.59
			c-20.19-13.07-32.77-31.73-39.34-54.61c-4.02-14-5.61-28.29-4.44-42.85c0.3-3.73,2.32-5.75,5.98-5.98
			c22.75-1.37,44.39,2.63,64.68,13.25c0.31,0.16,0.64,0.29,1.2,0.54c0.32-2.57,0.55-5.02,0.93-7.44
			c3.19-20.43,12.32-38.08,25.57-53.68c4.1-4.83,8.76-9.22,13.35-13.61c2.75-2.63,6.01-2.57,8.84-0.04
			c20.42,18.3,34.49,40.26,38.97,67.73c0.37,2.25,0.53,4.52,0.81,7.03c0.66-0.3,1.22-0.53,1.76-0.8
			c20.29-10.44,41.88-14.39,64.54-12.95c3.07,0.2,5.38,2.27,5.56,5.24c1.79,29.89-4.51,57.46-24.06,80.94
			c-13.22,15.88-30.57,25.27-50.33,30.52c-10.82,2.88-21.85,4.35-33.03,4.77c-0.84,0.03-1.68,0.1-2.66,0.16c0,8.41,0,16.66,0,24.87
			c5.19,0.8,10.37,1.4,15.45,2.45c4.39,0.91,8.74,2.17,12.98,3.64c2.76,0.95,5.45,1.42,8.35,1.41c17.88-0.06,35.77,0,53.65-0.08
			c1.55-0.01,3.26-0.46,4.61-1.22c11.72-6.56,23.3-13.38,35.09-19.81c5.45-2.97,7.6-7.48,7.33-13.21
			c-0.44-9.22-4.59-16.59-12.39-21.64c-4.92-3.18-9.86-3.52-15.27-0.32c-22.08,13.06-44.31,25.87-66.51,38.72
			c-1.2,0.69-2.61,1.26-3.97,1.39c-2.67,0.26-4.89-1.42-5.73-3.92c-0.8-2.38-0.01-4.92,2.07-6.49c0.62-0.47,1.32-0.84,2-1.24
			c22.3-12.98,44.63-25.89,66.87-38.95c7.62-4.47,15.29-4.67,23.17-1.1c15.76,7.13,25.14,26.95,20.29,42.7
			c-1.81,5.87-5.28,10.38-10.66,13.41c-6.58,3.72-13.15,7.47-19.68,11.73c0.7,0,1.4,0,2.1,0c33.33,0,66.67,0.04,100-0.02
			c10.13-0.02,19.22,2.68,26.77,9.61c12.56,11.53,12.23,29.54-0.71,40.65c-1.21,1.04-1.62,1.91-1.42,3.57
			c1.65,13.8-6.04,26.25-19.25,31.22c-1.54,0.58-2.24,1.26-2.44,2.93c-0.83,7.12-4.2,12.95-9.4,17.81c-0.52,0.49-1,1.67-0.78,2.23
			c6.02,15.01-2.05,30.49-16.3,36.79c-4.5,1.99-9.18,2.98-14.14,2.98c-102.5-0.03-205.01-0.02-307.51-0.02
			c-4.04,0-6.52-2.21-6.48-5.74c0.03-3.44,2.69-5.81,6.58-5.81c50.64-0.01,101.29,0,151.93,0c51.14,0,102.29-0.02,153.43,0.03
			c5.91,0.01,11.35-1.22,16.05-4.94c8.87-7.01,8.85-19-0.03-25.98c-3.76-2.96-8.07-4.58-12.85-4.78c-3.07-0.13-6.15-0.07-9.23-0.07
			c-31.47,0-62.95,0-94.42-0.01c-1.06,0-2.16-0.04-3.19-0.28c-2.66-0.62-4.41-2.91-4.42-5.6c-0.01-2.69,1.73-5,4.37-5.65
			c0.89-0.22,1.84-0.28,2.76-0.28c33.91-0.01,67.81-0.02,101.72-0.01c8.65,0,16.48,2.45,23.21,8.03c0.27,0.22,0.56,0.4,0.82,0.58
			c6.07-4.13,8.25-13.11,4.74-20.01c-3.28-6.45-8.83-9.72-15.88-10.59c-1.27-0.16-2.57-0.12-3.86-0.12
			c-26.04-0.01-52.07,0-78.11-0.01c-1,0-2.01-0.01-2.98-0.21c-2.91-0.61-4.71-2.93-4.65-5.84c0.06-2.75,1.95-5.02,4.75-5.56
			c0.9-0.17,1.85-0.17,2.77-0.17c25.75-0.01,51.5,0.09,77.25-0.04C551.22,458.48,562.18,464.3,568.82,477.82z M347.56,332.63
			c0.23,0.15,0.45,0.31,0.68,0.46c0.14-0.33,0.21-0.72,0.43-0.99c6.95-8.41,13.01-17.39,17.59-27.32c7.03-15.25,9.78-31.14,7-47.81
			c-2.53-15.12-8.95-28.57-18.08-40.74c-4.06-5.41-8.65-10.42-13.08-15.7c-0.89,0.79-1.39,1.18-1.84,1.63
			c-8.12,8.15-15.07,17.19-20.51,27.36c-9.98,18.67-13.44,38.29-8.3,59.06c4.14,16.73,12.84,31.04,23.84,44.08
			c0.06,0.07,0.26,0.01,0.57,0.01c0-0.75,0-1.52,0-2.28c0-25.53,0-51.06,0-76.59c0-0.71-0.02-1.43,0.02-2.14
			c0.18-2.62,2.02-4.7,4.6-5.22c3.98-0.81,7.05,1.95,7.05,6.41c0.01,25.81,0.01,51.63,0.01,77.44
			C347.56,331.06,347.56,331.84,347.56,332.63z M347.63,359.76c0.94,0,1.57,0.03,2.19,0c11.17-0.55,22.2-1.98,32.96-5.12
			c20.95-6.12,38.03-17.56,49.5-36.5c8.98-14.82,13.02-31.12,13.95-48.28c0.15-2.75,0.02-5.52,0.02-8.52
			c-0.99,0-1.84-0.05-2.67,0.01c-6.27,0.47-12.58,0.62-18.78,1.5c-13.44,1.91-26.05,6.34-37.54,13.7c-1.05,0.67-1.55,1.4-1.69,2.69
			c-1.22,11.18-4.42,21.79-9.28,31.93c-6.72,14-15.94,26.21-26.54,37.46c-0.57,0.6-1.32,1.31-1.41,2.04
			C347.98,353.62,347.85,356.6,347.63,359.76z M237.03,261.16c0,1.32,0,2.1,0,2.88c0.04,9.69,1.18,19.25,3.62,28.63
			c6.79,26.11,21.61,45.7,46.54,57.01c12.91,5.85,26.58,8.61,40.64,9.69c2.6,0.2,5.2,0.3,7.71,0.45c0-2.08,0-3.79,0-5.5
			c0-2.65-0.62-4.93-2.78-6.82c-2.03-1.78-3.72-3.96-5.47-6.03c-15.17-17.86-26.43-37.61-29.27-61.34c-0.24-1.99-1.05-3.11-2.7-4.14
			c-13.33-8.28-27.95-12.53-43.43-14.03C247.06,261.48,242.21,261.42,237.03,261.16z"/>
		<path d="M427.1,283.52c-0.98,1.57-1.72,3.37-2.96,4.69c-14.05,14.85-28.17,29.62-42.28,44.42c-1.43,1.5-2.81,3.05-4.3,4.49
			c-2.51,2.43-6.14,2.46-8.46,0.13c-2.3-2.31-2.37-5.76,0.02-8.28c15.71-16.52,31.45-33.01,47.19-49.51
			c1.85-1.94,4.08-2.58,6.64-1.59C425.17,278.72,426.56,280.81,427.1,283.52z"/>
		<path d="M305.11,336.26c-1.37-0.79-3.03-1.31-4.08-2.4c-15.79-16.44-31.52-32.95-47.23-49.47c-2.41-2.53-2.29-6.21,0.1-8.45
			c2.45-2.29,6.03-2.11,8.6,0.57c12.1,12.65,24.17,25.34,36.26,38.01c3.6,3.78,7.22,7.53,10.79,11.34c1.89,2.02,2.27,4.43,1.14,6.72
			C309.61,334.77,307.8,335.85,305.11,336.26z"/>
	</g>
</g>
</svg>
