<svg xmlns="http://www.w3.org/2000/svg" viewBox="0 0 800 800"><path d="M265.57 31c10.62 10.12 22.1 19.5 31.7 30.52 24.92 28.59 42.42 61.26 50.39 98.64.89 4.16 1.63 8.36 2.25 12.57.59 4.04.93 8.13 1.43 12.69 1.31-.54 2.46-.92 3.53-1.47 40.48-20.86 83.57-28.9 128.83-26.15 7.76.47 11.7 3.99 12.31 11.9 2.65 34.44-1.66 68.08-13.43 100.52-24.04 66.3-71.78 106.2-139.35 123.55-21.18 5.44-42.78 8.08-64.61 8.93-1.28.05-2.55.18-4.08.29v49.92c11.76 1.96 23.4 3.59 34.89 5.94 7.35 1.5 14.43 4.27 21.73 6.06 5.48 1.34 11.11 2.82 16.68 2.86 36.39.25 72.78.18 109.17.03 2.92-.01 6.16-.88 8.71-2.32 22.99-12.89 45.6-26.51 68.88-38.85 13.64-7.23 17.87-18.12 16.06-32.11-2.17-16.79-10.42-30.23-24.9-39.33-9.92-6.23-19.76-6.73-30.44-.42-44.4 26.25-89.06 52.07-133.7 77.9-2.84 1.64-6.39 2.85-9.61 2.86-5.22.01-9.21-4-10.38-8.96-1.19-5.06 1.1-10.08 6.35-13.16 16.38-9.62 32.81-19.15 49.23-28.71 29.29-17.06 58.67-33.97 87.84-51.22 13.87-8.2 28.04-9.14 42.88-3.54 32.78 12.37 53.86 53.14 44.61 86.23-3.47 12.42-10.61 21.97-21.91 28.35-11.69 6.6-23.34 13.28-35 19.94-1.37.78-2.71 1.63-3.97 3.44h5.54c66.39 0 132.77.01 199.16 0 18.57 0 35.65 4.56 50.41 16.28 28.74 22.82 29.76 60.89 2.21 85.15-2.34 2.06-3.2 3.84-2.86 7.03 3.04 28.42-12.03 52.95-38.74 63.07-3.17 1.2-4.38 2.62-4.83 6.08-2 15.29-9.5 27.68-21.23 37.59 1.31 4.65 3.01 9.1 3.78 13.71 4.67 27.86-11.55 54.02-39.77 64.7-9.21 3.49-18.72 4.23-28.47 4.22-141.62-.08-283.25-.05-424.87-.05-63.6 0-127.2-.16-190.8.17-8.65.04-15.34-8.95-10.97-16.41 1.69-2.88 5.32-4.99 8.52-6.5 2.18-1.03 5.15-.49 7.77-.49 203.42-.01 406.85-.03 610.27.02 10.22 0 19.86-1.74 28.59-7.32 22.63-14.45 22.61-43.08-.05-57.51-8.57-5.46-18.04-7.42-28.09-7.41-67.21.03-134.41.02-201.62.02-1.64 0-3.28.05-4.92-.02-6.57-.29-11.52-5.29-11.57-11.63-.05-6.09 4.63-11.24 10.9-11.87 1.79-.18 3.6-.09 5.41-.09 63.44 0 126.88.29 190.31-.16 22.38-.16 43.59 1.96 61.03 17.96 10.12-9.29 14.89-20.14 11.85-33.35-3.48-15.08-13.86-23.73-28.32-27.63-4.35-1.17-9.07-1.34-13.63-1.35-52.78-.09-105.56-.05-158.35-.06-9.29 0-14.68-4.6-14.48-12.24.15-5.91 4.38-10.58 10.3-11.21 1.95-.21 3.93-.15 5.89-.15 52.29-.01 104.58.01 156.87-.01 28.16-.01 49.12 11.8 61.72 37.42.21.42.57.77.85 1.15 14.98-5.84 24.6-19.92 23.61-34.52-1.09-16.08-12.93-29.58-29.51-33.16-4.28-.92-8.77-1.14-13.17-1.15-79.01-.07-158.02-.04-237.03-.05-9.16 0-14.49-4.75-14.14-12.51.26-5.89 4.65-10.52 10.53-11 1.79-.15 3.6-.07 5.41-.07h233.09c26.21 0 38.95 5.52 56.76 24.6 9.46-5.82 13.23-21.68 7.64-33.4-6.13-12.85-17.23-19.39-30.53-22.48-5.05-1.17-10.39-1.58-15.59-1.59-109.33-.09-218.67-.07-328-.06-1.57 0-3.13.15-5.28.26 6.84 5.83 13.37 10.96 19.41 16.63 29.92 28.07 50.03 61.96 59.86 101.86 1.87 7.58-1.4 13.89-7.94 15.54-7.07 1.79-12.83-1.95-14.94-9.76-16.36-60.7-53.14-104-111.76-126.9-101.94-39.82-213.67 18.23-242.3 124.89-.34 1.26-.62 2.55-1.04 3.79-2.11 6.3-7.97 9.55-14.35 7.99-5.9-1.44-10.3-7.45-8.34-13.53 4.86-15.06 9.38-30.39 16.09-44.65 14.44-30.65 36.27-55.52 63.69-75.45 1.02-.74 1.99-1.54 3.75-2.9-2.4-.17-3.93-.35-5.46-.38-38.35-.65-76.7-1.28-115.05-1.93-2.12-.04-4.29-.03-6.35-.45-6.29-1.27-10.29-6.77-9.57-12.88.72-6.15 5.52-10.37 12.28-10.31 17.86.16 35.73.48 53.59.76 37.69.59 75.39 1.19 113.08 1.76 1.45.02 3.01-.03 4.36-.52 18.61-6.71 37.83-10.44 57.91-11.82v-50.24c-12.77-1.23-25.35-2.01-37.8-3.72-47.01-6.46-89.81-22.55-124.35-56.43-30.52-29.93-47.54-66.93-55.52-108.44-4.04-21-5.58-42.19-4.03-63.58.66-9.07 4.29-12.95 13.46-13.47 44.93-2.58 87.69 5.48 127.87 26.17.98.5 2.01.91 3.21 1.45 1.36-8.49 2.28-16.78 4.04-24.88 11.1-50.88 38.52-91.87 76.98-126.09 1.43-1.27 3.09-2.27 4.65-3.4 2.29.01 4.58.01 6.88.01zm8.68 294.21c80.15-90.73 65.41-192.55-12.02-265.85-34.16 31.62-67.25 84.77-65.45 142.03 1.5 47.9 22.9 87.31 52.51 123.09l1.31-.3V319c0-50.78 0-101.56.01-152.34 0-1.96-.05-3.94.16-5.89.55-5.16 4.23-9.04 9.33-10.02 8.21-1.57 14.15 4.15 14.15 13.75.02 51.27.01 102.54.01 153.82-.01 1.95-.01 3.9-.01 6.89zm199.13-144.22c-2.39-.13-4-.37-5.58-.28-9.48.52-19 .71-28.43 1.77-29.97 3.35-58.22 11.98-83.99 28.09-3.25 2.03-4.38 4.5-5.17 8.09-3.27 14.81-5.82 29.93-10.79 44.18-12.57 36.03-34.85 66.08-60.72 93.66-1.21 1.28-2.93 2.7-3.12 4.21-.72 5.94-.92 11.95-1.33 18.33 2.55 0 4.48.09 6.4-.01 20.15-1.11 40.1-3.62 59.62-8.9 43.68-11.82 79.59-34.66 103.74-73.87 17.09-27.75 25.44-58.29 28.14-90.53.68-8.09.82-16.23 1.23-24.74zm-223.44 198.5c0-4.52-.05-8.24.01-11.97.08-4.97-1.8-8.77-5.15-12.66-10.89-12.65-21.9-25.3-31.57-38.87-20.43-28.66-34.31-60.28-38.56-95.51-.68-5.65-2.97-8.57-7.51-11.29-34.32-20.58-71.92-28.12-111.38-28.58-3.84-.04-4.17 1.79-4.15 4.82.13 19.9 2.36 39.55 7.39 58.81 12.61 48.26 38.97 86.1 83.79 109.79 24.8 13.11 51.49 19.92 79.19 23.08 9.23 1.07 18.5 1.6 27.94 2.38z"/><path d="M326.4 338.32c-9.82-1.29-15.28-10.93-10.69-18.78.82-1.39 1.94-2.63 3.07-3.81 30.82-32.4 61.68-64.77 92.49-97.19 3.61-3.79 7.55-6.25 13.03-4.85 8.18 2.1 11.61 11.5 6.63 18.34-.96 1.32-2.13 2.49-3.25 3.67-30.5 32.03-60.96 64.1-91.59 96.01-2.65 2.77-6.44 4.44-9.69 6.61zm-137.42-6.4c-2.86-1.65-6.31-2.74-8.5-5.02-31.66-32.97-63.17-66.08-94.66-99.22-5.37-5.65-5.26-12.66-.09-17.45 5.06-4.68 12.08-4.23 17.45 1.4 23.31 24.41 46.55 48.88 69.82 73.33 8.13 8.54 16.29 17.07 24.42 25.61 3.77 3.96 4.77 8.57 2.59 13.57-1.95 4.44-5.6 6.68-11.03 7.78z"/></svg>