<svg xmlns="http://www.w3.org/2000/svg" viewBox="0 0 901 484"><path d="M32.98 10h642.43c17.26 5.51 23.23 17.82 22.34 35.16-.7 13.58.12 27.24-.27 40.85-.16 5.49 1.62 6.83 6.92 6.8 37.45-.21 74.9-.13 112.35-.08 2.83 0 5.7.21 8.47.74 5.11.99 8.11 4.39 9.44 9.29 1.38 5.09-.2 9.66-4.3 12.43-3.84 2.6-3.43 4.99-2.19 8.65 8.56 25.19 17.45 50.3 25.14 75.76 4.58 15.16 11.19 28.26 23.46 38.77 9.88 8.46 13.78 20 13.66 33.25-.32 35.17-.6 70.35.11 105.5.33 16.08-10.88 30.87-30.48 30.31-14.64-.42-29.32.27-43.96-.24-6.41-.23-8.8 1.43-9.32 8.07-2.45 31.14-29.03 57.47-61.22 60.2-31.23 2.66-61.84-17.28-70.42-47.58-1.45-5.12-3.54-6.98-9.12-6.97-102.17.19-204.35.19-306.52 0-5.76-.01-7.91 1.77-9.63 7.18-8.03 25.16-25.44 41.05-51.13 46.26-25.2 5.12-47.05-2.49-64.47-21.78-1.19-1.32-2.39-2.63-3.93-4.32-4.31 4.37-7.94 8.8-12.29 12.35-37.49 30.64-94.26 12.89-107.66-33.67-1.3-4.51-3.23-6.24-7.99-5.99-7.51.4-15.06.29-22.59.04-16.63-.55-27.23-11.37-27.53-27.95-.11-6.5-.38-13.03.08-19.51.4-5.69-1.18-8.14-7.3-7.55-16.3 1.55-28.05-4.82-34.07-20.5V30.75C14.94 20.24 22.31 13.37 32.98 10zM684.3 366.39c-.9-.1-2.07-.33-3.24-.33-12.21-.04-24.43.21-36.63-.16-8.67-.26-13.92-5.72-13.7-13.19.22-7.18 5.54-12.04 13.91-12.33 6.3-.22 12.62-.06 18.93-.07 8.27-.01 8.27-.01 8.27-8.29V44.19c0-8.32 0-8.33-8.35-8.33H45c-8.3 0-8.3.01-8.3 8.25 0 95.54-.01 191.07.02 286.61 0 9.92-1.57 9.59 9.43 9.59 178.28 0 356.56 0 534.84.01 3.05 0 6.13-.03 9.13.39 6.28.86 10.65 5.89 10.83 12.06.18 5.88-3.67 11.09-9.64 12.39-3.14.69-6.45.83-9.68.83-78.15.04-156.3.03-234.45.03h-7.05c3.7 8.1 7.79 14.99 9.95 22.44 1.68 5.81 4.31 6.95 9.79 6.94 101.76-.15 203.52-.11 305.28-.11 1.63 0 3.35.31 4.85-.13 1.35-.4 3.07-1.37 3.58-2.54 3.65-8.48 7.03-17.09 10.72-26.23zm124.65-218.68c-3.28-9.78-5.96-18.43-9.22-26.86-.51-1.32-3.6-2.31-5.5-2.32-30.31-.14-60.62-.05-90.94-.17-4.11-.02-5.76 1.13-5.76 5.5.1 70.3.1 140.61 0 210.91-.01 4.21 1.27 5.72 5.58 5.63 10.78-.25 21.56.01 32.34-.1 29.05-.28 50.85 11.79 64.98 37.44 1.01 1.84 3.94 3.68 6 3.71 17.69.29 35.4.11 53.09.21 3.61.02 5.09-1.19 5.06-4.94-.13-15.85-.14-31.7 0-47.55.03-3.63-1.57-4.48-4.8-4.44-4.05.04-8.17.06-12.14-.61-6.31-1.07-10.6-6.41-10.56-12.33.04-6.19 4.7-11.54 11.27-12.35 4.02-.5 8.17.03 12.15-.59 1.5-.23 3.79-2.39 3.83-3.74.3-9.13.47-18.3-.04-27.42-.46-8.27-4.72-11.72-12.93-11.72-31.53-.01-63.07.07-94.6-.03-19.33-.07-29.82-10.61-29.88-29.81-.06-20.32-.03-40.64-.01-60.96.01-13.17 4.31-17.43 17.64-17.46 18.92-.03 37.84-.01 56.76-.01 2.17.01 4.32.01 7.68.01zM176.06 366.14c-22.91-.58-42.25 17.9-42.91 41.01-.66 23.01 18.2 42.52 41.63 43.04 22.51.5 41.82-18.05 42.5-40.84.7-23.31-17.71-42.61-41.22-43.21zm151.33 42.74c.52-23.02-17.76-42.04-41.06-42.74-23.12-.69-42.58 18.06-43.08 41.49-.48 22.66 18.33 41.93 41.53 42.56 22.73.61 42.09-18.17 42.61-41.31zm413.1-42.74c-23.04-.53-42.18 17.84-42.78 41.04-.6 23.21 18.04 42.5 41.56 43.01 22.63.5 42.11-18.49 42.57-41.49.46-22.84-18.18-42.03-41.35-42.56zm95.08-135.89c-.11-1.94.02-2.77-.22-3.49-5.5-16.55-10.89-33.13-16.77-49.54-.64-1.79-4.14-3.58-6.34-3.62-17.87-.29-35.76.02-53.63-.28-5.1-.09-6.11 1.85-6.05 6.4.22 14.81.27 29.63-.02 44.44-.1 4.93 1.62 6.23 6.32 6.18 20.72-.2 41.44-.09 62.17-.09h14.54zM120.11 366.11c-13.03 0-26.14-.09-39.24.19-.98.02-2.65 2.7-2.72 4.2-.3 6.67-.03 13.36-.17 20.05-.07 3.28 1.02 4.85 4.53 4.79 7.5-.13 15.01.13 22.5-.18 1.46-.06 3.51-1.72 4.15-3.15 3.71-8.24 7.08-16.62 10.95-25.9z"/><path d="M354.25 285.29c89.56 0 179.12 0 268.68.02 3.04 0 6.13.03 9.12.54 5.89 1 10.1 6.11 10.26 11.97.16 5.8-3.83 11.08-9.73 12.37-2.75.6-5.64.79-8.47.79-179.94.04-359.87.04-539.81-.01-3.03 0-6.14-.22-9.06-.93-5.43-1.32-9.29-6.81-9.12-12.27.17-5.51 4.28-10.78 9.73-11.82 3.17-.6 6.47-.65 9.71-.65 89.57-.02 179.13-.01 268.69-.01zM188.04 408.33c-.1 7.01-6.1 12.74-13.05 12.47-6.68-.26-12.4-6.09-12.42-12.65-.01-6.99 5.8-12.72 12.88-12.67 7.08.05 12.69 5.78 12.59 12.85zm97.44-12.84c7.14-.01 12.69 5.59 12.65 12.73-.05 7.06-5.9 12.78-12.89 12.58-6.68-.18-12.41-5.94-12.5-12.55-.09-7.01 5.65-12.76 12.74-12.76zm454.63 0c7.03.14 12.7 6.09 12.45 13.05-.25 6.68-6.07 12.3-12.72 12.27-6.95-.03-12.86-5.99-12.76-12.86.09-6.99 5.96-12.6 13.03-12.46z"/></svg>